<?xml version="1.0" encoding="UTF-8" standalone="no"?>
<svg
   xmlns:dc="http://purl.org/dc/elements/1.1/"
   xmlns:cc="http://creativecommons.org/ns#"
   xmlns:rdf="http://www.w3.org/1999/02/22-rdf-syntax-ns#"
   xmlns:svg="http://www.w3.org/2000/svg"
   xmlns="http://www.w3.org/2000/svg"
   xmlns:sodipodi="http://sodipodi.sourceforge.net/DTD/sodipodi-0.dtd"
   xmlns:inkscape="http://www.inkscape.org/namespaces/inkscape"
   height="512px"
   style="enable-background:new 0 0 512 512;"
   version="1.1"
   viewBox="0 0 512 512"
   width="512px"
   xml:space="preserve"
   id="svg117"
   sodipodi:docname="medium.svg"
   inkscape:version="0.92.3 (2405546, 2018-03-11)"><metadata
     id="metadata123"><rdf:RDF><cc:Work
         rdf:about=""><dc:format>image/svg+xml</dc:format><dc:type
           rdf:resource="http://purl.org/dc/dcmitype/StillImage" /></cc:Work></rdf:RDF></metadata><defs
     id="defs121" /><sodipodi:namedview
     pagecolor="#ffffff"
     bordercolor="#666666"
     borderopacity="1"
     objecttolerance="10"
     gridtolerance="10"
     guidetolerance="10"
     inkscape:pageopacity="0"
     inkscape:pageshadow="2"
     inkscape:window-width="1600"
     inkscape:window-height="799"
     id="namedview119"
     showgrid="false"
     inkscape:zoom="1.2050781"
     inkscape:cx="256"
     inkscape:cy="256"
     inkscape:window-x="0"
     inkscape:window-y="21"
     inkscape:window-maximized="1"
     inkscape:current-layer="svg117" /><g
     id="comp_x5F_211-medium"><g
       id="g113"><g
         id="g111"><g
           id="g109"><path
             d="M86.742,151.812c0.55-5.41-1.56-10.821-5.595-14.49L39.785,87.429V80h128.583l99.417,200      l87.403-200H477.81v7.429l-35.401,33.934c-3.026,2.293-4.585,6.144-3.943,9.905v249.463c-0.642,3.76,0.917,7.612,3.943,9.906      l34.576,33.933V432H303.003v-7.43l35.861-34.759c3.485-3.485,3.485-4.587,3.485-9.906V190l-99.693,241.357h-13.482      L116.99,178.318v169.581c-1.01,7.152,1.374,14.308,6.42,19.442L170,423.838v7.429H34.19v-7.339l46.591-56.587      c4.952-5.135,7.245-12.381,5.961-19.442V151.812z"
             style="fill:#333333;"
             id="path105" /><path
             d="M476.984,442H303.003c-5.522,0-10-4.478-10-10v-7.43c0-2.706,1.097-5.297,3.04-7.181l35.801-34.7      c0.201-0.201,0.361-0.367,0.488-0.503c0.018-0.617,0.018-1.484,0.018-2.281V240.404l-80.451,194.771      c-1.545,3.742-5.194,6.183-9.243,6.183h-13.482c-3.955,0-7.539-2.331-9.142-5.947L126.99,225.547v122.352      c0,0.468-0.033,0.935-0.098,1.397c-0.574,4.068,0.756,8.091,3.65,11.036c0.204,0.207,0.398,0.423,0.583,0.646l46.589,56.497      c1.478,1.791,2.285,4.041,2.285,6.362v7.429c0,5.522-4.477,10-10,10H34.19c-5.523,0-10-4.478-10-10v-7.339      c0-2.319,0.806-4.566,2.28-6.356l46.591-56.587c0.167-0.202,0.341-0.397,0.522-0.586c2.775-2.877,4.017-6.882,3.32-10.711      c-0.107-0.59-0.161-1.189-0.161-1.789V151.812c0-0.338,0.017-0.675,0.051-1.011c0.229-2.248-0.659-4.521-2.373-6.08      c-0.347-0.315-0.672-0.655-0.971-1.017L32.086,93.812c-1.487-1.794-2.301-4.052-2.301-6.382V80c0-5.523,4.477-10,10-10h128.583      c3.796,0,7.265,2.149,8.955,5.549l89.879,180.813l78.823-180.366c1.592-3.642,5.188-5.996,9.163-5.996H477.81      c5.522,0,10,4.477,10,10v7.429c0,2.726-1.112,5.333-3.08,7.219l-35.401,33.934c-0.278,0.267-0.572,0.518-0.88,0.75      c-0.084,0.063-0.133,0.206-0.126,0.253c0.095,0.556,0.143,1.118,0.143,1.682v249.463c0,0.563-0.048,1.126-0.143,1.682      c-0.007,0.049,0.044,0.192,0.127,0.255c0.338,0.257,0.66,0.535,0.963,0.833l34.576,33.933c1.917,1.88,2.996,4.452,2.996,7.137      V432C486.984,437.522,482.507,442,476.984,442z M320.023,422h140.065l-24.304-23.852c-5.413-4.416-8.158-11.226-7.32-18.123      V131.974c-0.84-6.919,1.926-13.751,7.374-18.166L460.677,90h-98.945l-84.783,194.005c-1.556,3.56-5.032,5.896-8.917,5.992      c-3.87,0.087-7.472-2.067-9.201-5.546L162.172,90H54.906l33.542,40.459c5.875,5.659,8.943,13.715,8.294,21.8v194.824      c1.453,9.701-1.672,19.655-8.468,26.89l-38.939,47.294h105.583l-38.97-47.256c-6.886-7.204-10.126-16.891-8.958-26.754V178.318      c0-4.725,3.307-8.805,7.929-9.783c4.621-0.98,9.298,1.411,11.213,5.73l109.547,247.093h0.288l97.14-235.175      c1.821-4.411,6.506-6.923,11.188-5.991c4.681,0.929,8.054,5.036,8.054,9.809v189.905c0,6.746-0.298,10.861-6.414,16.978      c-0.037,0.036-0.074,0.073-0.111,0.109L320.023,422z"
             style="fill:#262626;"
             id="path107" /></g></g></g></g><g
     id="Layer_1" /><path
     style="fill:#a0a0a0;stroke:none;stroke-width:0.82982171"
     d="m 320.39417,421.98789 c 0,-0.1696 6.39469,-6.61109 14.21043,-14.31442 8.80176,-8.67517 14.79579,-15.26941 15.74839,-17.32533 1.47014,-3.17294 1.53875,-7.72074 1.55618,-103.14656 0.0201,-110.17457 0.36709,-103.18781 -5.25702,-105.85662 -3.50209,-1.66185 -4.77261,-1.68803 -8.39852,-0.17302 -2.03473,0.85016 -3.39077,2.31125 -4.8135,5.18638 -1.0894,2.20153 -23.42147,55.99688 -49.6268,119.54523 -26.20534,63.54835 -47.84426,115.54705 -48.08651,115.55268 -0.24224,0.006 -0.83287,-1.01668 -1.31252,-2.27179 -0.82759,-2.16557 -32.04814,-72.65855 -85.34497,-192.70063 -21.78391,-49.06459 -24.3928,-54.51123 -26.92909,-56.22043 -1.5446,-1.0409 -3.81818,-1.89255 -5.0524,-1.89255 -2.78179,0 -7.5089,3.09705 -8.90406,5.83366 -0.82507,1.61838 -1.00222,21.3611 -0.84191,93.82901 l 0.20302,91.77937 2.90438,5.51205 c 1.77602,3.37062 10.80284,15.04066 23.23501,30.03866 11.18185,13.48964 20.4551,24.88127 20.60724,25.31474 0.17276,0.49222 -19.40333,0.78813 -52.14047,0.78813 -33.636368,0 -52.317962,-0.28949 -52.140461,-0.80798 0.152134,-0.44439 9.238682,-11.6688 20.192328,-24.94312 10.953647,-13.27433 21.000724,-26.01947 22.326838,-28.32253 1.326114,-2.30307 2.819793,-6.10881 3.319287,-8.4572 0.643295,-3.0245 0.787158,-35.24885 0.493259,-110.487 l -0.41491,-106.21718 -1.898496,-3.55523 C 92.984722,136.72084 83.695877,124.95812 73.387016,112.53683 L 54.643634,89.952674 108.01583,89.739066 c 29.3547,-0.117485 53.65235,0.06923 53.99477,0.414911 0.72211,0.728999 51.11523,101.595523 78.69031,157.506013 13.37432,27.1174 19.52068,38.74317 21.16794,40.0389 3.44195,2.70744 8.79687,2.50454 12.03737,-0.4561 1.95158,-1.78305 9.86234,-19.15594 36.18008,-79.45543 18.52531,-42.44538 37.69504,-86.32221 42.59942,-97.50405 l 8.91706,-20.330636 49.72308,-0.18713 49.72309,-0.18713 -15.07455,14.709006 c -13.99098,13.65173 -15.16903,15.03299 -16.38898,19.21619 -1.17418,4.02627 -1.31443,18.15474 -1.31443,132.41341 0,114.65019 0.13718,128.37334 1.32373,132.4134 1.20971,4.11897 2.583,5.77585 15.94386,19.23652 l 14.62013,14.72933 h -69.88227 c -38.43525,0 -69.88227,-0.13877 -69.88227,-0.30838 z"
     id="path127"
     inkscape:connector-curvature="0" /><path
     style="fill:#008066;stroke:none;stroke-width:0.82982171"
     d="m 334.64098,421.67522 -12.72239,-0.25273 12.57241,-12.97098 c 6.91483,-7.13404 13.57345,-14.28341 14.79695,-15.88749 l 2.22453,-2.91652 V 288.75957 c 0,-55.48836 -0.29009,-101.92642 -0.64464,-103.19568 -0.78013,-2.79283 -5.04754,-5.56822 -8.56814,-5.57246 -1.41581,-0.002 -3.81579,0.8371 -5.3333,1.864 -3.27454,2.21591 0.84705,-7.313 -50.33963,116.3825 -32.20372,77.82208 -40.39842,97.53602 -49.82469,119.8629 l -1.20665,2.85804 -12.43598,-28.1676 C 181.1057,297.53922 135.1516,194.38018 129.99317,183.64899 c -3.56702,-7.42053 -6.82051,-13.08246 -7.98702,-13.89952 -3.36878,-2.35958 -7.81593,-1.78739 -11.36161,1.46185 l -3.09965,2.84049 -0.22176,92.79647 -0.22176,92.79645 2.2337,4.14911 c 2.88776,5.36404 8.80874,13.14389 25.39744,33.37089 7.41051,9.03581 14.68453,17.97039 16.16451,19.85462 l 2.69086,3.4259 -26.75569,0.60605 c -14.71563,0.33333 -37.86968,0.28303 -51.453443,-0.11177 L 50.680994,420.22172 68.606732,398.23144 C 88.698238,373.58433 92.89876,367.93859 95.155,362.54911 96.663373,358.94606 96.709805,355.01392 96.477113,250.58659 96.262172,154.12584 96.094111,142.0807 94.931431,139.80539 93.071094,136.1648 69.941917,107.14966 56.680095,91.819773 55.485396,90.438771 58.035071,90.367585 108.69298,90.367585 h 53.26917 l 48.2916,96.820755 c 30.50785,61.16576 49.24945,97.83635 50.89261,99.5786 2.1821,2.31371 3.19025,2.75786 6.26001,2.75786 2.01247,0 4.49818,-0.58777 5.52381,-1.30614 3.23498,-2.26587 7.16718,-10.89732 58.00095,-127.31623 16.64036,-38.10956 30.50581,-69.541535 30.81211,-69.84883 0.30631,-0.307295 22.47454,-0.680715 49.26274,-0.829822 l 48.70582,-0.271104 -14.81751,14.955176 c -12.56873,12.6855 -14.92305,15.45613 -15.51295,18.25608 -0.38249,1.81549 -0.69544,62.11451 -0.69544,133.99782 0,129.12111 0.02,130.73391 1.65964,133.7647 0.91281,1.68727 7.76222,9.43573 15.22092,17.2188 l 13.56129,14.15102 -55.88219,-0.18417 c -30.73521,-0.10129 -61.60726,-0.29789 -68.60458,-0.43688 z"
     id="path129"
     inkscape:connector-curvature="0" /><path
     style="fill:#a0a0a0;stroke:none;stroke-width:0.82982171"
     d="m 227.25632,440.78874 c -1.2498,-0.18962 -3.30361,-1.40802 -4.56402,-2.70755 -1.54359,-1.59151 -17.45853,-36.65226 -48.755,-107.40772 -25.55484,-57.77472 -46.74641,-105.04494 -47.09238,-105.04494 -0.91937,0 -0.78186,126.02588 0.14102,129.24381 0.45483,1.58588 10.93026,15.00175 25.58955,32.77248 13.65072,16.54809 25.25363,30.90308 25.78424,31.89998 0.53061,0.9969 0.96474,4.86179 0.96474,8.58865 0,6.59973 -0.0734,6.84955 -2.82139,9.59751 l -2.82139,2.82139 H 102.15105 30.620421 l -2.821393,-2.82139 c -2.787313,-2.78732 -2.821394,-2.91089 -2.821394,-10.23046 v -7.40906 L 49.549821,390.283 c 13.514703,-16.39464 25.27603,-30.92871 26.136282,-32.29791 1.510619,-2.40435 1.564201,-6.04183 1.567197,-106.39071 L 77.2564,147.69313 55.47358,121.45796 C 43.493031,107.02862 32.943922,94.231681 32.031118,93.020323 30.662467,91.204021 30.371475,89.530482 30.371475,83.475472 V 76.13309 l 3.115156,-2.854828 3.115156,-2.854827 67.955183,0.22167 c 66.62251,0.217323 67.99156,0.254217 69.80964,1.881313 1.01995,0.912804 22.21925,42.642462 47.10955,92.732582 24.89031,50.09011 45.47317,91.07113 45.73971,91.06892 0.26654,-0.002 4.75586,-9.80447 9.97627,-21.78282 60.4634,-138.73462 69.77823,-159.602065 72.22941,-161.811226 l 2.53202,-2.28201 h 63.9244 c 55.09007,0 64.25577,0.171366 66.32227,1.239993 4.14213,2.141982 4.98809,4.203948 4.98809,12.158127 0,6.424956 -0.22003,7.47841 -1.99799,9.565764 -1.0989,1.290123 -9.86901,9.814072 -19.48912,18.942112 l -17.49112,16.59643 -0.0117,127.09738 -0.0117,127.09738 17.92105,17.2916 c 9.85657,9.51038 18.44522,18.29996 19.0859,19.5324 0.72133,1.38761 1.16485,4.81575 1.16485,9.00357 0,6.58456 -0.0743,6.83711 -2.82139,9.58416 l -2.8214,2.82139 h -90.61653 -90.61653 l -2.74694,-2.74694 c -3.14046,-3.14046 -4.2702,-8.01066 -3.35703,-14.47186 0.54218,-3.83626 1.07809,-4.45198 20.04271,-23.02755 l 19.48564,-19.0859 -0.0328,-70.90827 c -0.02,-43.25637 -0.33093,-70.60084 -0.79735,-70.11993 -0.42052,0.43358 -18.72331,44.29173 -40.67286,97.46256 -21.94955,53.17083 -40.59152,97.60778 -41.4266,98.74878 -0.83507,1.14101 -2.7903,2.52025 -4.34496,3.065 -2.68627,0.94125 -13.50279,1.23007 -18.37617,0.49068 z m 218.64655,-33.70357 c -12.62801,-12.7934 -15.12355,-15.72805 -15.7008,-18.46354 -0.3775,-1.78883 -0.68635,-62.28473 -0.68635,-134.43533 V 123.00339 l 2.4631,-3.55412 c 1.3547,-1.95477 8.59949,-9.48454 16.09952,-16.73282 l 13.63642,-13.178687 h -50.16539 -50.16541 l -30.18478,69.082657 c -55.82126,127.75582 -55.89981,127.92499 -60.23668,129.73705 -4.11829,1.72074 -7.72269,0.59839 -10.3155,-3.21208 -1.141,-1.67685 -23.7329,-46.28119 -50.20421,-99.12076 L 162.31313,89.952674 108.58217,89.739166 c -29.552024,-0.11743 -53.722336,0.06928 -53.711802,0.414911 0.01053,0.345631 4.356204,5.856296 9.657043,12.245923 16.546293,19.94488 26.889822,32.98925 28.960235,36.52214 l 1.993045,3.40087 0.22335,107.83104 c 0.253737,122.50163 0.898542,111.34213 -7.044787,121.92258 -2.392152,3.18633 -12.097828,15.30014 -21.568168,26.91958 -9.47034,11.61944 -17.218801,21.42865 -17.218801,21.79825 0,0.3696 23.525446,0.67199 52.278765,0.67199 28.75333,0 52.27877,-0.30481 52.27877,-0.67737 0,-0.37254 -4.72662,-6.44062 -10.50361,-13.4846 -19.89414,-24.25729 -29.81424,-36.91947 -32.88632,-41.97666 l -3.08008,-5.07036 v -92.51212 -92.51212 l 1.79897,-2.28702 c 2.6107,-3.31897 6.52698,-4.76865 9.80003,-3.62765 3.21866,1.12203 5.12393,4.06842 11.23947,17.38123 4.79217,10.43197 61.38904,137.72777 89.16036,200.53652 8.32431,18.82658 15.40209,34.23015 15.72842,34.23015 0.32632,0 2.10242,-3.64084 3.94688,-8.09076 1.84446,-4.44992 15.57468,-37.59093 30.51158,-73.64668 57.79127,-139.50057 64.53304,-155.49491 66.16527,-156.97206 2.57922,-2.33417 9.99881,-2.11658 12.48172,0.36604 l 1.89015,1.88992 0.25019,99.34833 c 0.1376,54.64158 0.0112,101.0029 -0.28081,103.02516 -0.49311,3.41446 -1.59167,4.7514 -15.39444,18.73494 -8.17489,8.28195 -14.86343,15.30939 -14.86343,15.61651 0,0.30714 31.61771,0.55842 70.26158,0.55842 h 70.26159 z"
     id="path131"
     inkscape:connector-curvature="0" /><path
     style="fill:#216778;stroke:none;stroke-width:0.82982171"
     d="m 378.69,421.47522 -55.80465,-0.42368 11.8241,-12.46537 c 6.50326,-6.85595 13.03771,-13.87057 14.52102,-15.58803 l 2.69692,-3.12266 -0.1148,-89.38442 c -0.0632,-49.16143 -0.3432,-95.53232 -0.62236,-103.04644 l -0.50757,-13.66202 -2.81964,-1.89714 c -5.91351,-3.97878 -12.15501,-1.49047 -15.58905,6.21493 -3.63118,8.14775 -14.50941,34.18429 -39.42877,94.37092 -40.98864,98.99805 -56.44712,136.06865 -56.98754,136.66043 -0.28612,0.31331 -5.16552,-9.95573 -10.8431,-22.8201 -47.18564,-106.91403 -90.43205,-203.74723 -96.05566,-215.07858 -5.5339,-11.15059 -7.04397,-12.86223 -11.34753,-12.86223 -2.71396,0 -4.35169,0.62298 -7.01125,2.66704 l -3.47014,2.66705 v 93.21042 c 0,107.7826 -1.40147,93.51988 10.76161,109.52041 4.08194,5.3698 13.53696,17.23167 21.01116,26.35971 13.08848,15.98462 13.51045,16.61576 11.44643,17.12063 -2.76341,0.67593 -84.90989,0.66682 -92.688977,-0.0103 l -5.90414,-0.5139 14.865893,-18.25608 C 86.115293,377.197 91.750729,369.73008 94.491582,364.20874 l 2.26563,-4.56402 0.06414,-60.16207 c 0.03527,-33.08914 -0.151433,-82.41043 -0.414911,-109.60286 L 95.927391,140.439 91.013589,133.86682 C 84.633817,125.33393 71.192284,108.55852 63.076022,98.999974 l -6.41005,-7.549134 12.992136,-0.538863 c 7.145674,-0.296375 30.730672,-0.540107 52.411102,-0.541628 l 39.41896,-0.0028 33.04538,66.178281 c 42.62026,85.35338 64.31773,127.60032 67.06875,130.58891 1.78049,1.93425 2.89256,2.39002 5.83156,2.39002 7.92269,0 4.34388,7.14729 60.04118,-119.90924 15.20541,-34.68655 29.14787,-66.42723 30.98323,-70.534843 l 3.33702,-7.468395 18.92343,-0.615031 c 10.40788,-0.338267 32.10951,-0.524977 48.22584,-0.414911 l 29.30243,0.20012 -13.1209,13.59257 c -7.2165,7.47592 -13.86508,14.74956 -14.77462,16.16366 -1.62771,2.53064 -1.65856,4.39251 -1.96133,118.34908 -0.16918,63.67789 -0.0356,123.75869 0.29684,133.51288 l 0.60444,17.73488 4.58173,5.50012 c 2.51995,3.02507 7.80524,8.86091 11.7451,12.96852 3.93986,4.10762 8.44329,8.86872 10.00763,10.58023 l 2.84425,3.11183 -11.98773,-0.19868 c -6.59326,-0.10928 -37.09984,-0.38935 -67.7924,-0.62237 z"
     id="path133"
     inkscape:connector-curvature="0" /></svg>