<?xml version="1.0" encoding="UTF-8" standalone="no"?>
<svg
   xmlns:dc="http://purl.org/dc/elements/1.1/"
   xmlns:cc="http://creativecommons.org/ns#"
   xmlns:rdf="http://www.w3.org/1999/02/22-rdf-syntax-ns#"
   xmlns:svg="http://www.w3.org/2000/svg"
   xmlns="http://www.w3.org/2000/svg"
   xmlns:sodipodi="http://sodipodi.sourceforge.net/DTD/sodipodi-0.dtd"
   xmlns:inkscape="http://www.inkscape.org/namespaces/inkscape"
   role="img"
   viewBox="0 0 24 24"
   version="1.1"
   id="svg3767"
   sodipodi:docname="codewars.svg"
   inkscape:version="0.92.3 (2405546, 2018-03-11)">
  <metadata
     id="metadata3773">
    <rdf:RDF>
      <cc:Work
         rdf:about="">
        <dc:format>image/svg+xml</dc:format>
        <dc:type
           rdf:resource="http://purl.org/dc/dcmitype/StillImage" />
      </cc:Work>
    </rdf:RDF>
  </metadata>
  <defs
     id="defs3771" />
  <sodipodi:namedview
     pagecolor="#ffffff"
     bordercolor="#666666"
     borderopacity="1"
     objecttolerance="10"
     gridtolerance="10"
     guidetolerance="10"
     inkscape:pageopacity="0"
     inkscape:pageshadow="2"
     inkscape:window-width="1600"
     inkscape:window-height="799"
     id="namedview3769"
     showgrid="false"
     inkscape:zoom="16"
     inkscape:cx="5.5233457"
     inkscape:cy="14.97335"
     inkscape:window-x="0"
     inkscape:window-y="21"
     inkscape:window-maximized="1"
     inkscape:current-layer="svg3767" />
  <title
     id="title3763" />
  <path
     d="M.76 12.2l-.08-.04c-.18-.1-.32-.25-.42-.44-.14-.26-.2-.5-.2-.75l.02-.13c0-.2.05-.38.14-.55l.08-.15c.04-.08.1-.15.15-.22.06-.07.07-.16.05-.24l-.05-.16c-.06-.2-.1-.4-.1-.6L.32 8.8c0-.22.06-.44.2-.6l.1-.13c.07-.1.18-.16.3-.2.1-.03.17-.13.18-.25l.02-.34c0-.27.13-.52.33-.7l.24-.18c.05-.05.1-.1.14-.18.05-.06.06-.14.05-.2-.02-.1 0-.13.05-.14.16.06.26.04.33-.04l.13-.17.36-.4c.1-.1.14-.28.08-.42l-.12-.26c-.02-.06 0-.13.05-.15.13 0 .22.05.26.13l.04.07c.06.12.2.18.3.13.22-.08.4-.1.57-.1h.32c.22 0 .4-.15.44-.38.04-.28.14-.5.28-.65.15-.17.32-.3.52-.4.26-.14.42-.34.47-.6.07-.32.24-.55.47-.7l.76-.43.22-.13c.13-.08.25-.18.35-.3l.2-.24c.1-.1.2-.17.32-.2.1-.03.24-.05.36-.04l.4.03c.2 0 .36.05.52.12l.1.05c.1.04.2.02.25-.05L10 .7l.43-.45c.1-.1.22-.14.35-.12.13.02.26.07.38.13.18.1.33.14.5.14h.1c.22 0 .44.03.66.08l.15.04c.15.04.3-.02.4-.14.03-.05.1-.06.14-.02.03.02.04.04.05.07.02.2.14.35.3.4l.16.05c.17.05.32.16.42.3.1.15.22.3.36.4l.1.1c.1.1.24.14.38.13h.59c.24 0 .47.04.7.14.22.1.45.12.66.04.22-.07.45-.1.68-.07l.43.07c.2.02.4.12.52.27l.05.05c.1.1.2.23.3.37.06.13.2.2.34.2h.62c.15 0 .3.03.42.1.13.1.24.2.34.3l.1.13c.12.14.18.33.17.53 0 .16.12.3.28.3l.2.02c.14 0 .26.1.33.23l.1.2.26.58c.04.1.05.2.04.28 0 .1.03.18.1.22l.1.07c.13.1.2.25.18.42l-.07.47-.02.2c-.02.1.03.23.12.3.15.1.22.23.23.38v.2c0 .1-.02.22-.1.3-.06.08-.1.18-.1.3l.03.23c0 .16.1.3.2.4.14.1.22.26.24.42.04.25.05.45.05.65v.23c0 .08 0 .16.03.24.02.07.07.14.13.18l.2.15c.2.13.34.3.42.53.1.22.13.45.13.68v.08c0 .18-.02.37-.08.54-.05.18-.04.35.03.5.08.14.13.3.15.47.04.2.02.4-.05.56l-.02.07c-.05.12-.13.23-.23.32-.1.1-.2.16-.26.23-.06.06-.1.16-.07.25l.03.14c.05.2.05.4 0 .58v.08c-.04.15-.1.28-.16.4-.07.13-.17.23-.3.3l-.15.1c-.07.04-.12.13-.12.22 0 .1-.04.2-.1.26l-.15.2c-.1.13-.23.24-.37.3-.14.1-.26.2-.35.3-.1.12-.18.26-.22.4-.04.18-.18.28-.33.28h-.54c-.14 0-.27.1-.33.22-.07.16-.14.27-.23.37-.1.1-.16.22-.2.36-.02.12-.12.2-.22.16-.13-.06-.26 0-.32.1-.12.2-.24.35-.37.48l-.07.06c-.13.1-.3.18-.45.18-.18 0-.27.08-.3.2-.03.1-.05.23-.06.34-.02.12-.06.23-.1.33l-.05.06c-.1.15-.18.3-.28.43l-.04.06c-.13.17-.3.3-.5.35-.24.08-.45.1-.66.1h-.14c-.1 0-.2.06-.27.16l-.06.1-.06.12-.13.22c-.1.18-.25.3-.45.36-.2.05-.43.07-.64.06l-.16-.02c-.14 0-.27-.04-.4-.1-.1-.04-.24 0-.3.1-.1.14-.22.22-.35.26l-.3.1c-.2.05-.42.05-.63 0l-.16-.05c-.1 0-.2-.05-.28-.1-.1-.05-.2-.07-.3-.06l-.13.02c-.2.02-.38 0-.56-.05l-.27-.06c-.12-.04-.23-.12-.3-.23-.05-.1-.16-.18-.3-.2H9.9c-.2-.03-.38-.1-.5-.25L9 22.5l-.14-.12-.22-.16-.13-.1c-.15-.1-.33-.18-.52-.2l-.6-.1c-.06 0-.1-.02-.16-.03L7 21.74c-.1-.02-.2-.1-.27-.2-.06-.1-.17-.14-.27-.1-.2.08-.36.1-.52.13H5.8c-.26.02-.5-.02-.74-.13-.24-.1-.4-.25-.55-.44-.12-.17-.3-.3-.52-.34l-.28-.06c-.2-.04-.4-.12-.58-.24-.2-.14-.3-.27-.38-.43-.08-.15-.13-.32-.14-.5v-.08c-.02-.2-.16-.38-.35-.43-.23-.07-.4-.17-.55-.3-.14-.13-.22-.32-.22-.52l.02-.44c0-.17-.05-.32-.17-.43-.12-.12-.2-.27-.2-.43l-.03-.36c-.02-.26-.07-.52-.13-.78-.06-.23.03-.46.22-.57l.07-.05c.1-.07.14-.2.08-.32l-.08-.1c-.1-.1-.2-.17-.3-.2-.08-.02-.1-.1-.1-.15l.1-.12c.06-.07.05-.18 0-.24-.08-.08-.12-.18-.13-.28l-.02-.7c0-.14.02-.28.06-.42.04-.12 0-.26-.12-.32zm9.9-1.32c.07-.07.06-.2 0-.25-.1-.08-.17-.17-.23-.27l-.1-.16c-.07-.13-.16-.24-.26-.34l-.02-.02c-.1-.08-.17-.18-.23-.3-.05-.1-.05-.2 0-.3l.06-.1c.06-.1.1-.24.1-.36v-.04c0-.1-.04-.2-.1-.3-.04-.08-.08-.18-.1-.28V8.1c-.03-.12 0-.25.08-.35.08-.13.14-.25.17-.4v-.02c.04-.1.02-.23-.04-.33s-.08-.2-.04-.32l.07-.2c.06-.18.15-.34.27-.48l.14-.15.1-.12.06-.06c.06-.06.07-.16.02-.24-.05-.1-.08-.2-.06-.3l.02-.14c.03-.2.1-.4.23-.56l.04-.04c.15-.2.34-.33.56-.4l.27-.1c.12-.04.2-.17.2-.3 0-.16.05-.3.14-.43l.05-.05c.1-.17.22-.34.3-.52l.07-.13c.02-.03.03-.07.03-.1 0-.17-.1-.32-.26-.33L11.76 2c-.25-.02-.5 0-.74 0l-.85.1c-.13 0-.23.1-.24.24 0 .14-.1.26-.22.3l-.36.1-.1.03-.3.1c-.22.07-.4.23-.5.45l-.08.13c-.1.22-.27.4-.48.53-.2.13-.3.34-.32.58v.1c-.02.2-.08.4-.2.54l-.05.08c-.08.1-.1.23-.05.34.05.12.08.25.07.38v.53c0 .14-.1.26-.2.3-.14.05-.23.16-.27.3l-.05.2c-.04.2.03.4.2.52.16.12.26.3.3.52v.18c.03.2.14.4.32.5.18.12.32.3.4.5l.05.16c.08.22.26.35.46.37h.06c.18 0 .34.1.44.26.1.16.26.27.44.3l.28.08c.17.05.33.14.46.27l.02.02c.1.08.26.07.35-.04l.07-.08zm1.14-.92c.1.06.2.03.24-.06l.03-.05c.07-.14.16-.28.26-.4l.2-.3c.03 0 .04-.02.05-.04l.24-.32c.1-.1.22-.17.36-.17.13 0 .24-.07.3-.2.04-.14.1-.27.22-.38l.05-.06c.1-.1.2-.15.3-.2.13-.02.25-.04.37-.04h.3c.12 0 .22-.05.28-.15.06-.1.15-.17.25-.22l.1-.04c.16-.07.34-.12.52-.14l.2-.02c.12 0 .25 0 .37.07.1.07.23.06.33-.02l.07-.04c.15-.1.32-.18.5-.2h.02c.2-.04.38-.04.58-.03h.1c.2.03.37.1.5.25l.03.04c.1.1.26.18.4.18h.17c.05 0 .1-.02.13-.07.03-.03.08-.06.13-.06h.1c.14 0 .27.04.4.08l.17.07c.16.05.33.1.5.12h.12c.08 0 .13-.05.13-.12 0-.1-.02-.2-.07-.28L20.68 7c-.08-.13-.14-.27-.2-.4l-.02-.05c-.05-.1-.05-.2 0-.3V6.2c.02-.08-.02-.17-.1-.2L20.28 6c-.16-.05-.3-.14-.4-.27l-.1-.1c-.1-.1-.16-.25-.2-.4-.05-.13-.16-.23-.3-.23h-.42c-.15-.02-.28-.1-.37-.22l-.04-.05c-.07-.1-.13-.22-.17-.34-.05-.1-.16-.16-.26-.13l-.12.04c-.2.07-.4.1-.6.08l-.16-.02c-.17 0-.33-.07-.46-.17l-.1-.07c-.08-.06-.16-.1-.25-.14-.1-.04-.18-.02-.24.05l-.05.06c-.1.1-.24.18-.38.2l-.54.03c-.1 0-.2.05-.27.12-.08.07-.17.12-.27.14h-.02c-.1 0-.2.07-.3.14v.02c-.1.1-.23.15-.36.15l-.04.02c-.12 0-.24 0-.36.03h-.12c-.17.03-.3.17-.34.35l-.04.23c-.03.16-.1.3-.2.43-.1.12-.22.2-.37.2h-.15-.02c-.1.02-.2.13-.18.25.02.17 0 .32-.03.47l-.04.17c-.04.15-.14.27-.27.32l-.06.03h-.02c-.06.04-.1.13-.05.2.06.1.08.2.07.3l-.03.32c0 .12-.05.23-.1.33-.06.1-.06.2-.02.3l.1.22c.05.1.06.2.03.32-.03.1-.05.2-.04.3 0 .1.06.2.14.24l.02.02zm7.9 7.23c.1.1.25.14.37.06l.2-.13c.1-.07.18-.17.22-.3v-.02l.1-.3.06-.1.04-.1.04-.07c.04-.08.1-.14.2-.17l.04-.02c.08-.02.13-.1.13-.18 0-.1.05-.18.1-.25l.08-.07.2-.26v-.02c.06-.08.1-.17.12-.27.02-.1 0-.2-.04-.3l-.02-.04c-.04-.1-.06-.17-.07-.26l-.03-.28-.03-.3c0-.1.04-.2.1-.3.07-.08.12-.18.16-.28v-.04l.02-.02c.02-.1-.03-.2-.12-.2-.1-.05-.2-.13-.23-.25l-.03-.06c-.05-.18-.08-.36-.08-.54l.02-.5v-.03c0-.17-.14-.3-.3-.3h-.02c-.2 0-.36-.06-.5-.2l-.08-.1-.2-.23-.26-.3c-.1-.14-.2-.26-.33-.38-.1-.1-.25-.2-.4-.22l-.2-.03c-.1-.02-.23-.07-.34-.14-.08-.06-.2-.04-.28.04l-.13.14-.06.04c-.07.02-.14-.02-.17-.1-.04-.12-.04-.26.02-.38v-.06c0-.07-.06-.12-.12-.1h-.16c-.18 0-.36-.02-.53-.1l-.1-.04c-.1-.05-.22-.08-.33-.08-.1 0-.2.02-.3.08l-.04.03c-.12.08-.26.12-.4.13h-.33c-.15 0-.3.05-.4.13-.13.08-.27.13-.42.16l-.27.04c-.12.03-.25.08-.36.17-.1.1-.24.16-.37.2l-.05.02c-.16.05-.3.15-.4.3l-.12.12c-.07.1-.07.22 0 .32.06.1.18.13.3.1l.15-.06c.08-.03.17 0 .24.04.06.05.15.08.24.07l.25-.03c.14 0 .28 0 .42.04.15.05.28.1.4.2s.25.14.4.16c.15.02.3.05.44.1l.1.02c.1.03.18.1.24.2.05.08.1.2.1.3v.03c0 .12.1.2.2.2h.06c.16 0 .33.02.5.07l.07.03c.1.04.2.1.27.2.08.1.13.2.16.3l.03.14c.03.15.04.3.04.46v.05c0 .1.07.2.18.24.1.02.22.06.33.12l.05.02c.13.08.26.18.36.3l.05.07c.13.15.2.34.2.53v.07c0 .15-.03.3-.08.44-.04.12 0 .26.13.3l.07.05c.15.06.28.17.38.3.1.15.14.32.14.5v.3c-.02.1-.05.18-.1.25s-.05.17 0 .24l.06.1zm-6.4-5.12h-.02c-.04 0-.06.05-.05.1l.04.2c.04.16.06.32.08.48.02.16.1.3.22.4h.04c.15.12.24.3.25.48v.5c-.02.1 0 .2.06.28l.05.05c.1.12.14.26.15.4l.03.55c0 .13-.08.24-.2.26l-.1.02c-.07 0-.1.08-.1.15 0 .08.03.17.06.25v.02c.03.1.04.2.03.3l-.04.27c-.04.2-.1.38-.2.56l-.07.12c-.05.1-.12.16-.2.2-.1.04-.17.12-.2.22l-.08.36c-.05.2-.14.4-.26.6h-.02c-.12.16-.27.3-.45.4l-.12.08-.3.15c-.1.04-.16.13-.18.24l-.05.33c-.03.2-.1.37-.24.5l-.13.15-.15.15L11 21c-.12.14-.3.2-.5.17l-.36-.07-.33-.04h-.09c-.04.04-.05.1-.02.16.07.12.18.2.3.2l.22.04c.1 0 .22.05.32.1.1.07.2.12.32.15h.02c.13.05.27.06.4.05l.15-.02c.17-.02.33 0 .47.06l.12.04c.05.02.13 0 .18-.05.06-.06.12-.1.2-.13l.08-.02c.13-.04.26-.06.4-.06h.08c.12 0 .23.02.33.08l.04.02c.07.03.15 0 .2-.06.03-.07.1-.14.17-.2l.25-.17.16-.1.08-.05c.1-.07.24-.1.36-.1l.36-.03c.14-.02.26-.12.3-.26.04-.15.1-.3.2-.43s.2-.24.3-.34c.13-.1.26-.15.4-.16h.08c.16-.03.28-.18.27-.34v-.02V18.77c.02-.1.06-.23.12-.33l.2-.3.08-.1c.06-.05.1-.12.17-.2l.1-.13c.06-.1.06-.23-.02-.32-.1-.1-.15-.24-.17-.38v-.04c-.02-.16-.02-.33.03-.5v-.05c.05-.13.12-.26.2-.38.08-.1.07-.24-.03-.32l-.17-.15c-.14-.12-.22-.3-.24-.48l-.02-.2c0-.06 0-.13-.02-.2l-.02-.15c-.02-.17-.12-.3-.26-.4l-.07-.02c-.1-.06-.2-.15-.28-.27-.08-.1-.12-.24-.15-.38l-.03-.17c0-.06-.04-.1-.1-.13l-.16-.05-.32-.1c-.1-.02-.2-.1-.27-.17h-.02c-.06-.08-.16-.08-.22-.02l-.1.1c-.02.03-.04.04-.07.03-.06 0-.1-.05-.08-.1.02-.16-.04-.32-.17-.42l-.13-.1-.3-.2c-.08-.03-.2 0-.24.1l-.04.06c0 .02-.03.03-.04.04-.04 0-.1 0-.1-.05l-.03-.05c-.03-.06-.1-.1-.16-.12zm-1.2 1l-.05-.05c-.05-.04-.1-.03-.15.02-.07.12-.13.25-.16.38v.02c-.03.13-.15.22-.27.2h-.1-.02c-.14 0-.25.12-.25.26 0 .18-.06.36-.17.5l-.06.06c-.1.13-.25.22-.4.27l-.08.02c-.1.03-.18.1-.2.22 0 .1-.06.2-.14.28l-.1.08c-.12.13-.3.2-.48.22l-.5.05c-.16 0-.3.1-.4.25-.1.15-.25.25-.4.27l-.22.02c-.16.02-.33.02-.5-.02l-.1-.02-.27-.07c-.1-.03-.18 0-.24.07l-.1.13c-.13.15-.32.22-.5.2l-.65-.08c-.1 0-.18-.05-.27-.1-.1-.06-.17-.13-.24-.2l-.25-.3c-.03-.02-.08-.03-.13-.02l-.14.06-.56.14c-.1.03-.23 0-.33-.06-.1-.08-.22-.1-.34-.1H3.2c-.12.03-.2.16-.16.28l.04.2c.03.1.02.22-.03.32s-.04.2.03.3l.06.08c.08.12.2.22.3.32.1.1.2.2.28.33l.15.27c.08.14.2.22.36.22.15 0 .3.05.42.15l.3.28c.08.07.2.08.28.02l.05-.02c.06 0 .1.04.1.1v.05c0 .13.1.25.23.3l.45.1c.16.05.32.1.47.2h.08c.08 0 .15-.07.14-.16v-.35c0-.1.04-.2.12-.24l.05-.02c.05.02.1.06.08.1v.17c0 .13.04.25.13.34.1.1.23.12.34.08.12-.05.24-.06.37-.05l.37.02c.18.02.35 0 .5-.07.18-.06.33-.14.47-.25l.06-.04.3-.27c.1-.1.23-.15.35-.15h.4c.2-.02.38-.2.4-.4l.04-.2c0-.13.06-.25.15-.35.1-.1.2-.16.3-.2l.12-.05c.17-.07.3-.22.36-.4l.06-.24c.05-.2.15-.4.3-.53l.02-.02c.12-.1.14-.3.06-.44l-.03-.07c-.07-.1-.08-.25-.03-.38.05-.14.1-.26.18-.38l.1-.14c.04-.08.04-.2-.02-.27-.06-.08-.1-.18-.1-.28l-.02-.14v-.34c.02-.1 0-.23-.03-.33l-.04-.12zm-1.43-.76v-.03c0-.1-.06-.16-.14-.16h-.26c-.1.02-.2.02-.28 0h-.45c-.23 0-.45-.04-.67-.1l-.24-.06-.2-.06-.45-.15c-.24-.07-.42-.23-.53-.45l-.05-.1c-.07-.15-.22-.23-.37-.2-.17 0-.34 0-.5-.08l-.12-.05c-.23-.1-.4-.3-.4-.57l-.04-.27c-.03-.14-.12-.27-.24-.32-.14-.06-.27-.14-.4-.23l-.05-.03c-.15-.12-.28-.28-.35-.47l-.02-.06c-.05-.16-.06-.33-.02-.5l.02-.06c.04-.13.05-.26.05-.4 0-.12-.05-.24-.14-.33l-.14-.13c-.16-.13-.26-.32-.27-.53-.02-.22-.02-.43.02-.64V6.3v-.03c0-.12-.1-.2-.2-.2H4.2c-.13 0-.24.08-.3.2-.05.14-.13.25-.22.36l-.04.05-.2.2-.1.1c-.1.1-.16.25-.18.4-.02.15-.06.3-.12.44l-.02.05c-.05.12-.13.23-.23.3-.1.08-.17.2-.17.32l-.02.46c0 .2-.03.4-.1.6l-.02.08c-.05.13 0 .27.12.33l.42.18.04.02c.03 0 .04.02.05.05.03.04 0 .1-.03.1l-.1.05c-.06.02-.1.08-.12.15l-.02.1v.02l-.1.56c-.02.08-.02.17-.02.26 0 .08.05.15.12.18l.22.1c.1.06.22.13.3.2l.1.08c.03.04.08.08.12.1l.04.04c.07.06.12.14.14.23l.1.45c0 .12.1.22.2.25l.16.05s.03 0 .05.02l.2.06c.16.05.3.14.42.26.12.1.24.23.34.37l.04.04c.08.1.2.15.32.12s.25-.04.38-.04h.15c.1 0 .23.03.34.1.1.06.23.1.35.15h.03c.12.05.25.03.35-.04.1-.08.23-.12.36-.12l.47.03c.1 0 .2-.02.25-.1h.02l.17-.16.05-.05c.08-.1.2-.14.32-.15h.45c.12 0 .23-.1.28-.2.05-.1.15-.18.27-.2l.2-.04c.08 0 .15-.07.18-.16.03-.1.08-.18.15-.24l.16-.16c.1-.1.15-.2.17-.32z"
     id="path3765" />
  <path
     style="fill:#ff0000;stroke-width:0.03889789"
     d="M 6.3746625,19.17076 C 6.2951191,19.128758 6.0917464,19.061362 5.9227234,19.020992 5.7537003,18.980622 5.579286,18.92826 5.5351361,18.904632 5.4561578,18.862364 5.442077,18.833683 5.3935726,18.616287 5.370078,18.510984 5.3629603,18.508066 5.1920794,18.533691 5.0207607,18.559382 5.0089823,18.55448 4.8335646,18.384473 4.6306154,18.187783 4.4493008,18.08363 4.3098431,18.08363 c -0.217147,0 -0.3364242,-0.08083 -0.4793729,-0.324873 -0.077046,-0.13153 -0.2594413,-0.364851 -0.405324,-0.518491 -0.3946131,-0.415595 -0.4083199,-0.44236 -0.3509602,-0.685321 0.036107,-0.15294 0.037201,-0.248527 0.00448,-0.391936 -0.035991,-0.157758 -0.033091,-0.2052 0.017237,-0.28201 0.077691,-0.118572 0.3090303,-0.124977 0.5254877,-0.01455 0.199621,0.101839 0.3247584,0.0982 0.7834774,-0.0228 l 0.3813683,-0.100591 0.221537,0.239286 c 0.1218454,0.131608 0.2842284,0.270611 0.3608511,0.308896 0.1631837,0.08153 0.9168793,0.177756 1.0916637,0.139366 0.069124,-0.01518 0.2034888,-0.109442 0.3150877,-0.221041 0.1093999,-0.1094 0.2176239,-0.185725 0.2472345,-0.174363 0.028965,0.01112 0.1924093,0.05024 0.3632103,0.08694 0.2582645,0.0555 0.3641177,0.05989 0.6287385,0.02611 0.3179751,-0.04059 0.3183583,-0.04078 0.5653031,-0.27791 0.135912,-0.130509 0.2617556,-0.237433 0.2796529,-0.237609 0.2161805,-0.0021 0.7621377,-0.09595 0.8853795,-0.152156 0.2270991,-0.10358 0.3993083,-0.280747 0.4477483,-0.460636 0.04888,-0.18151 0.0755,-0.205911 0.325389,-0.298268 0.1899,-0.07019 0.421741,-0.273599 0.513522,-0.45056 0.02789,-0.05377 0.06349,-0.183008 0.07911,-0.287205 0.03715,-0.247711 0.126155,-0.334648 0.342622,-0.334648 0.168932,0 0.297762,-0.08235 0.297762,-0.190342 0,-0.02644 0.03754,-0.135347 0.08343,-0.242015 0.06621,-0.153899 0.100113,-0.191529 0.164223,-0.182252 0.115624,0.01673 0.173648,0.247109 0.177232,0.703679 0.0024,0.299846 0.01953,0.413223 0.08079,0.533296 0.100383,0.196767 0.09828,0.220526 -0.03727,0.420524 -0.06251,0.09223 -0.143504,0.257578 -0.179996,0.367443 -0.0649,0.195385 -0.06437,0.20547 0.0242,0.460874 0.07995,0.230551 0.08403,0.26997 0.03484,0.336729 -0.03064,0.04159 -0.113105,0.151523 -0.183253,0.244305 -0.07015,0.09278 -0.164303,0.292274 -0.209233,0.443316 -0.121439,0.408248 -0.194338,0.50628 -0.475144,0.638955 -0.288191,0.136164 -0.477584,0.335478 -0.512371,0.53921 -0.05501,0.322167 -0.101298,0.436411 -0.215895,0.532838 -0.104551,0.08798 -0.154116,0.100085 -0.409625,0.100085 -0.3396175,0 -0.4249661,0.03642 -0.7411254,0.316235 -0.1245235,0.11021 -0.3489344,0.257113 -0.4986912,0.326452 -0.2663576,0.123326 -0.2868028,0.126466 -0.9391274,0.144262 -0.3667628,0.01 -0.6947491,0.0026 -0.7288583,-0.01652 -0.095393,-0.05338 -0.1506566,-0.184087 -0.1759985,-0.416251 -0.025907,-0.23734 -0.077649,-0.2802 -0.1957241,-0.162125 -0.065307,0.06531 -0.080227,0.129419 -0.080227,0.344733 0,0.369857 -0.074824,0.427881 -0.3585628,0.278053 z"
     id="path3775"
     inkscape:connector-curvature="0" />
  <path
     style="fill:#ff0000;stroke-width:0.03889789"
     d="M 6.7915721,14.178198 C 6.7059968,14.151064 6.5593692,14.089482 6.465733,14.041352 6.3128876,13.962786 6.2503478,13.955173 5.8539024,13.966872 L 5.4123196,13.979903 5.1051115,13.662228 C 4.7813711,13.327457 4.6430396,13.239245 4.2632091,13.125363 4.134846,13.086876 4.0014374,13.030796 3.9667455,13.00074 3.9320535,12.970684 3.8812736,12.837371 3.8539011,12.704489 3.8265286,12.571606 3.7795173,12.399487 3.7494315,12.322001 3.6865696,12.160099 3.3206459,11.846202 3.0160332,11.692877 2.6971422,11.532364 2.698966,11.538337 2.7958238,10.971674 2.8658846,10.561786 2.8949062,10.467667 2.9686968,10.411035 3.138016,10.281087 3.1518497,10.2643 3.1320772,10.212773 3.1211441,10.184282 2.9815166,10.103541 2.8217938,10.033348 2.4764124,9.881564 2.4535096,9.8328934 2.5463879,9.448086 2.5814013,9.3030206 2.6113265,9.081811 2.6128883,8.956509 2.618691,8.4909633 2.6603895,8.3392954 2.8345168,8.1503895 3.0176722,7.9516894 3.0885165,7.8032441 3.1554534,7.4779069 3.2160695,7.1832907 3.2397758,7.1412923 3.5083283,6.8527465 3.6323232,6.7195205 3.781466,6.5269759 3.8397567,6.4248697 3.8980474,6.3227635 3.9717472,6.20859 4.003534,6.1711507 4.07158,6.0910047 4.2929621,6.0801037 4.3541949,6.1538847 c 0.024976,0.030094 0.042165,0.2358406 0.042165,0.5047112 0,0.5293651 0.027188,0.6051337 0.3280436,0.9141869 0.1958014,0.2011369 0.1999608,0.2102661 0.1949514,0.4278768 -0.00282,0.1222953 -0.018027,0.3639049 -0.033804,0.5369104 -0.024515,0.2688249 -0.017596,0.3395128 0.047589,0.4862236 0.1169666,0.2632555 0.2657206,0.4129729 0.5837218,0.587502 0.3434239,0.188482 0.415314,0.2893123 0.47027,0.6595824 0.027453,0.184968 0.071447,0.312119 0.1383308,0.399809 0.1372389,0.179929 0.4175373,0.305036 0.7244565,0.32335 0.3624789,0.02163 0.4464657,0.06514 0.5790153,0.300011 0.1703094,0.301772 0.2985001,0.388125 0.831917,0.560403 0.7253275,0.234259 0.9808085,0.277625 1.6967184,0.288006 0.5346923,0.0078 0.6439443,0.01926 0.6767163,0.07129 0.06499,0.103188 0.001,0.244972 -0.224527,0.497767 -0.118042,0.132292 -0.214621,0.265721 -0.214621,0.29651 0,0.07599 -0.142982,0.160097 -0.3272747,0.192507 -0.1124763,0.01978 -0.2004455,0.07679 -0.3368398,0.218304 L 9.3464176,13.610373 H 9.0144825 8.6825469 L 8.418888,13.834036 8.1552292,14.057699 7.778167,14.045643 c -0.3408054,-0.0109 -0.3959572,-0.0025 -0.5735662,0.08752 -0.222879,0.112941 -0.2050171,0.110994 -0.4130287,0.04504 z"
     id="path3777"
     inkscape:connector-curvature="0" />
  <path
     style="fill:#ff0000;stroke-width:0.03889789"
     d="M 10.15199,10.90731 C 9.9881874,10.777064 9.8279622,10.709121 9.4628773,10.615094 9.3371737,10.582719 9.2387374,10.513203 9.0735492,10.340149 8.8721698,10.129182 8.8325284,10.105291 8.6288389,10.07214 8.2903007,10.017041 8.1972584,9.932677 8.0546402,9.5514959 7.9920997,9.3843415 7.9156622,9.2808424 7.7276999,9.1088075 7.4203585,8.8275096 7.3697928,8.7434626 7.3440273,8.4710898 7.3194555,8.2113355 7.2154185,7.9918942 7.0450479,7.8404647 6.8552923,7.6718054 6.8020395,7.5102146 6.8549334,7.263579 6.886209,7.1177457 6.9332475,7.0288551 7.0201551,6.9513526 7.086979,6.8917603 7.19121,6.7987231 7.2517794,6.7446037 L 7.3619056,6.6462049 7.3422662,6.170428 C 7.3314646,5.908751 7.3106388,5.6291305 7.2959866,5.5490491 7.273684,5.4271548 7.2884642,5.3733187 7.3867584,5.218417 7.517118,5.0129834 7.5879956,4.7920415 7.5896163,4.5860616 7.5913929,4.3602587 7.7174365,4.1422935 7.946047,3.9696908 8.1748592,3.796936 8.2501622,3.7056829 8.4397557,3.3714086 8.6283442,3.0389064 8.7667079,2.9457372 9.3291429,2.7725274 9.7552792,2.6412927 9.8280965,2.6065715 9.8901502,2.5050243 c 0.03922,-0.064182 0.071375,-0.1439802 0.071455,-0.1773304 8.17e-5,-0.03335 0.022028,-0.090563 0.048774,-0.12714 0.127502,-0.17437 2.1386,-0.2524223 2.318111,-0.089968 0.177102,0.1602757 0.123601,0.3569779 -0.251623,0.9251165 -0.106108,0.1606613 -0.184979,0.3339269 -0.208528,0.458097 -0.05682,0.2995891 -0.08895,0.3349741 -0.410768,0.4523483 -0.563787,0.2056247 -0.891536,0.6334383 -0.89244,1.1649101 -2.57e-4,0.1498257 0.01392,0.3179904 0.0315,0.3736993 0.02788,0.088356 0.0038,0.1330549 -0.188763,0.350081 C 10.019086,6.2730519 9.8425586,6.7685275 9.9803096,7.0349084 10.062488,7.1938242 10.036882,7.3560486 9.8808184,7.6652079 9.7399482,7.9442703 9.7359883,8.1316092 9.8645057,8.436953 9.9874658,8.7290933 9.9868043,8.8627107 9.8610823,9.128465 9.727873,9.410046 9.7536589,9.539767 9.9958793,9.8065859 10.0986,9.9197383 10.263715,10.136049 10.362801,10.287276 c 0.09909,0.151226 0.215673,0.3071 0.259083,0.346385 0.103488,0.09366 0.09959,0.145539 -0.02178,0.289773 -0.130939,0.155612 -0.236933,0.151798 -0.448119,-0.01612 z"
     id="path3779"
     inkscape:connector-curvature="0" />
  <path
     style="fill:#ff0000;stroke-width:0.03889789"
     d="m 11.711032,9.8470016 c -0.07378,-0.093329 -0.08088,-0.1342498 -0.05563,-0.3209076 0.04169,-0.308223 0.03605,-0.3630181 -0.06165,-0.5987304 l -0.08787,-0.2119993 0.08073,-0.2267257 c 0.108915,-0.3058872 0.135263,-0.6520722 0.06462,-0.8490924 -0.05284,-0.1473775 -0.05139,-0.1586719 0.02752,-0.2139384 0.320447,-0.2244486 0.422375,-0.4414251 0.422375,-0.8991234 0,-0.266214 0.04888,-0.3456092 0.212774,-0.3456092 0.374954,0 0.616607,-0.2525002 0.719699,-0.7520057 0.02988,-0.1447644 0.0843,-0.2674215 0.15037,-0.3388826 0.09382,-0.1014774 0.139971,-0.1158965 0.491339,-0.1534938 0.377527,-0.040396 0.48738,-0.08041 0.658538,-0.2398679 0.04174,-0.038884 0.133999,-0.0816 0.205027,-0.094925 0.07103,-0.013325 0.206646,-0.075564 0.301374,-0.1383089 0.146913,-0.097311 0.222706,-0.1174456 0.515583,-0.1369647 0.395658,-0.026369 0.526615,-0.070636 0.72546,-0.2452241 l 0.143064,-0.1256118 0.145841,0.074642 c 0.08021,0.041053 0.238654,0.1335826 0.352091,0.2056216 0.182423,0.1158482 0.244174,0.1329704 0.534522,0.1482097 0.237214,0.012451 0.403192,-0.0022 0.59837,-0.052825 0.316598,-0.082115 0.348717,-0.067766 0.471963,0.2108542 0.159221,0.3599455 0.336035,0.471845 0.745569,0.471845 0.347706,0 0.42906,0.048649 0.51524,0.3081125 0.105587,0.3178921 0.425445,0.6169799 0.76947,0.7195046 0.05576,0.016617 0.06735,0.061761 0.06319,0.2460246 -0.0043,0.1911586 0.01862,0.2731333 0.14998,0.5359836 0.314297,0.6288907 0.306368,0.7459615 -0.0477,0.7043473 C 20.414653,7.5151898 20.196554,7.4595228 20.038226,7.404206 19.646836,7.2674622 19.404817,7.2415575 19.280384,7.323089 19.142164,7.413654 18.849925,7.405079 18.689193,7.305741 18.617143,7.261209 18.558184,7.209434 18.558184,7.190687 c 0,-0.018747 -0.08008,-0.081015 -0.177951,-0.138372 -0.386965,-0.2267765 -1.109818,-0.1619686 -1.621118,0.1453425 -0.145434,0.087411 -0.146553,0.087465 -0.344067,0.01644 -0.38576,-0.1387174 -1.136994,0.027326 -1.379743,0.3049606 -0.155132,0.1774264 -0.270559,0.2177326 -0.623528,0.2177326 -0.159749,0 -0.346778,0.023633 -0.415621,0.052518 -0.179789,0.075436 -0.409353,0.3240315 -0.513695,0.5562842 -0.09013,0.2006194 -0.116324,0.2193301 -0.369982,0.2642879 -0.15876,0.028138 -0.241696,0.092781 -0.426908,0.3327446 -0.07431,0.096272 -0.145373,0.1837926 -0.157927,0.1944895 -0.02676,0.022801 -0.386386,0.5542257 -0.480395,0.7098865 -0.04175,0.069122 -0.09769,0.1069692 -0.158127,0.1069692 -0.0556,0 -0.127822,-0.043383 -0.178091,-0.1069692 z"
     id="path3781"
     inkscape:connector-curvature="0" />
  <path
     style="fill:#ff0000;stroke-width:0.03889789"
     d="m 19.711352,17.171387 c -0.117057,-0.108485 -0.128204,-0.197329 -0.04482,-0.357216 0.07885,-0.151196 0.07775,-0.670946 -0.0018,-0.86145 -0.07548,-0.180688 -0.219335,-0.33274 -0.433618,-0.458318 -0.22678,-0.132902 -0.249806,-0.189654 -0.180812,-0.445639 0.06866,-0.254762 0.04911,-0.59558 -0.04456,-0.776724 -0.145749,-0.281849 -0.639937,-0.661667 -0.860906,-0.661667 -0.12811,0 -0.196545,-0.140445 -0.222999,-0.457648 -0.0593,-0.711036 -0.302167,-0.980515 -0.940175,-1.043185 -0.149107,-0.01465 -0.291615,-0.04279 -0.316685,-0.06255 -0.02507,-0.01975 -0.05675,-0.102014 -0.0704,-0.182802 -0.03034,-0.179584 -0.141636,-0.369528 -0.261418,-0.446151 -0.04916,-0.03144 -0.260813,-0.09306 -0.470346,-0.136931 -0.268322,-0.05617 -0.446596,-0.119658 -0.602917,-0.2147 -0.301403,-0.183251 -0.509804,-0.232002 -0.857863,-0.200678 -0.230939,0.02078 -0.30461,0.01342 -0.383605,-0.03834 -0.09543,-0.06253 -0.14314,-0.06214 -0.464475,0.0038 -0.148318,0.03043 -0.28586,-0.08325 -0.28586,-0.23626 0,-0.163982 0.289581,-0.438401 0.641816,-0.6082111 0.17115,-0.082511 0.370828,-0.1881163 0.443727,-0.2346787 0.0729,-0.046562 0.256692,-0.1077553 0.408428,-0.1359842 0.151736,-0.028229 0.384501,-0.105997 0.517255,-0.1728182 0.197839,-0.099581 0.310086,-0.1268919 0.622366,-0.1514285 0.296426,-0.023291 0.423471,-0.052415 0.572352,-0.1312063 0.23811,-0.1260133 0.305768,-0.1261005 0.634335,-8.176e-4 0.160407,0.061163 0.381864,0.1090139 0.5662,0.1223405 l 0.302752,0.021887 -0.02513,0.2221018 c -0.04318,0.3816636 0.124514,0.5109473 0.353174,0.2722772 0.12756,-0.1331439 0.204869,-0.1436702 0.381187,-0.051902 0.06847,0.035635 0.237156,0.088564 0.374863,0.1176184 0.13891,0.029309 0.306983,0.096002 0.377524,0.1498067 0.06993,0.05334 0.332629,0.335369 0.583773,0.626732 0.473903,0.549797 0.636195,0.672104 0.894228,0.673909 0.06716,4.7e-4 0.163431,0.03432 0.213938,0.07523 0.08772,0.07105 0.09189,0.0967 0.09325,0.573744 0.0019,0.657952 0.09537,0.926055 0.358389,1.027658 0.124104,0.04794 0.110791,0.161686 -0.05326,0.455032 l -0.140778,0.251734 0.02766,0.354921 c 0.01521,0.195207 0.06368,0.464812 0.10771,0.599123 0.10209,0.311437 0.06466,0.45576 -0.205483,0.792369 -0.106456,0.132646 -0.211775,0.308834 -0.234042,0.391527 -0.03109,0.115469 -0.07257,0.165651 -0.178766,0.216293 -0.148038,0.0706 -0.292021,0.309544 -0.417535,0.692926 -0.03564,0.108863 -0.112469,0.241835 -0.17073,0.295494 -0.273253,0.251665 -0.437295,0.287075 -0.605923,0.130797 z"
     id="path3783"
     inkscape:connector-curvature="0" />
  <path
     style="fill:#ff0000;stroke-width:0.03889789"
     d="m 11.867747,21.771398 c -0.05348,-0.02283 -0.298541,-0.04397 -0.54457,-0.04699 -0.421386,-0.0052 -0.461126,-0.01265 -0.685301,-0.129042 C 10.50699,21.527414 10.280831,21.451078 10.1353,21.425735 9.9403331,21.391783 9.8468521,21.353925 9.7800823,21.281879 9.5935824,21.080643 9.6839305,21.05098 10.217034,21.138422 c 0.560474,0.09193 0.625618,0.06988 1.011373,-0.342428 0.332702,-0.355599 0.421744,-0.517844 0.478868,-0.872553 0.02133,-0.132417 0.05755,-0.275843 0.0805,-0.318723 0.02295,-0.04288 0.16637,-0.143464 0.318714,-0.223518 0.491136,-0.258085 0.848817,-0.668809 0.943686,-1.083631 0.09876,-0.431855 0.142683,-0.525776 0.289075,-0.618188 0.291733,-0.184164 0.544042,-0.859046 0.495997,-1.326707 -0.01319,-0.128363 -0.0342,-0.297873 -0.0467,-0.37669 -0.0223,-0.140628 -0.01975,-0.144101 0.136168,-0.186086 0.19556,-0.05266 0.238068,-0.127177 0.23778,-0.416838 -3.5e-4,-0.366383 -0.06514,-0.669355 -0.173476,-0.811389 -0.08969,-0.117591 -0.09858,-0.162937 -0.09858,-0.502626 0,-0.449905 -0.05362,-0.601914 -0.28944,-0.820495 -0.113981,-0.10565 -0.182618,-0.208602 -0.207463,-0.311183 -0.08144,-0.336243 -0.150291,-0.799219 -0.121508,-0.817008 0.01678,-0.01037 0.09218,0.04283 0.167568,0.118215 0.157433,0.157433 0.198634,0.16712 0.255876,0.06016 0.09077,-0.169612 0.178894,-0.170297 0.424807,-0.0033 0.297837,0.202257 0.392526,0.325083 0.392526,0.509165 0,0.177947 0.09002,0.230392 0.210261,0.122496 0.14455,-0.12971 0.17518,-0.130876 0.344124,-0.0131 0.09087,0.06335 0.287754,0.15426 0.437511,0.202019 0.149757,0.04776 0.291812,0.102201 0.315679,0.120979 0.02387,0.01878 0.05417,0.112778 0.06734,0.208886 0.04417,0.322219 0.150086,0.469098 0.571593,0.792617 0.154539,0.118613 0.178486,0.185832 0.229639,0.644574 0.04848,0.434778 0.08609,0.521301 0.329643,0.758367 0.09799,0.09538 0.178161,0.207023 0.178161,0.248101 0,0.04108 -0.05689,0.173089 -0.126419,0.29336 -0.119778,0.207187 -0.126418,0.239246 -0.126418,0.610352 0,0.362133 0.0081,0.403881 0.106969,0.553461 0.05883,0.08898 0.10697,0.196257 0.10697,0.238392 0,0.04214 -0.08447,0.178168 -0.187718,0.302293 -0.103245,0.124125 -0.256406,0.329174 -0.340357,0.455663 l -0.152639,0.229982 -0.02449,0.509078 c -0.01347,0.279994 -0.0266,0.512773 -0.02917,0.517288 -0.03662,0.06418 -0.193483,0.166882 -0.255131,0.167049 -0.345643,9.33e-4 -0.68316,0.29507 -0.91904,0.800911 -0.167509,0.359222 -0.204683,0.38383 -0.639242,0.423134 -0.326314,0.02951 -0.636557,0.187007 -0.971628,0.493243 l -0.218516,0.199711 -0.163448,-0.05423 c -0.309792,-0.102788 -0.819524,-0.04045 -1.034173,0.126465 -0.103162,0.08022 -0.208857,0.08789 -0.35456,0.02571 z"
     id="path3785"
     inkscape:connector-curvature="0" />
  <path
     style="fill:#ff0000;stroke-width:0.00972447"
     d=""
     id="path3787"
     inkscape:connector-curvature="0" />
  <path
     style="fill:#ff0000;stroke-width:0.00972447"
     d="m 7.3747902,11.199387 c -0.064926,-0.0972 -0.1504727,-0.153679 -0.2752344,-0.181713 l -0.067789,-0.01523 0.077796,0.0032 c 0.08911,0.0036 0.1374976,0.02372 0.2034319,0.0845 0.038618,0.0356 0.1003256,0.131905 0.09069,0.141541 -0.00242,0.0024 -0.015424,-0.0121 -0.028894,-0.03226 z"
     id="path3789"
     inkscape:connector-curvature="0" />
  <path
     style="fill:#ff0000;stroke-width:0.00390625"
     d="m 10.353906,12.78165 c 0,-0.0017 0.02944,-0.03696 0.06543,-0.07842 0.174714,-0.201291 0.239258,-0.310759 0.239258,-0.405789 0,-0.05302 -0.01988,-0.09314 -0.05499,-0.110991 -0.05373,-0.02732 -0.179798,-0.03717 -0.566102,-0.04424 -0.2154145,-0.0039 -0.4139747,-0.01012 -0.4960938,-0.01544 -0.027478,-0.0018 0.051399,-0.0031 0.203125,-0.0034 0.2098063,-4.46e-4 0.2531658,4.14e-4 0.2812498,0.0056 0.0423,0.0078 0.146307,0.0084 0.191406,0.0011 0.02423,-0.0039 0.07595,-0.0054 0.191407,-0.0054 h 0.158203 l 0.02228,0.01094 c 0.01291,0.0063 0.02965,0.01914 0.03983,0.03046 0.0249,0.02769 0.03446,0.05495 0.03664,0.104416 l 0.0018,0.04035 0.0097,-0.0024 c 0.0095,-0.0024 0.0096,-0.002 0.007,0.01434 -0.0041,0.02599 -0.03113,0.104564 -0.04629,0.134668 -0.02207,0.04383 -0.05769,0.09394 -0.09946,0.139914 -0.04495,0.04947 -0.184371,0.188911 -0.184371,0.184384 z"
     id="path3791"
     inkscape:connector-curvature="0" />
  <path
     style="fill:#ff0000;stroke-width:0.00390625"
     d="m 9.7992187,13.220626 c 0.00593,-0.0034 0.033957,-0.01038 0.1191407,-0.0297 0.084043,-0.01906 0.1638946,-0.05245 0.2128886,-0.089 0.04173,-0.03114 0.05947,-0.05595 0.06649,-0.093 0.0023,-0.0119 0.01176,-0.0331 0.02373,-0.05291 0.02009,-0.03327 0.03017,-0.04235 0.01597,-0.0144 -0.0042,0.0083 -0.01503,0.03612 -0.02406,0.0619 -0.01814,0.05177 -0.02829,0.07148 -0.05333,0.103586 -0.03147,0.04036 -0.06976,0.06327 -0.117105,0.07008 -0.01481,0.0021 -0.075178,0.01359 -0.1341492,0.02546 -0.1102847,0.0222 -0.1195977,0.02373 -0.1095761,0.01799 z"
     id="path3793"
     inkscape:connector-curvature="0" />
  <path
     style="fill:#ff0000;stroke-width:0.00390625"
     d="m 13.54413,13.224061 c -0.09073,-0.08314 -0.159573,-0.20569 -0.184236,-0.327967 -0.0033,-0.01611 -0.01125,-0.07061 -0.01777,-0.121094 -0.0233,-0.180341 -0.02645,-0.198053 -0.08787,-0.494141 -0.02762,-0.133174 -0.0291,-0.15065 -0.01523,-0.179882 0.0084,-0.01769 0.02615,-0.02907 0.04539,-0.02909 0.01365,-1.4e-5 0.01534,0.0014 0.02901,0.02452 0.01339,0.02264 0.01651,0.02536 0.0402,0.03508 0.03894,0.01599 0.07327,0.03764 0.09754,0.06152 0.02169,0.02134 0.06865,0.09405 0.06595,0.102131 -7.71e-4,0.0023 -0.03113,-0.02426 -0.06746,-0.05905 -0.06873,-0.06581 -0.114587,-0.103112 -0.146865,-0.119468 -0.02284,-0.01157 -0.02937,-0.01196 -0.03468,-0.002 -0.02699,0.05043 0.09009,0.749022 0.148074,0.883504 0.02855,0.06622 0.07614,0.132682 0.149677,0.209033 l 0.03904,0.04053 h -0.01751 c -0.01597,0 -0.01978,-0.0021 -0.04326,-0.02359 z"
     id="path3795"
     inkscape:connector-curvature="0" />
  <path
     style="fill:#ff0000;stroke-width:0.00390625"
     d="m 14.53021,12.90293 c -0.01012,-0.03222 -0.01263,-0.04979 -0.0161,-0.112983 -0.0024,-0.04351 -0.0065,-0.07884 -0.0116,-0.09893 -0.01021,-0.0405 -0.04032,-0.101206 -0.06975,-0.140625 -0.06039,-0.08087 -0.196873,-0.193605 -0.363114,-0.299923 -0.130422,-0.08341 -0.211769,-0.107234 -0.272002,-0.07966 -0.03021,0.01383 -0.06503,0.05012 -0.09022,0.09404 -0.04282,0.07465 -0.06,0.09232 -0.08944,0.09202 -0.0088,-9.1e-5 -0.02218,-0.0035 -0.0297,-0.0076 l -0.01367,-0.0075 0.02254,-1.64e-4 c 0.02558,-1.86e-4 0.04868,-0.0119 0.06001,-0.03042 0.0036,-0.0059 0.01481,-0.02394 0.02487,-0.04005 0.01006,-0.01611 0.02428,-0.0396 0.03161,-0.05219 0.03817,-0.06562 0.125585,-0.101499 0.202767,-0.08323 0.04297,0.01017 0.41347,0.266191 0.489618,0.338331 0.06627,0.06278 0.113876,0.155351 0.12976,0.252332 0.0049,0.03007 0.0057,0.05041 0.0035,0.08968 -0.0016,0.02793 -0.003,0.06177 -0.0031,0.0752 -1.64e-4,0.01343 -6.83e-4,0.02441 -0.0012,0.02441 -4.7e-4,0 -0.0027,-0.0057 -0.0048,-0.0127 z"
     id="path3797"
     inkscape:connector-curvature="0" />
  <path
     style="fill:#ff0000;stroke-width:0.00390625"
     d="m 13.478906,10.856935 c -0.0832,-0.0098 -0.141873,-0.04824 -0.18695,-0.122619 -0.0512,-0.08448 -0.05578,-0.175951 -0.01321,-0.264003 0.01223,-0.02529 0.0233,-0.03864 0.081,-0.09766 0.03676,-0.0376 0.07709,-0.08242 0.08962,-0.09961 0.03115,-0.04273 0.113492,-0.123325 0.158473,-0.155126 0.07613,-0.05382 0.176278,-0.100887 0.22068,-0.103707 l 0.02344,-0.0015 -0.0428,0.0241 c -0.151223,0.08514 -0.271137,0.174203 -0.375344,0.27879 -0.06979,0.07004 -0.105275,0.11512 -0.134092,0.170327 -0.02749,0.05266 -0.03296,0.07436 -0.03092,0.122576 0.0053,0.124573 0.09985,0.220854 0.223787,0.227789 0.03048,0.0017 0.04598,-1.9e-4 0.116541,-0.01426 0.04476,-0.0089 0.0832,-0.01562 0.08543,-0.01488 0.0061,0.002 -0.09763,0.0416 -0.119937,0.04572 -0.03089,0.0057 -0.06816,0.0073 -0.0957,0.004 z"
     id="path3799"
     inkscape:connector-curvature="0" />
  <path
     style="fill:#ff0000;stroke-width:0.00390625"
     d="m 12.174954,13.612225 c -0.0017,-0.09158 -0.01425,-0.230086 -0.02845,-0.313787 -0.02318,-0.136648 -0.06565,-0.229401 -0.117273,-0.256096 -0.0072,-0.0037 -0.02489,-0.0076 -0.03923,-0.0087 -0.05287,-0.0038 -0.07851,0.02065 -0.128255,0.122185 -0.0551,0.112481 -0.105619,0.251099 -0.113018,0.310107 -0.0052,0.04162 -0.02058,0.07107 -0.05278,0.101192 -0.02255,0.02109 -0.07319,0.0518 -0.0848,0.05142 -0.0029,-9.5e-5 0.0017,-0.0038 0.01034,-0.0083 0.0086,-0.0045 0.02998,-0.02263 0.04752,-0.04034 0.03934,-0.0397 0.06555,-0.08868 0.07119,-0.133008 0.0096,-0.07543 0.06493,-0.219647 0.131088,-0.341597 0.03082,-0.05681 0.04242,-0.0703 0.07401,-0.08609 0.04469,-0.02233 0.07902,-0.01256 0.125943,0.03585 l 0.02787,0.02875 0.02761,0.08399 c 0.01519,0.04619 0.03031,0.0947 0.0336,0.10779 0.01931,0.07669 0.02769,0.154221 0.02377,0.219763 -0.0016,0.02717 -0.0042,0.07577 -0.0057,0.107993 -0.0026,0.0556 -0.0028,0.05656 -0.0035,0.01887 z"
     id="path3801"
     inkscape:connector-curvature="0" />
  <path
     style="fill:#ff0000;stroke-width:0.00390625"
     d="m 10.343921,11.052497 c -0.05588,-0.01465 -0.07443,-0.02638 -0.138917,-0.08779 -0.101115,-0.09629 -0.2378873,-0.179064 -0.3745353,-0.226658 -0.052152,-0.01816 -0.3283099,-0.09732 -0.3684798,-0.105615 -0.06999,-0.01446 -0.1502115,-0.04919 -0.2194108,-0.09501 -0.059759,-0.03956 -0.1376769,-0.119568 -0.1866694,-0.191662 -0.021002,-0.03091 -0.037572,-0.05681 -0.036821,-0.05756 7.508e-4,-7.51e-4 0.025855,0.02442 0.055787,0.05593 0.093905,0.09887 0.1829384,0.175446 0.2509919,0.215876 0.052888,0.03142 0.084128,0.04253 0.2306001,0.08199 0.2857435,0.07699 0.4426681,0.147716 0.5982203,0.269608 0.08345,0.06539 0.154323,0.106372 0.206856,0.11961 0.04012,0.01011 0.08903,0.0065 0.122323,-0.0091 0.01454,-0.0068 0.03687,-0.02041 0.04961,-0.03021 0.04639,-0.03569 0.121056,-0.127321 0.147716,-0.181264 0.01267,-0.02563 0.01449,-0.03285 0.01439,-0.0569 -1.74e-4,-0.0387 -0.01132,-0.05802 -0.06739,-0.116784 -0.06988,-0.07325 -0.132095,-0.155567 -0.257312,-0.34045 -0.07831,-0.115617 -0.105128,-0.153524 -0.164461,-0.232421 l -0.03672,-0.04883 0.01691,-0.0013 c 0.01507,-0.0011 0.01797,9.3e-5 0.02667,0.01119 0.02767,0.0353 0.0615,0.08523 0.08853,0.130696 0.04713,0.07926 0.144192,0.234411 0.172284,0.275391 0.04488,0.06547 0.08804,0.11363 0.17328,0.193359 0.0495,0.0463 0.05596,0.06119 0.05596,0.128907 0,0.05341 -0.0067,0.07669 -0.03153,0.109182 -0.0105,0.01375 -0.01282,0.01939 -0.0096,0.02329 0.0033,0.004 -0.006,0.01687 -0.04084,0.05643 -0.02481,0.02821 -0.05429,0.05823 -0.06552,0.06671 -0.05947,0.0449 -0.141829,0.06175 -0.211933,0.04337 z"
     id="path3803"
     inkscape:connector-curvature="0" />
  <path
     style="fill:#ff0000;stroke-width:0.00390625"
     d="m 11.862144,9.9839176 c -0.03619,-0.010163 -0.05392,-0.020032 -0.08186,-0.045546 -0.01487,-0.013585 -0.03697,-0.031406 -0.0491,-0.039601 -0.04388,-0.029647 -0.08337,-0.089933 -0.100399,-0.1532939 -0.0071,-0.026596 -0.0084,-0.042451 -0.0087,-0.1111015 -4.44e-4,-0.090364 0.0023,-0.1104502 0.03054,-0.2207031 0.0093,-0.036524 0.01794,-0.070801 0.0191,-0.076172 0.0055,-0.025529 -0.0025,0.066448 -0.01291,0.1476081 -0.02612,0.2041814 -0.02414,0.2468845 0.01443,0.3108242 0.03823,0.063372 0.08905,0.1125184 0.145242,0.1404458 0.03177,0.015793 0.0342,0.016356 0.07052,0.016356 0.0355,0 0.03923,-8.069e-4 0.0667,-0.014435 0.04312,-0.021395 0.06468,-0.046039 0.130908,-0.1496278 0.03159,-0.049414 0.06621,-0.1035384 0.07694,-0.1202763 0.03261,-0.050899 0.02524,-0.030485 -0.0098,0.027165 -0.01807,0.029727 -0.044,0.075143 -0.05761,0.1009241 -0.04178,0.079147 -0.07682,0.1359397 -0.09447,0.153122 -0.03459,0.033674 -0.09171,0.047726 -0.13947,0.034311 z"
     id="path3805"
     inkscape:connector-curvature="0" />
  <path
     style="fill:#ff0000;stroke-width:0.00390625"
     d="m 10.112177,9.9428665 c -0.0309,-0.038728 -0.07634,-0.093338 -0.100975,-0.1213553 -0.024636,-0.028017 -0.044053,-0.051681 -0.043149,-0.052585 0.00301,-0.00301 0.17334,0.1676044 0.203666,0.2040037 0.01641,0.019701 0.02984,0.036839 0.02984,0.038086 0,0.0012 -0.0075,0.0023 -0.0166,0.0023 h -0.0166 z"
     id="path3807"
     inkscape:connector-curvature="0" />
  <path
     style="fill:#ff0000;stroke-width:0.00390625"
     d="m 15.0375,10.958139 c -0.161074,-0.06699 -0.282909,-0.08933 -0.487432,-0.08937 -0.06382,-1.4e-5 -0.09505,0.0024 -0.204457,0.01561 -0.07102,0.0086 -0.14084,0.0156 -0.155146,0.01557 -0.05874,-1.16e-4 -0.135844,-0.02537 -0.184764,-0.06052 -0.02416,-0.01736 -0.05845,-0.03452 -0.09395,-0.04702 l -0.02855,-0.01005 0.02148,0.0023 c 0.03411,0.0037 0.06541,0.01583 0.111458,0.04323 0.04409,0.02624 0.07437,0.03786 0.116364,0.04468 0.03898,0.0063 0.149951,0.0046 0.252736,-0.004 0.237572,-0.0198 0.396766,-0.0068 0.552661,0.045 0.05288,0.01758 0.139703,0.05256 0.145935,0.05879 0.0052,0.0052 -0.01316,-4.45e-4 -0.04634,-0.01424 z"
     id="path3809"
     inkscape:connector-curvature="0" />
  <path
     style="fill:#ff0000;stroke-width:0.00390625"
     d="m 14.197549,9.8305876 c 0.0096,-0.00801 0.02807,-0.023996 0.04102,-0.035515 0.05139,-0.045712 0.140462,-0.097297 0.223164,-0.1292412 0.08303,-0.03207 0.124439,-0.041731 0.276943,-0.064607 0.07949,-0.011924 0.151562,-0.023364 0.160156,-0.025422 0.0086,-0.00206 0.01826,-0.00367 0.02148,-0.00359 0.01852,4.88e-4 -0.06714,0.02276 -0.178378,0.04638 -0.173303,0.036798 -0.312148,0.085264 -0.405772,0.1416401 -0.04722,0.028433 -0.149647,0.08512 -0.153585,0.085 -0.0014,-4.2e-5 0.0054,-0.00663 0.01497,-0.014648 z"
     id="path3811"
     inkscape:connector-curvature="0" />
  <path
     style="fill:#ff0000;stroke-width:0.00390625"
     d="m 14.01053,14.612229 c -0.01363,-0.02055 -0.04201,-0.05549 -0.06306,-0.07766 -0.0313,-0.03295 -0.04155,-0.04694 -0.05619,-0.07669 -0.02831,-0.05751 -0.03489,-0.08794 -0.03362,-0.155531 5.87e-4,-0.03115 0.0013,-0.183203 0.0016,-0.337891 5.16e-4,-0.279828 4.73e-4,-0.281455 -0.0084,-0.321768 -0.0049,-0.02229 -0.0082,-0.04129 -0.0072,-0.04224 0.0028,-0.0028 0.01798,0.06728 0.02597,0.119865 0.01256,0.08269 0.01589,0.14624 0.01957,0.373046 0.0036,0.22216 0.0066,0.26849 0.02143,0.326471 0.0094,0.03697 0.03285,0.08182 0.06929,0.132675 0.03055,0.04264 0.06019,0.09239 0.05697,0.09561 -8.09e-4,8.09e-4 -0.01262,-0.01534 -0.02625,-0.03589 z"
     id="path3813"
     inkscape:connector-curvature="0" />
  <path
     style="fill:#ff0000;stroke-width:0.00390625"
     d="m 12.004081,15.324875 c -0.0099,-0.04436 -0.0094,-0.104077 0.0013,-0.147531 0.02205,-0.08926 0.06455,-0.201042 0.11806,-0.310547 0.03757,-0.07688 0.05918,-0.114494 0.113327,-0.197266 0.06494,-0.09926 0.08205,-0.133692 0.08953,-0.180146 0.0075,-0.04678 -0.0029,-0.08293 -0.05642,-0.194854 -0.03539,-0.07405 -0.06069,-0.140031 -0.06039,-0.157449 8.2e-5,-0.0047 0.005,0.0064 0.011,0.02466 0.01336,0.04091 0.03753,0.08979 0.06209,0.125552 0.04859,0.07076 0.0587,0.09572 0.06233,0.153859 0.0025,0.0409 -0.0055,0.0892 -0.02033,0.121876 -0.0051,0.01125 -0.03285,0.05344 -0.06167,0.09375 -0.02881,0.04031 -0.06346,0.09169 -0.077,0.114174 -0.04869,0.08087 -0.106549,0.210203 -0.149863,0.334982 -0.0251,0.07232 -0.03437,0.147548 -0.02604,0.21134 0.0026,0.02003 0.004,0.0372 0.003,0.03816 -9.58e-4,9.57e-4 -0.005,-0.01279 -0.009,-0.03056 z"
     id="path3815"
     inkscape:connector-curvature="0" />
  <path
     style="fill:#ff0000;stroke-width:0.00390625"
     d="m 10.834145,14.505898 c 0.0022,-0.0041 0.02597,-0.03024 0.05289,-0.05818 0.0568,-0.05896 0.097,-0.116124 0.131066,-0.186389 0.05143,-0.106073 0.07519,-0.202154 0.08211,-0.332006 0.0026,-0.04882 0.0062,-0.0792 0.01175,-0.09947 0.01972,-0.07187 0.06923,-0.131806 0.135623,-0.16418 0.04047,-0.01973 0.06626,-0.0234 0.16101,-0.02292 l 0.08398,4.31e-4 -0.0677,0.0051 c -0.108788,0.0082 -0.163278,0.02775 -0.211967,0.07619 -0.05316,0.05288 -0.07954,0.119479 -0.105115,0.265388 -0.02081,0.118713 -0.04814,0.217408 -0.07657,0.276518 -0.02818,0.05858 -0.085,0.134018 -0.157312,0.208833 -0.03531,0.03653 -0.04822,0.0465 -0.03977,0.0307 z"
     id="path3817"
     inkscape:connector-curvature="0" />
  <path
     style="fill:#ff0000;stroke-width:0.00390625"
     d=""
     id="path3819"
     inkscape:connector-curvature="0" />
  <path
     style="fill:#ff0000;stroke-width:0.00390625"
     d="m 10.188428,15.005469 c 0.0066,-0.08688 0.04186,-0.15747 0.101023,-0.201997 0.03657,-0.02752 0.07198,-0.04324 0.134231,-0.05958 0.05861,-0.01539 0.113354,-0.03512 0.154252,-0.05561 0.01257,-0.0063 0.02384,-0.01047 0.02503,-0.0093 0.0033,0.0033 -0.05621,0.03007 -0.121659,0.0548 -0.196912,0.07442 -0.237878,0.110264 -0.277804,0.243053 -0.0076,0.0254 -0.01458,0.04794 -0.01544,0.05009 -8.53e-4,0.0021 -6.89e-4,-0.0075 3.64e-4,-0.02148 z"
     id="path3821"
     inkscape:connector-curvature="0" />
  <path
     style="fill:#ff0000;stroke-width:0.00390625"
     d="m 9.8851562,15.393023 c 0.00967,-0.0079 0.030762,-0.0269 0.046875,-0.04214 0.016113,-0.01523 0.047754,-0.04233 0.070313,-0.06022 0.02256,-0.01788 0.04673,-0.03786 0.05371,-0.04439 0.007,-0.0065 0.01269,-0.01011 0.01269,-0.008 0,0.0047 -0.084123,0.08748 -0.1113279,0.109486 -0.026585,0.02151 -0.082275,0.06006 -0.08645,0.05984 -0.00187,-9.7e-5 0.00452,-0.0067 0.014184,-0.01461 z"
     id="path3823"
     inkscape:connector-curvature="0" />
  <path
     style="fill:#ff0000;stroke-width:0.00390625"
     d="m 11.867015,16.18085 c 0.0041,-0.01405 0.04251,-0.06854 0.141978,-0.201424 0.05762,-0.07699 0.108267,-0.147838 0.112538,-0.15745 0.0061,-0.01373 0.0077,-0.02586 0.0077,-0.05664 -1.25e-4,-0.04888 -0.0058,-0.07134 -0.05687,-0.223936 -0.0213,-0.06369 -0.03873,-0.117608 -0.03872,-0.119812 6e-6,-0.0022 0.0059,0.0074 0.01312,0.02138 0.0072,0.01397 0.0169,0.03242 0.02152,0.04101 0.02273,0.04225 0.057,0.124313 0.0659,0.157798 0.0085,0.03201 0.01,0.04583 0.01,0.09416 0,0.04828 -0.0015,0.06216 -0.0099,0.09402 -0.01102,0.04146 -0.03017,0.08251 -0.05157,0.110544 -0.0077,0.01015 -0.04371,0.04781 -0.07992,0.0837 -0.05765,0.05713 -0.07736,0.08028 -0.130446,0.153214 -0.0039,0.0053 -0.0062,0.0069 -0.0052,0.0034 z"
     id="path3825"
     inkscape:connector-curvature="0" />
  <path
     style="fill:#ff0000;stroke-width:0.00390625"
     d="m 11.074609,17.272606 c 0.01834,-0.01421 0.08446,-0.05058 0.17255,-0.09492 0.121372,-0.06109 0.177801,-0.09821 0.231767,-0.152456 0.09451,-0.095 0.13511,-0.181194 0.236268,-0.501612 0.01211,-0.03836 0.02291,-0.06885 0.024,-0.06776 0.0011,0.0011 -0.0016,0.01402 -0.0059,0.02873 -0.0043,0.01471 -0.023,0.08721 -0.04146,0.161107 -0.01846,0.0739 -0.03964,0.150083 -0.04705,0.169291 -0.05621,0.145535 -0.167896,0.273229 -0.297316,0.339917 -0.01901,0.0098 -0.07148,0.03314 -0.116599,0.05188 -0.04512,0.01873 -0.09914,0.04263 -0.120046,0.0531 -0.03901,0.01953 -0.04994,0.02338 -0.0362,0.01273 z"
     id="path3827"
     inkscape:connector-curvature="0" />
  <path
     style="fill:#ff0000;stroke-width:0.00390625"
     d="m 9.7790234,18.388044 c 0.014911,-0.006 0.081852,-0.01853 0.123711,-0.0232 0.021484,-0.0024 0.1146486,-0.0059 0.2070316,-0.0078 0.209064,-0.0043 0.250154,-0.0098 0.310546,-0.04145 0.05173,-0.02715 0.117601,-0.08391 0.153365,-0.132145 0.06241,-0.08417 0.09747,-0.189971 0.139737,-0.421656 0.0066,-0.03626 0.01653,-0.08019 0.02204,-0.09762 0.01095,-0.03467 0.03926,-0.09859 0.0423,-0.09555 10e-4,0.001 -0.0044,0.01641 -0.01206,0.03413 -0.01821,0.04202 -0.03237,0.0986 -0.03518,0.140586 -0.0012,0.01848 -0.01166,0.08193 -0.02317,0.141012 -0.0115,0.05908 -0.02211,0.115332 -0.02356,0.125 -0.0044,0.02914 -0.02122,0.07809 -0.03897,0.113281 -0.0581,0.115159 -0.165721,0.206145 -0.287006,0.242634 -0.02858,0.0086 -0.03527,0.0089 -0.27539,0.01153 -0.2045174,0.0023 -0.2510435,0.0038 -0.2753908,0.009 -0.032419,0.007 -0.04183,0.0077 -0.028008,0.0022 z"
     id="path3829"
     inkscape:connector-curvature="0" />
  <path
     style="fill:#ff0000;stroke-width:0.00390625"
     d="m 8.2348439,19.161161 c -0.02359,-0.0022 -0.097418,-0.0069 -0.1640625,-0.01063 l -0.121172,-0.0067 0.1015625,-0.0029 c 0.2939295,-0.0085 0.4303363,-0.01839 0.5273437,-0.03828 0.2080687,-0.04267 0.5568474,-0.23843 0.7929688,-0.445075 0.1005615,-0.08801 0.1880838,-0.158643 0.1918739,-0.154853 0.00347,0.0035 -0.3198837,0.292104 -0.3500771,0.312488 -0.016113,0.01088 -0.04248,0.02972 -0.058594,0.04188 -0.1194117,0.09008 -0.2455366,0.157781 -0.4042969,0.217009 -0.030078,0.01122 -0.073669,0.0277 -0.096868,0.03662 -0.049224,0.01892 -0.1166775,0.03638 -0.1746159,0.04519 -0.050551,0.0077 -0.1856956,0.01062 -0.2440623,0.0053 z"
     id="path3831"
     inkscape:connector-curvature="0" />
  <path
     style="fill:#ff0000;stroke-width:0.00390625"
     d="m 11.644645,20.177344 c 8.48e-4,-0.0054 0.0069,-0.03525 0.0134,-0.06641 0.0065,-0.03115 0.02437,-0.139257 0.03965,-0.240234 0.01871,-0.123602 0.031,-0.193167 0.03761,-0.212891 0.0201,-0.05999 0.05367,-0.110498 0.0962,-0.144761 0.01515,-0.0122 0.07722,-0.04528 0.192819,-0.102754 0.09376,-0.04662 0.171236,-0.084 0.172163,-0.08307 9.26e-4,9.26e-4 -0.02172,0.01446 -0.05034,0.03007 -0.191402,0.10443 -0.313246,0.185751 -0.349543,0.233291 -0.02913,0.03816 -0.06169,0.162887 -0.100659,0.385605 -0.01088,0.06217 -0.03155,0.148603 -0.04484,0.187486 -0.0044,0.01289 -0.0073,0.01904 -0.0065,0.01367 z"
     id="path3833"
     inkscape:connector-curvature="0" />
  <path
     style="fill:#ff0000;stroke-width:0.00390625"
     d="m 12.885156,18.676762 c 0,-0.0012 0.01208,-0.02746 0.02685,-0.0584 0.05217,-0.109291 0.09085,-0.20831 0.119638,-0.306248 0.0095,-0.03223 0.03595,-0.142975 0.05884,-0.2461 0.02289,-0.103125 0.04589,-0.198926 0.05112,-0.212891 0.0146,-0.039 0.03858,-0.07628 0.07067,-0.109873 0.03319,-0.03474 0.05811,-0.05243 0.108422,-0.07697 0.04464,-0.02177 0.08233,-0.0467 0.111688,-0.07388 0.01269,-0.01175 0.02308,-0.01957 0.02308,-0.01737 0,0.0084 -0.07426,0.07283 -0.119141,0.103395 -0.142606,0.09711 -0.182958,0.179241 -0.273117,0.555906 -0.04418,0.184575 -0.07769,0.274213 -0.149026,0.398646 -0.02083,0.03634 -0.02903,0.0487 -0.02903,0.04378 z"
     id="path3835"
     inkscape:connector-curvature="0" />
  <path
     style="fill:#ff0000;stroke-width:0.00390625"
     d=""
     id="path3837"
     inkscape:connector-curvature="0" />
  <path
     style="fill:#ff0000;stroke-width:0.00390625"
     d=""
     id="path3839"
     inkscape:connector-curvature="0" />
  <path
     style="fill:#ff0000;stroke-width:0.00390625"
     d="m 13.50625,17.508046 c 0,-9.84e-4 0.02565,-0.04635 0.057,-0.100816 0.09923,-0.172402 0.147357,-0.282743 0.194827,-0.446683 0.02512,-0.08674 0.04038,-0.159188 0.05925,-0.28125 0.01179,-0.0763 0.01627,-0.09874 0.01481,-0.07422 -0.01347,0.225337 -0.114605,0.556743 -0.233795,0.766093 -0.03921,0.06887 -0.09209,0.147465 -0.09209,0.136875 z"
     id="path3841"
     inkscape:connector-curvature="0" />
  <path
     style="fill:#ff0000;stroke:#ff0000"
     id="path3853"
     d="m 17.548578,9.9721549 c 0.05012,0.018316 0.100561,0.034828 0.152673,0.046442 0.04057,0.01088 0.0799,0.02506 0.118021,0.0427 0.03803,0.0164 0.07414,0.03682 0.111733,0.05421 0.04039,0.02226 0.08257,0.04096 0.124168,0.06082 0.0347,0.01369 0.0173,0.0074 0.05218,0.01889 0,0 -0.190316,0.128808 -0.190316,0.128808 v 0 c -0.03567,-0.01295 -0.01781,-0.006 -0.05357,-0.02088 -0.04208,-0.01941 -0.08434,-0.03843 -0.125231,-0.06028 -0.03699,-0.01815 -0.07351,-0.03734 -0.111304,-0.0538 -0.03755,-0.01611 -0.07602,-0.02917 -0.115623,-0.03931 -0.05235,-0.01396 -0.103335,-0.03194 -0.154989,-0.04819 0,0 0.192252,-0.1294042 0.192252,-0.1294042 z"
     inkscape:connector-curvature="0" />
  <path
     style="fill:#ff0000;stroke:#ff0000"
     id="path3865"
     d="m 18.204585,10.966721 c -0.02665,-0.05687 -0.0515,-0.114473 -0.07441,-0.172951 -0.02346,-0.06409 -0.05337,-0.125344 -0.08241,-0.186988 -0.02294,-0.04007 -0.04559,-0.08038 -0.06374,-0.12287 -0.0058,-0.01839 -0.01366,-0.03604 -0.0209,-0.05389 0,0 0.202166,-0.112805 0.202166,-0.112805 v 0 c 0.0069,0.01783 0.01454,0.0354 0.02,0.05375 0.01785,0.04234 0.0405,0.08235 0.06216,0.122826 0.02881,0.06226 0.0578,0.124473 0.08232,0.1886 0.02294,0.05718 0.04617,0.114285 0.07569,0.168474 0,0 -0.200878,0.115858 -0.200878,0.115858 z"
     inkscape:connector-curvature="0" />
  <path
     style="fill:#ff0000;stroke:#ff0000"
     id="path3867"
     d="m 17.923335,10.685471 c -0.0208,-0.03657 -0.04209,-0.07303 -0.06499,-0.10835 -0.0169,-0.02791 -0.03222,-0.05661 -0.04624,-0.08606 -0.01455,-0.02716 -0.02875,-0.0545 -0.04232,-0.08217 -0.0028,-0.0051 -0.0056,-0.01022 -0.0084,-0.01533 0,0 0.200602,-0.115391 0.200602,-0.115391 v 0 c 0.003,0.0053 0.0061,0.01068 0.0091,0.01603 0.01422,0.02752 0.02753,0.05544 0.04276,0.0824 0.01382,0.02845 0.02769,0.05686 0.04409,0.08396 0.02301,0.03578 0.0432,0.0733 0.06627,0.109057 0,0 -0.200878,0.115858 -0.200878,0.115858 z"
     inkscape:connector-curvature="0" />
  <path
     style="fill:#ff0000;stroke:#ff0000"
     id="path3869"
     d="m 17.906252,10.496391 c -0.02741,-0.04844 -0.05852,-0.09399 -0.09274,-0.13777 -0.02068,-0.02744 -0.04673,-0.04994 -0.06962,-0.07541 -0.02237,-0.01946 -0.04651,-0.03664 -0.07021,-0.05448 -0.01191,-0.0098 -0.02483,-0.01772 -0.03689,-0.02732 0,0 0.196231,-0.123672 0.196231,-0.123672 v 0 c 0.01221,0.0092 0.02489,0.0177 0.0368,0.02729 0.02432,0.01916 0.05071,0.03573 0.07247,0.05793 0.02345,0.02564 0.04881,0.04965 0.06932,0.07784 0.0337,0.04504 0.06394,0.09209 0.0947,0.139144 0,0 -0.200055,0.116437 -0.200055,0.116437 z"
     inkscape:connector-curvature="0" />
  <path
     style="fill:#ff0000;stroke:#ff0000"
     id="path3871"
     d="m 18.184638,10.475224 c -0.04984,-0.03154 -0.101789,-0.05997 -0.154617,-0.0862 -0.03727,-0.02147 -0.07755,-0.03659 -0.115474,-0.05668 -0.03213,-0.01677 -0.06491,-0.03185 -0.09758,-0.04745 -0.03071,-0.01488 -0.0588,-0.03375 -0.08722,-0.05245 -0.01958,-0.01386 -0.0097,-0.0074 -0.02954,-0.0194 0,0 0.1946,-0.125364 0.1946,-0.125364 v 0 c 0.02013,0.01307 0.01019,0.0064 0.02983,0.01996 0.02754,0.01857 0.05619,0.03491 0.08598,0.04965 0.03223,0.0163 0.06514,0.0312 0.09696,0.04832 0.03832,0.01897 0.07785,0.0355 0.114848,0.05712 0.05278,0.02809 0.10479,0.05759 0.156782,0.08709 0,0 -0.194569,0.125388 -0.194569,0.125388 z"
     inkscape:connector-curvature="0" />
  <path
     style="fill:#ff0000;stroke:#ff0000"
     id="path3873"
     d="m 18.106513,10.397099 c -0.06306,-0.03887 -0.129315,-0.07208 -0.194462,-0.107234 -0.04956,-0.02287 -0.09584,-0.05195 -0.1442,-0.07707 -0.02445,-0.0166 -0.05014,-0.03149 -0.07397,-0.04882 -0.01337,-0.0079 -0.0066,-0.0036 -0.02038,-0.01304 0,0 0.19555,-0.125347 0.19555,-0.125347 v 0 c 0.014,0.0089 0.0071,0.0045 0.02078,0.01342 0.02392,0.01566 0.0467,0.03289 0.07135,0.04746 0.04717,0.02642 0.09342,0.05451 0.14185,0.07866 0.06584,0.03588 0.132415,0.07036 0.19806,0.106591 0,0 -0.194569,0.125388 -0.194569,0.125388 z"
     inkscape:connector-curvature="0" />
  <path
     style="fill:#ff0000;stroke:#ff0000"
     id="path3877"
     d="m 3.4723681,9.3649313 c -0.00204,0.034516 0.00106,0.06888 0.00421,0.1032121 0,0 -0.1151485,0.059966 -0.1151485,0.059966 v 0 c -0.00299,-0.03452 -0.00641,-0.068999 -0.0058,-0.1036984 0,0 0.1167363,-0.05948 0.1167363,-0.05948 z"
     inkscape:connector-curvature="0" />
  <path
     style="fill:#ff0000;stroke:#ff0000"
     id="path3879"
     d="m 3.4844361,9.5506735 c 0.0021,0.020035 0.0045,0.040035 0.00657,0.060072 0,0 -0.1159058,0.06047 -0.1159058,0.06047 v 0 c -0.00178,-0.019896 -0.00371,-0.039794 -0.0068,-0.059539 0,0 0.1161321,-0.061003 0.1161321,-0.061003 z"
     inkscape:connector-curvature="0" />
  <path
     style="fill:#ff0000;stroke:#ff0000"
     id="path3887"
     d="m 3.2440838,9.9116858 c 0.015035,0.029851 0.034052,0.057361 0.050165,0.086609 0,0 -0.1128356,0.064744 -0.1128356,0.064744 v 0 c -0.015675,-0.0294 -0.034209,-0.05703 -0.050963,-0.085814 0,0 0.1136338,-0.065539 0.1136336,-0.065539 z"
     inkscape:connector-curvature="0" />
  <path
     style="fill:#ff0000;stroke:#ff0000"
     id="path3893"
     d="m 7.3968483,18.078685 c -0.1223241,0.04143 -0.240782,0.09372 -0.3580825,0.147547 -0.066277,0.03553 -0.1340818,0.06668 -0.2016119,0.09953 0,0 0.4101933,-0.327959 0.4101933,-0.327959 v 0 c 0.066425,-0.03374 0.1353216,-0.06236 0.2013076,-0.09707 0.1181201,-0.05365 0.2395359,-0.100116 0.3610988,-0.145287 0,0 -0.4129053,0.323243 -0.4129053,0.323243 z"
     inkscape:connector-curvature="0" />
  <path
     style="fill:#ff0000;stroke:#ff0000"
     id="path3897"
     d="m 8.4114063,17.717548 c -0.1597006,0.02915 -0.3192968,0.05998 -0.4798647,0.08437 -0.1438855,0.02248 -0.2842338,0.05921 -0.4258015,0.09213 -0.017036,0.0058 -0.034072,0.01153 -0.051108,0.0173 0,0 0.4139733,-0.319905 0.4139733,-0.319905 v 0 c 0.017607,-0.0048 0.035214,-0.0096 0.052821,-0.01439 0.1407693,-0.03373 0.2822009,-0.0634 0.42513,-0.08677 0.1611235,-0.02669 0.3226871,-0.05359 0.4815713,-0.0914 0,0 -0.4167214,0.318649 -0.4167214,0.318649 z"
     inkscape:connector-curvature="0" />
  <path
     style="fill:#ff0000;stroke:#ff0000"
     id="path3899"
     d="m 8.6765713,18.071101 c -0.1590814,0.03672 -0.317319,0.07388 -0.4792843,0.0964 -0.065655,0.01385 -0.13136,0.0273 -0.1972985,0.03972 0,0 0.4167616,-0.31489 0.4167616,-0.31489 v 0 c 0.065486,-0.0125 0.1308115,-0.02589 0.196647,-0.03647 0.1620804,-0.02487 0.3208891,-0.06371 0.4798956,-0.103399 0,0 -0.4167214,0.318649 -0.4167214,0.318649 z"
     inkscape:connector-curvature="0" />
  <path
     style="fill:#ff0000;stroke:#ff0000"
     id="path3901"
     d="m 7.8349241,18.461076 c -0.1351834,0.01603 -0.2678923,0.04757 -0.4030029,0.06554 -0.081497,0.0058 -0.1603877,0.01209 -0.2396194,0.03173 0,0 0.4181208,-0.317632 0.4181208,-0.317632 v 0 c 0.0793,-0.01479 0.1599254,-0.01549 0.2397401,-0.02692 0.1355549,-0.01984 0.2693499,-0.0499 0.4053987,-0.06639 0,0 -0.4206373,0.313676 -0.4206373,0.313676 z"
     inkscape:connector-curvature="0" />
  <path
     style="fill:#ff0000;stroke:#ff0000"
     id="path3903"
     d="m 7.3065519,18.645626 c -0.085252,0.02791 -0.040882,0.01389 -0.1331768,0.04187 0,0 0.4117028,-0.318315 0.4117028,-0.318315 v 0 c 0.09425,-0.02941 0.048176,-0.01537 0.1381954,-0.04221 0,0 -0.4167214,0.31865 -0.4167214,0.31865 z"
     inkscape:connector-curvature="0" />
  <path
     style="fill:#ff0000;stroke:#ff0000"
     id="path3905"
     d="m 7.0413869,18.734014 c -0.1346842,0.03973 -0.2674552,0.08587 -0.4025629,0.124104 -0.015392,0.0049 -0.030784,0.0098 -0.046175,0.01473 0,0 0.4146843,-0.320429 0.4146843,-0.320429 v 0 c 0.014979,-0.0043 0.029958,-0.0087 0.044937,-0.01302 0.1354429,-0.0408 0.2700246,-0.08443 0.4058386,-0.124035 0,0 -0.4167214,0.318649 -0.4167214,0.318649 z"
     inkscape:connector-curvature="0" />
  <path
     style="fill:#ff0000;stroke:#000000;stroke-width:1px;stroke-linecap:butt;stroke-linejoin:miter;stroke-opacity:1"
     d="m 14.54,12.86 c 0,0 0,0 0,0 z"
     id="path3925"
     inkscape:connector-curvature="0" />
</svg>
