<svg xmlns="http://www.w3.org/2000/svg" xmlns:xlink="http://www.w3.org/1999/xlink" viewBox="0 0 244.375 85" fill="#fff" fill-rule="evenodd" stroke="#000" stroke-linecap="round" stroke-linejoin="round"><use xlink:href="#A" x="7.188" y="2.5"/><symbol id="A" overflow="visible"><path d="M27.117 0h12.58v57.964c-6.453 1.22-11.2 1.708-16.335 1.708C8.004 59.67 0 52.76 0 39.505c0-12.767 8.495-21.06 21.645-21.06 2.042 0 3.594.162 5.473.65V0zm0 29.177c-1.47-.487-2.695-.65-4.247-.65-6.37 0-10.047 3.903-10.047 10.733 0 6.67 3.512 10.327 9.965 10.327 1.388 0 2.532-.08 4.33-.325V29.177zm32.59-9.837v29.03c0 10.002-.735 14.8-2.94 18.947-2.042 3.985-4.738 6.505-10.292 9.27l-11.68-5.53c5.554-2.602 8.25-4.878 9.964-8.376 1.797-3.578 2.37-7.725 2.37-18.62V19.34h12.578zM47.128.067h12.578v12.848H47.128V.067zm20.175 22.118c5.555-2.6 10.863-3.74 16.663-3.74 6.453 0 10.7 1.707 12.578 5.04 1.06 1.87 1.388 4.3 1.388 9.514v25.45c-5.636.813-12.742 1.383-17.97 1.383-10.536 0-15.274-3.66-15.274-11.8 0-8.782 6.3-12.848 21.727-14.15V31.13c0-2.277-1.143-3.1-4.33-3.1-4.655 0-9.883 1.3-14.784 3.822v-9.677zm19.684 19.922c-8.332.813-11.027 2.114-11.027 5.367 0 2.44 1.552 3.578 4.983 3.578 1.88 0 3.594-.162 6.044-.57v-8.376zm17.07-20.807c7.432-1.95 13.558-2.845 19.766-2.845 6.453 0 11.108 1.463 13.886 4.3 2.614 2.683 3.43 5.6 3.43 11.872v24.557h-12.58v-24.07c0-4.797-1.633-6.587-6.125-6.587-1.715 0-3.267.163-5.8.894v29.76h-12.578V21.3zm41.972 44.713c4.4 2.277 8.822 3.333 13.477 3.333 8.25 0 11.76-3.333 11.76-11.302V57.8c-2.45 1.22-4.9 1.708-8.167 1.708-11.027 0-18.052-7.237-18.052-18.702 0-14.23 10.374-22.28 28.75-22.28 5.4 0 10.374.57 16.418 1.788l-4.307 9.033c-3.35-.65-.268-.087-2.8-.33v1.3l.163 5.285.08 6.83c.082 1.707.082 3.415.164 5.122v3.416c0 10.734-.898 15.775-3.594 19.922-3.92 6.1-10.7 9.108-20.338 9.108-4.9 0-9.147-.732-13.558-2.44V66.013zm24.994-37.405h-1.307c-2.45-.08-5.308.57-7.27 1.788-3.02 1.708-4.574 4.798-4.574 9.2 0 6.262 3.105 9.84 8.658 9.84 1.715 0 3.104-.326 4.737-.813v-4.3c0-1.464-.08-3.1-.08-4.798l-.08-5.773-.082-4.147v-.976zm38.72-10.326c12.578 0 20.256 7.888 20.256 20.654 0 13.092-8.004 21.305-20.746 21.305-12.58 0-20.338-7.888-20.338-20.573 0-13.174 8.005-21.386 20.828-21.386zm-.246 31.875c4.82 0 7.68-3.985 7.68-10.896 0-6.83-2.777-10.896-7.595-10.896-4.983 0-7.843 3.985-7.843 10.896s2.86 10.896 7.76 10.896z" fill="#092e20" stroke="none"/></symbol></svg>