<?xml version="1.0" encoding="UTF-8" standalone="no"?>
<svg
   xmlns:dc="http://purl.org/dc/elements/1.1/"
   xmlns:cc="http://creativecommons.org/ns#"
   xmlns:rdf="http://www.w3.org/1999/02/22-rdf-syntax-ns#"
   xmlns:svg="http://www.w3.org/2000/svg"
   xmlns="http://www.w3.org/2000/svg"
   xmlns:xlink="http://www.w3.org/1999/xlink"
   xmlns:sodipodi="http://sodipodi.sourceforge.net/DTD/sodipodi-0.dtd"
   xmlns:inkscape="http://www.inkscape.org/namespaces/inkscape"
   viewBox="0 0 67 40"
   fill="#fff"
   fill-rule="evenodd"
   stroke="#000"
   stroke-linecap="round"
   stroke-linejoin="round"
   version="1.1"
   id="svg7"
   sodipodi:docname="express.svg"
   inkscape:version="0.92.3 (2405546, 2018-03-11)"
      width="8"
   height="8">
  <metadata
     id="metadata13">
    <rdf:RDF>
      <cc:Work
         rdf:about="">
        <dc:format>image/svg+xml</dc:format>
        <dc:type
           rdf:resource="http://purl.org/dc/dcmitype/StillImage" />
      </cc:Work>
    </rdf:RDF>
  </metadata>
  <defs
     id="defs11" />
  <sodipodi:namedview
     pagecolor="#ffffff"
     bordercolor="#666666"
     borderopacity="1"
     objecttolerance="10"
     gridtolerance="10"
     guidetolerance="10"
     inkscape:pageopacity="0"
     inkscape:pageshadow="2"
     inkscape:window-width="1600"
     inkscape:window-height="799"
     id="namedview9"
     showgrid="false"
     inkscape:zoom="4.2686567"
     inkscape:cx="33.5"
     inkscape:cy="20"
     inkscape:window-x="0"
     inkscape:window-y="21"
     inkscape:window-maximized="1"
     inkscape:current-layer="svg7" />
  <use
     xlink:href="#A"
     x="1"
     y="1"
     id="use2" />
  <symbol
     id="A"
     overflow="visible">
    <path
       d="M64 36.167c-2.328.592-3.768.026-5.06-1.914L49.752 21.54l-1.328-1.76-10.73 14.514c-1.226 1.746-2.512 2.506-4.8 1.888l13.74-18.444L33.842 1.08c2.2-.428 3.72-.2 5.07 1.76l9.53 12.87 9.6-12.8c1.23-1.746 2.552-2.4 4.76-1.766l-4.96 6.576-6.72 8.75c-.8 1-.7 1.684.046 2.65L64 36.167zM.016 17.43l1.124-5.528C4.2.963 16.74-3.583 25.388 3.177c5.054 3.976 6.3 9.6 6.06 15.9H2.96C2.532 30.417 10.694 37.26 21.1 33.77c3.65-1.226 5.8-4.084 6.876-7.66.546-1.792 1.45-2.072 3.134-1.56-.86 4.472-2.8 8.208-6.9 10.546-6.126 3.5-14.87 2.368-19.47-2.496C2 29.777.868 26.2.36 22.377c-.08-.632-.24-1.234-.36-1.84q.016-1.552.016-3.104zm2.996-.76h25.744c-.168-8.2-5.274-14.024-12.252-14.074-7.66-.06-13.16 5.626-13.492 14.074z"
       stroke="none"
       fill="#000"
       fill-rule="nonzero"
       id="path4" />
  </symbol>
  <path
     style="fill:#ffff00;fill-opacity:1;stroke:#ffffff;stroke-width:0.23426573"
     d="M 12.70084,37.425002 C 9.186326,36.504201 6.2490614,34.453516 4.3473276,31.5929 2.9870617,29.546769 2.2675523,27.625291 1.6575109,24.409638 1.0215907,21.057571 1.04451,18.906694 1.7532293,15.426872 2.7345183,10.608729 3.9615781,8.1952775 6.8222638,5.4568071 12.887294,-0.34911101 21.766423,-0.29558242 27.675629,5.5825235 30.662655,8.5538301 31.984954,11.880836 32.255163,17.10499 l 0.142279,2.750795 -14.266029,0.06039 -14.2660284,0.06039 0.068988,1.991259 c 0.1473827,4.254006 1.5016736,7.601902 4.1243511,10.195667 2.7194603,2.689478 5.7151633,3.789761 9.6465533,3.543051 5.728087,-0.359457 9.086863,-2.727659 11.109699,-7.833216 0.807896,-2.039096 1.150804,-2.391516 2.326966,-2.391516 0.928721,0 0.933228,0.418403 0.03239,3.006541 -1.599712,4.596003 -4.837306,7.599393 -9.620997,8.925021 -2.333934,0.646765 -6.407854,0.652113 -8.85249,0.01162 z m 17.050908,-20.74047 c 0,-1.730324 -0.676447,-4.305122 -1.662563,-6.328294 C 26.982969,8.0866536 25.018707,5.9836579 23.000168,4.907788 18.051917,2.2703975 11.42869,3.4838469 7.6139932,7.7267081 5.6773891,9.880678 3.9993696,14.111496 3.9865853,16.872552 l -0.00407,0.878497 H 16.867133 29.751748 Z"
     id="path17"
     inkscape:connector-curvature="0" />
  <path
     style="fill:#ffd42a;fill-opacity:1;stroke:#ffffff;stroke-width:0.23426573"
     d="m 34.202797,37.078888 c 0,-0.08954 12.43304,-16.871798 13.384669,-18.066776 0.136759,-0.17173 -1.966542,-3.093982 -6.119614,-8.502373 C 37.987457,5.9773486 35.13986,2.2209276 35.13986,2.162137 c 0,-0.058791 0.564218,-0.1068922 1.253818,-0.1068922 0.914948,0 1.466714,0.1434711 2.041538,0.5308445 0.450589,0.3036522 2.946894,3.4572909 5.83272,7.368608 2.774751,3.7607697 5.097711,6.8383967 5.162134,6.8391707 0.06442,7.75e-4 2.278234,-2.896806 4.91958,-6.439069 5.849913,-7.8452143 6.097267,-8.1055471 7.838668,-8.2499576 0.713732,-0.059188 1.297696,-0.024683 1.297696,0.076679 0,0.2122629 -2.227441,3.1968314 -7.92507,10.6188746 -3.214386,4.187235 -4.022482,5.385739 -4.022482,5.965824 0,0.587577 1.275557,2.418203 6.693166,9.60575 L 64.924797,37.2518 63.389539,37.15404 C 62.081385,37.07074 61.746448,36.953925 61.125302,36.364328 60.724363,35.983754 57.974737,32.325303 55.015023,28.234438 52.055309,24.143572 49.549,20.7965 49.445447,20.7965 c -0.103553,0 -2.539369,3.188943 -5.412924,7.086539 -6.002921,8.142163 -6.168064,8.352414 -6.991017,8.900554 -0.551415,0.36728 -2.838709,0.605212 -2.838709,0.295292 z"
     id="path19"
     inkscape:connector-curvature="0" />
  <path
     style="fill:#ffd42a;fill-opacity:1;stroke:#ffffff;stroke-width:0.23426573"
     d="M 13.171553,37.307124 C 8.2639679,36.241304 4.2107293,32.425176 2.6020719,27.355944 1.9619949,25.338921 1.4055944,22.021145 1.4055944,20.221434 c 0,-1.993825 0.6167306,-5.446492 1.4282681,-7.995928 C 4.768539,6.1477383 10.211575,1.8049851 16.365176,1.4294809 20.649435,1.1680474 24.15892,2.5529656 27.43393,5.7974496 c 3.159177,3.1297303 4.229858,5.7769244 4.574181,11.3093684 l 0.156734,2.518357 h -9.953959 c -5.474677,0 -11.883298,0.06989 -14.2413789,0.1553 l -4.2874197,0.1553 0.1378469,2.480189 c 0.1586726,2.854889 0.5640502,4.392578 1.7655076,6.696973 0.9526339,1.827151 3.1229857,4.160356 4.7652011,5.122757 2.088025,1.223663 3.610966,1.607974 6.399357,1.614857 6.053438,0.01495 9.432342,-2.076904 12.10821,-7.496084 1.1706,-2.370702 1.290398,-2.525633 2.0063,-2.59466 0.892354,-0.08604 0.918599,0.03905 0.387394,1.84645 -1.45785,4.960261 -5.399984,8.666684 -10.328561,9.710985 -1.979169,0.419359 -5.797203,0.414376 -7.75179,-0.01012 z M 29.986014,16.85146 c 0,-1.611727 -0.796354,-4.553709 -1.770112,-6.539355 C 27.273069,8.3895222 25.358455,6.1900572 23.70294,5.1277153 19.038418,2.1345 12.146925,2.9953711 8.0507945,7.0829491 5.7563364,9.3726167 3.7482517,13.986448 3.7482517,16.968593 v 1.016722 H 16.867133 29.986014 Z"
     id="path21"
     inkscape:connector-curvature="0" />
</svg>
