<?xml version="1.0" encoding="UTF-8" standalone="no"?>
<svg
   xmlns:dc="http://purl.org/dc/elements/1.1/"
   xmlns:cc="http://creativecommons.org/ns#"
   xmlns:rdf="http://www.w3.org/1999/02/22-rdf-syntax-ns#"
   xmlns:svg="http://www.w3.org/2000/svg"
   xmlns="http://www.w3.org/2000/svg"
   xmlns:xlink="http://www.w3.org/1999/xlink"
   xmlns:sodipodi="http://sodipodi.sourceforge.net/DTD/sodipodi-0.dtd"
   xmlns:inkscape="http://www.inkscape.org/namespaces/inkscape"
   viewBox="0 0 66 60"
   fill="#fff"
   fill-rule="evenodd"
   stroke="#000"
   stroke-linecap="round"
   stroke-linejoin="round"
   version="1.1"
   id="svg7"
   sodipodi:docname="flask.svg"
   inkscape:version="0.92.3 (2405546, 2018-03-11)">
  <metadata
     id="metadata13">
    <rdf:RDF>
      <cc:Work
         rdf:about="">
        <dc:format>image/svg+xml</dc:format>
        <dc:type
           rdf:resource="http://purl.org/dc/dcmitype/StillImage" />
      </cc:Work>
    </rdf:RDF>
  </metadata>
  <defs
     id="defs11">
    <filter
       style="color-interpolation-filters:sRGB;"
       inkscape:label="Colorize"
       id="filter3738">
      <feComposite
         in2="SourceGraphic"
         operator="arithmetic"
         k1="0"
         k2="1"
         result="composite1"
         id="feComposite3724" />
      <feColorMatrix
         in="composite1"
         values="1"
         type="saturate"
         result="colormatrix1"
         id="feColorMatrix3726" />
      <feFlood
         flood-opacity="1"
         flood-color="rgb(158,67,0)"
         result="flood1"
         id="feFlood3728" />
      <feBlend
         in="flood1"
         in2="colormatrix1"
         mode="multiply"
         result="blend1"
         id="feBlend3730" />
      <feBlend
         in2="blend1"
         mode="screen"
         result="blend2"
         id="feBlend3732" />
      <feColorMatrix
         in="blend2"
         values="1"
         type="saturate"
         result="colormatrix2"
         id="feColorMatrix3734" />
      <feComposite
         in="colormatrix2"
         in2="SourceGraphic"
         operator="in"
         k2="1"
         result="fbSourceGraphic"
         id="feComposite3736" />
      <feColorMatrix
         result="fbSourceGraphicAlpha"
         in="fbSourceGraphic"
         values="0 0 0 -1 0 0 0 0 -1 0 0 0 0 -1 0 0 0 0 1 0"
         id="feColorMatrix3740" />
      <feComposite
         in2="fbSourceGraphic"
         id="feComposite3742"
         operator="arithmetic"
         k1="0"
         k2="1"
         result="composite1"
         in="fbSourceGraphic" />
      <feColorMatrix
         id="feColorMatrix3744"
         in="composite1"
         values="1"
         type="saturate"
         result="colormatrix1" />
      <feFlood
         id="feFlood3746"
         flood-opacity="1"
         flood-color="rgb(158,67,0)"
         result="flood1" />
      <feBlend
         in2="colormatrix1"
         id="feBlend3748"
         in="flood1"
         mode="multiply"
         result="blend1" />
      <feBlend
         in2="blend1"
         id="feBlend3750"
         mode="screen"
         result="blend2" />
      <feColorMatrix
         id="feColorMatrix3752"
         in="blend2"
         values="1"
         type="saturate"
         result="colormatrix2" />
      <feComposite
         in2="fbSourceGraphic"
         id="feComposite3754"
         in="colormatrix2"
         operator="in"
         k2="1"
         result="fbSourceGraphic" />
      <feColorMatrix
         result="fbSourceGraphicAlpha"
         in="fbSourceGraphic"
         values="0 0 0 -1 0 0 0 0 -1 0 0 0 0 -1 0 0 0 0 1 0"
         id="feColorMatrix3756" />
      <feComposite
         in2="fbSourceGraphic"
         id="feComposite3758"
         operator="arithmetic"
         k1="0.6"
         k2="1"
         result="composite1"
         in="fbSourceGraphic" />
      <feColorMatrix
         id="feColorMatrix3760"
         in="composite1"
         values="1"
         type="saturate"
         result="colormatrix1" />
      <feFlood
         id="feFlood3762"
         flood-opacity="1"
         flood-color="rgb(158,67,0)"
         result="flood1" />
      <feBlend
         in2="colormatrix1"
         id="feBlend3764"
         in="flood1"
         mode="multiply"
         result="blend1" />
      <feBlend
         in2="blend1"
         id="feBlend3766"
         mode="screen"
         result="blend2" />
      <feColorMatrix
         id="feColorMatrix3768"
         in="blend2"
         values="1"
         type="saturate"
         result="colormatrix2" />
      <feComposite
         in2="fbSourceGraphic"
         id="feComposite3770"
         in="colormatrix2"
         operator="in"
         k2="1"
         result="composite2" />
    </filter>
  </defs>
  <sodipodi:namedview
     pagecolor="#ffffff"
     bordercolor="#666666"
     borderopacity="1"
     objecttolerance="10"
     gridtolerance="10"
     guidetolerance="10"
     inkscape:pageopacity="0"
     inkscape:pageshadow="2"
     inkscape:window-width="1550"
     inkscape:window-height="780"
     id="namedview9"
     showgrid="false"
     inkscape:zoom="15.733333"
     inkscape:cx="33"
     inkscape:cy="35.084746"
     inkscape:window-x="0"
     inkscape:window-y="21"
     inkscape:window-maximized="0"
     inkscape:current-layer="svg7" />
  <use
     xlink:href="#A"
     x="1"
     y="1"
     id="use2"
     transform="translate(0.25423729,-0.76271186)"
     width="100%"
     height="100%"
     style="filter:url(#filter3738);fill:#008000" />
  <symbol
     id="A"
     overflow="visible">
    <path
       d="M19.127 50.84c-2.44-1.92-5.04-3.756-6.816-6.344-3.74-4.566-6.6-9.85-8.588-15.406-1.2-3.612-1.6-7.486-3.132-10.96-1.604-2.52.276-5.28 3.04-6.08 1.23-.236 3.392-1.4.8-.568-2.34 1.716-2.566-1.56-.166-1.768 1.64-.2 2.24-1.56 1.68-2.764C4.185 5.8 10.21 4.543 7.177 2.83 4-.57 11.573-1.227 9.705 2.64c-.444 2.972 5.292-.548 3.96 2.888 1.354 1.65 5.068.376 4.974 2.7 1.972.136 2.648 1.794 4.5 1.92 1.92.866 5.394 1.548 6.046 3.7-1.9 1.506-6.306-3.1-6.52 1.06.576 6.16.428 12.504 2.68 18.37 1.066 3.55 3.65 6.346 6 9.112 2.234 2.708 5.26 4.616 8.34 6.2 2.704 1.276 5.6 2.12 8.566 2.652 1.194-.914 3.306-4.312 5.168-2.88.1 1.612-3.7 3.368-.2 3.2 2.07-.624 3.504 1.6 5.206-.408 1.57 1.86 6.52-1.186 5.406 2.612-1.5.974-3.712.386-5.224 1.726-2.494-1.246-4.48 1.114-7.24.816-3.066.55-6.184.77-9.292.774-5.1-.4-10.306-.572-15.156-2.348-2.734-.794-5.4-2.35-7.8-3.908zm4.306 1.866c2.668 1.152 5.28 2.368 8.2 2.736 4.64.644 9.43 1.64 14.086.732-2.108-.952-4.286.37-6.386-.68-2.52.54-5.2-.14-7.8-.474-2.9-1.296-6.052-2.188-8.776-3.872-3.406-1.244 1.76 1.596 2.68 1.826 2.128 1.208-2.34-.6-2.972-1.12-1.784-1-2-.792-.176.224l1.12.628zm-5.08-3.588c2.586.96-.012-1.8-1.194-1.66-.524-.9-2.006-1.486-.96-1.974-1.88.652-1.968-2.48-2.85-2.032-1.988-.628-.774-2.852-3.14-4.2-.216-1.44-2.352-2.686-3.032-4.856-.3-1.112-2.414-4.3-1.116-1.332 1.104 2.86 3.048 5.306 4.668 7.75 1.256 2.328 2.74 4.76 5.028 6.214.772.74 1.516 1.874 2.604 2.106zm-7.448-8.2c.1-.4.472.844 0 0zm10.546 9.326c.572-.256-.824-.324 0 0zm1.4.512c-.146-.706-.64.396 0 0zm1.76.732c.836-.796-1.3-.5 0 0zm3.012 1.68c.508-.75-1.626-.28 0 0zm-5.8-4.03c1.3-.84-1.68-.012 0 0zm1.32.66c-.04-.444-.47.2 0 0zm6.586 4.112c1.06.668 6.184 1.464 2.976.274-.54.112-5.95-1.532-2.976-.274zm-10.456-8.144c-.1-.444-1.644-.492 0 0zm3.066 1.788c.8-.56-1.656-.43 0 0zm2.6 1.6c1.146-.432-1.856-.434 0 0zm-6.92-4.75c1.24.952 5.012.12 1.9-.568-1.414-.754-4.6-1.27-2.428.454l.526.114zm8.64 5.274c.52-.88-2.172-.504 0 0zm-2.626-2.086c3.04.86-2.554-1.92-.75-.32l.4.2.35.136zm5.264 3.04c2.88.028-2.6-.4 0 0zM16.91 42.737c-.112-.536-.7.044 0 0zM34.165 53.36c.076-.968-.94.72 0 0zm-12.34-7.6c-.174-.5-.9-.02 0 0zm-4.64-3.34c1.652-.1-2.26-.728 0 0zm-5.472-3.528c-.206-.792-1.796-1.424 0 0zm14.424 9.154c-.3-.346-.14.074 0 0zm8.976 5.5c-.028-.528-.488.2 0 0zm-9.77-6.33c.16-.68-1.4-.206 0 0zm-6.688-4.24c1.23-.13-1.97-.83 0 0zm11.312 7.03c1.916-.76-1.866-.37 0 0zm-5.884-3.994c2.206.284-2.626-1.5-.486-.16l.486.16zm7.67 4.716c2.06-1.23 1.4 2.886 3.496.348 2.086-1.524-1.8 1.884.768.272 1.86-1.244 4.606.6 6.34 1.186 1.248-.06 2.46 1.08 3.74.386 2.46-.664-4.816-.984-2.908-2.16-2.252.656-3.916-.8-5.026-2.224-2.528-.584-5.448-1.876-6.7-4.112-.514-.84.74.12-.444-1.254-1.52-1.354-2.28-2.892-3.304-4.54-1.2-.65-1.366-2.568-1.488-.064.01-1.6-1.474-2.646-1.84-2.204-.006-1.52 1.6-.76.472-1.884-.24-1.6-1.032-3.2-1.268-5.004-.37-.86-.052-2.7-1.26-.754-.44 2.054-.146-2.524.54-1.016.9-1.54-.324-1.36-.372-1.146.586-1.3.372-3.144-.154-2.44.312-1.4.494-5.07-.466-4.416.6-1.44 1.104-6.594-1.424-4.63-1.024.014-2.796.372-3.634.788 2.626 1.448-.264.524-1.336.292-.14 1.34-1.2.76-2.52.774 2.116.26-1.03 2.16-2.24 1.424-1.576.752 1.36 2.632.03 3.214.164.874-2.414-.316-2.212 1.708-1.528-.644-.2 2.4.556 1.37 2.6.704 1.83 2.308 1.896 3.834-.424.888-2.092-2.088-.372-1.95-1.36-2.206-1.5-.8-2.63.228-.26.074 2.88 1.46.908 2.14 1.734.268 1.784 1.786 2.136 2.744 1.04 1.086.826-1.2 2.074.106-.8-1.16-4.2-3.274-1.45-2.6-.014-1.168-.494-2.112.344-2.1.83-1.5-.868 3.7 1 1.792.516-.226.646-1.5 1.574.12 1.348 1.328.488 2.288-1.416 1.072.34 1.156 2.546 1.568 2.13 3.374.44 1.6 1.054 1.004 1.6.912.4 1.544.66.408.68-.326 1.924.412 1.472 1.55 2.076 2.344 1.326.6-1.9-4.056.4-1.4 2.394 2.16.9 3.066-1.25 2.72 1.36-.1 1.8 1.84 3.5 1.77 1.552.74 2.6 3.574-.072 2.392-.926-.836-4.212-1.868-1.528-.28 2.476 1.148 4.444 1.832 6.832 3.274 1.708 1.2 2.446 2.616 3.094 2.894-1.436.686-4.328-.548-2.2-.926-1.34-.244-2.848-.92-1.564.748 1.092.912 3.866.816 4.364.92-.4.928-1.146 1 .016 1.074-1.296.692.416.8.536 1.194zM29.1 43.233c-.8-.826-.994-2.37-.14-1.026.44.176 1.4 2.526.14 1.026zm8.64 5.46c.492-.032.014.374 0 0zm-9.88-7.5c-.032-1.248.284.96 0 0zM27 40.03c-.994-1.92 1.25.54 0 0zm-10.404-7.2c.584-.156.288.996 0 0zm8.28 4.488c.36-1.346.4 1.128 0 0zm-5.85-4.068c-.412-.74.86.696 0 0zm5 1.608c-.94-2.106.668-1.15.2.344l-.2-.344zm-8.656-5.772c-.4-.692-1.114-2.72-.9-3.34.2 1.008 2.144 4.34.952 1.4-1.316-2.48 1.574.804 1.872 1.424.14.614-.812-.168-.168 1.276-1.176-1.644-.694.908-1.764-.74zm-2.674-1.844c.1-1.608.612 1.1 0 0zm1.204.416c.574-1.212.972 1.7 0 0zm-2.92-2.2c-.996-1-1.716-1.9.048-.614.68.026-1.5-2.074.164-.668 1.76.32.868 2.886-.2 1.28zm1.52-.04c.6-.574.308.564 0 0zm.936.3c-.88-1.644 1.064.7 0 0zm-1.86-1.776c-2.896-2.6 3.64 1.346.472.48l-.472-.48zm8.296 4.8c-1.254-.75-.334-5.288.094-2.186 1.2-.394-.068 1.604.84 1.584-.14 1.26-.55 1.714-.934.6zm3.068 1.814c.12-1.368.26.936 0 0zm-.532-.528c.14-.584.012.688 0 0zm-10.224-6.934c-1.86-2.566 5.406 2.596 1.192.65-.44-.116-.97-.156-1.192-.65zm5.9 3.132c-.176-2.16.392.36 0 0zm4.486 2.88c.346-1.23.026.814 0 0zm-10.1-7.012c1.106-.236 4.6 1.94 1.4.6-.354-.392-1.112-.214-1.4-.6zm9.492 4.732c.12-2.2.66-1.32.004.32l-.004-.32zm-8.67-5.5c.452-.66-1.196-2.986.236-.834.6.492 1.794.824.76 1.032 1.63 1.44-.4.4-.994-.2zm8.2 4.812c.3-2.52.274 1.474 0 0zM12.353 19c.344-.148.2.46 0 0zm2.14 1.274c.55-1.156 1.016 1.288 0 0zm6.034 3.356c-.004-.44.114.646 0 0zm-.35-.772c-.836-2.066.8 1.094 0 0zm-.514-1.356c-.14-.854.48 1.072 0 0zm.836-1.36c-.576-1.012.726-4.46.872-2.32-.606 1.668-.174 2.6.246.36.8-1.76-.168 3.474-1.12 1.96zm.86-5.132c.25-.308.056.37 0 0zm-1.44 28.3c-.34-.3.044.188 0 0zm2.96 1.496c1.646.424 1.64-.256.15-.46-.8-.744-3.324-1.534-1.064-.092.148.4.6.37.914.55zm-5.84-3.88c.906.68 3.414 1.916 1.292.26.716-.832-1.37-1.276-.68-1.832-1.76-1.08-1.4-1-.156-.946-2.116-.946.306-.874.192-1.36-.816-.16-4.052-1.44-2.148.104-1.936-.986-.46.368-1.046.226-2-.54 1.76 1.508-.314 1 1.134.9 3.056 2.306.48.952-.34.488 1.844 1.23 2.4 1.6zm3.094 1.8c3.76 1.212-1.846-1.48 0 0zm15.84 9.596c.048-.748-.514.64 0 0zm1.628.686c.868-.84.036 1.34 1.44-.206.014-1.106-.04-1.76-1.612-.416-.434.24-.626 1.26.174.6zM11.757 36.773c-.266-1.048-1.868-1.044 0 0zm1.74 1.14c-.646-1.07-2.304-.97 0 0zm9.892 5.966c.966.86 4.436.63 1.172.106-.48-.714-3.066-.54-1.172-.106zm13.596 8.4c1.486-1.248-1.44.556 0 0zm3.092 2.124c.01-.4-.64.174 0 0zm.006-.56c1.646-1.74-1.594.1 0 0zM7.48 33.193c-1.4-2-.872-2.9-2.224-4.534-.256-1.25-2.32-4.086-1.068-1.08 1.148 1.76 1.488 4.48 3.292 5.6zm32.08 20.092c3.03-1.956-1.24-.852 0 0zm2.312.906c1.52-1.3-.96-.272 0 0zM11.24 34.563c.434-.646-1.12-.084 0 0zm30.15 19c1.468-.946-.34-.8-.266.086l.266-.086zm-19.924-12.56c-.05-.64-.776.054 0 0zm1.23.708c-.392-.792-.6.124 0 0zm21.05 12.5c1.88-1.36-1.14-.26-.394.26l.394-.26zm-.72-.348c1.534-1.284-1.6.568 0 0zm3.68 2.45c1.028-.688-1.25-.2 0 0zm-34.52-22.22c1.4.308 5.5 3.396 3.074.214-1.248-.37-.5-3.4-1.774-2.88.854 1.428.7 2.036-1.092 1.136-2.254-1.1-1.266.544-.826 1-.6.14.794.52.6.532zm-6.28-4.96c.246-1-2.274-5.6-1.2-2.304.4.694.35 2 1.2 2.304zm11.532 7.1c-.712-.594-.034-.084 0 0zm1.748.408c0-1.08-1.932-.44 0 0zm15.154 9.552c-.3-.74-1.14-.016 0 0zm.728.532c-.108-.414-.4.08 0 0zm6.006 3.784c.6-.426-.72-.056 0 0zM9.04 29.937c1.652-.64-1.77-.456 0 0zM33 45.033c-.02-1.07-1.054.266 0 0zm-24.614-16.6c1.06-.36-1-.236 0 0zm3.08 1.492c-.02-.352-.326.134 0 0zm37.576 23.04c1.364-.276 4.476.694 5-.36-1.66-.04-5.734-1.17-5.926.268l.36.06.586.036zM12.447 30.153c.024-1.084-.844-.04 0 0zm-8.1-5.6c-.368-2.064-1.4-.312 0 0zm1.93.486c.024-.664-1.768-.596 0 0zm1.104.54c-.32-.26-.248.326 0 0zm6.946 4.454c.328-.3-.774-.2 0 0zm-7.68-5.68c-.188-1.56-2.24-.234 0 0zm-3.96-2.57c-.056-.72-.386.272 0 0zm.6-.444c-.096-.854-.506.108 0 0zm3.254 1.94c1.376-.54-2.506-1.12-.28-.1l.28.1zm43.556 26.894c.88-.808-1.12-.25 0 0zm5.26 2.726c.354-1.04-.9.14 0 0zM6.86 21.563c.146-1-1.092.2 0 0zm-4.632-3.1c-.244-1.43-.228-3.93 2.168-3.086-3.174.632 2.2 3.948 1.52 1.328 1.336.066 2.612-.8 1.9.506 2.634-.286 4.454-2.57 7-2.248 2-.264 4.144-.46 6.28-1.26 1.754-.126 3.44-2.014 2.48-3.134-2.392-.2-4.896.096-7.54.624-2.93.608-5.6 1.766-8.546 2.26-2.88.388.6 1.066-.246 1.2-1.5.52 1.794.872-.194 1.424-1.228-.234-2.506-.656-2-1.95-2.76.36-5.186 1.504-3.004 4.312h.16zm6.656-3.37c.646-2.384 3.466 1.96 1.06.32-.286-.216-.76-.4-1.06-.32zm.126-1.156c.934-.694.496.4 0 0zm1.186.02c.086-1.096 2.716.6.434.394l-.434-.394zm1.6-.652c.594-.694.172.614 0 0zm.416-.28c.988-1.186 5.586-.76 2.2-.116-.9-.68-1.594.4-2.2.116zm6-.926c-.148-3.24 2.984 1.15 0 0zm1.704-.01c.6-1.632 2.4-.656.3-.328.046.174-.064.844-.3.328zM6.17 20.743c1.86-1.14-1.974-.988 0 0zm1.376.4c.652-.694-1.4-.28 0 0zm-4.032-2.9c1.06-.8-1.26-.3 0 0zm54.94 34.37c.03-.948-.812.426 0 0zm-5.6-3.8c.16-1.1-.72.094 0 0zm7.12 4.2c1.486.006 4.504-.46 1.27-.46-.508.08-2.96.06-1.27.46zM8.8 20.44c1.204-.08 1.88-1.326-.234-1.256-3.28-.34 2.892 1.124-.4.704-.444.294.628.632.654.55zm1.06.536c-.126-.772-.372.4 0 0zm1.26-3.352c.52-.648-.72-.174 0 0zm-4-6.688c2.148-.73 5.084-1.55 6.1.36-1.032-1.24-.416-2.464.56-.648 1.4 1.836 2.068-.836 1.172-1.452 1 1.268 2.2 1.868.684.08 1.63-1.96-3.26.256-4.372.234-.534.24-5.52 1.272-4.14 1.426zm1.26-2.4c1.224-.924 4.236.55 2.304-.92-.2-.166-4.23 1.114-2.304.92zm4.464.184c1.432.036-.6-1.926 1.088-1.036-.28-.916-1.988-1.086-2.824-1.454-.472.836.96 2.5 1.734 2.5zm-3.68-4.052c.496-.672-.87.34 0 0zm1.796.436c2.3-.306-.588-.994-.466-.024l.466.024zm-3.408-2.66C5.927.31 10.613 2.79 8.96.567 7.567-.54 6.233 1.815 7.553 2.433zM28.4 13.693c.746-1.32-3.08-1.8-.5-.468.236.08.184.56.5.468z"
       stroke="none"
       fill="#000"
       fill-rule="nonzero"
       id="path4" />
  </symbol>
  <path
     style="fill:#008000;fill-opacity:1;stroke:#ffffff;stroke-width:0.25423729"
     d="m 43.29661,56.837377 c 4.134099,-0.237424 3.840923,-0.191369 3.484864,-0.547429 -0.291382,-0.291381 -3.398118,-0.483442 -7.55266,-0.466912 -1.941173,0.0077 -6.788667,-0.675943 -5.148306,-0.726091 0.524365,-0.01604 0.95339,-0.134164 0.95339,-0.262515 0,-0.276577 -4.423416,-1.282381 -5.334648,-1.213002 -0.347192,0.02644 -0.633208,-0.08541 -0.635593,-0.248547 -0.0071,-0.488278 -0.351758,-0.683642 -0.698423,-0.395934 -0.388022,0.322029 -3.813835,-1.164341 -4.176267,-1.81197 -0.23119,-0.413115 -1.358459,-0.321061 -1.358459,0.110934 0,0.119133 -0.200211,0.153819 -0.444915,0.07708 -0.253449,-0.07949 -0.116688,0.142226 0.317797,0.515192 0.419491,0.360094 0.660958,0.655286 0.536593,0.65598 -1.023371,0.0057 -9.233517,-6.513676 -8.777381,-6.969813 0.06159,-0.06159 1.126158,0.795272 2.365715,1.904128 1.239557,1.108856 2.382099,2.017662 2.538983,2.019572 0.156883,0.002 0.542658,0.07246 0.857276,0.156772 0.410495,0.110009 0.572034,0.04362 0.572034,-0.235108 0,-0.437708 -1.396358,-1.704796 -1.87872,-1.704796 -0.459229,0 -1.763693,-1.439534 -1.577485,-1.740826 0.08726,-0.141196 -0.09993,-0.293499 -0.415988,-0.338456 -0.33052,-0.04701 -0.836256,-0.486765 -1.190434,-1.035125 -0.338681,-0.524364 -0.748284,-0.953389 -0.910227,-0.953389 -0.48964,0 -1.288586,-1.071692 -1.767207,-2.370499 -0.248572,-0.674537 -0.615097,-1.289036 -0.8145,-1.365554 -0.199402,-0.07652 -0.522949,-0.449303 -0.718993,-0.828409 -0.196043,-0.379106 -0.7811,-1.194692 -1.300125,-1.812412 -0.7623677,-0.907335 -2.1381852,-3.429023 -2.1381852,-3.919007 0,-0.06154 0.1831721,-0.0416 0.4070491,0.04431 0.3656583,0.140316 0.3634744,0.07194 -0.021475,-0.672476 C 7.8354003,31.475273 7.2960412,29.879474 7.2023781,28.951619 7.0458595,27.401097 5.5423729,24.933257 5.5423729,26.226869 c 0,0.217999 -0.1144068,0.325653 -0.2542373,0.239233 -0.5040089,-0.311494 -0.2356594,0.736812 0.7475972,2.92049 0.5510092,1.223715 0.9475759,2.440095 0.8812599,2.703071 -0.1636652,0.649006 1.3164142,3.648101 3.1444913,6.3717 3.059622,4.558444 4.601796,7.44662 2.662758,4.986801 C 10.334874,40.417068 7.3202181,34.97039 5.6771547,30.715958 5.2043362,29.491675 4.3614552,26.653698 3.8040859,24.409345 3.2467168,22.164992 2.4825199,19.59653 2.1058707,18.701651 1.5894146,17.474606 1.4518607,16.801284 1.5463618,15.962873 c 0.1771681,-1.571832 1.5333187,-2.914317 3.658344,-3.62148 1.5787844,-0.525385 2.2850411,-1.00241 1.4841138,-1.00241 -0.2249421,0 -0.7568507,0.179888 -1.1820188,0.399751 C 4.5544172,12.231231 3.9535081,12.042453 4.062677,11.285057 4.1431185,10.726968 4.6528475,10.377978 6.2197154,9.8082247 7.2754027,9.4243495 7.7796684,8.3011749 7.3347435,7.3246708 7.0389107,6.675389 7.0851173,6.5834059 8.1910531,5.6200251 9.4824979,4.4950472 9.6964014,3.6577307 8.8131102,3.1850077 8.4145716,2.9717163 8.3556524,2.8417403 8.5914447,2.6960127 8.7680807,2.5868456 8.8339884,2.3703293 8.7379063,2.2148653 8.6206912,2.0252072 8.9027537,1.9322034 9.5951652,1.9322034 c 0.8889228,0 1.0319538,-0.076349 1.0319538,-0.5508475 0,-0.3029661 0.0858,-0.46303388 0.190678,-0.3557062 0.104872,0.1073276 0.190678,0.8414378 0.190678,1.6313559 v 1.4362147 l 1.906779,0.1271187 1.90678,0.1271186 0.07826,0.8073379 c 0.103499,1.0677651 0.436037,1.3016631 2.44955,1.722945 1.757699,0.3677586 2.429822,0.7266028 2.429822,1.297274 0,0.1832013 0.257415,0.4107974 0.572034,0.505769 0.314619,0.094971 1.117185,0.5031048 1.78348,0.9069628 0.666296,0.4038582 1.40994,0.7480747 1.652543,0.7649267 0.242602,0.01685 -0.760176,0.172302 -2.228396,0.345447 -1.46822,0.173144 -3.205312,0.400019 -3.860203,0.504166 -1.129178,0.179572 -1.183411,0.161443 -1.049455,-0.350805 0.112525,-0.430297 0.213756,-0.479994 0.497703,-0.244339 0.490185,0.406818 0.697891,0.121611 0.364757,-0.500857 -0.15116,-0.2824443 -0.274836,-0.7626025 -0.274836,-1.0670178 0,-0.4969536 -0.09273,-0.5360875 -0.907885,-0.3831628 -0.499336,0.093676 -1.07137,0.2330558 -1.271186,0.3097322 -0.241153,0.092539 -0.363302,-0.033568 -0.363302,-0.3750768 0,-0.2829686 0.143009,-0.5675087 0.317797,-0.6323112 C 15.565813,7.7533874 14.668888,7.0613095 13.326421,6.657286 L 12.091086,6.2855052 12.22184,7.0961423 c 0.126368,0.7834467 0.09968,0.8115343 -0.795543,0.837378 -0.930506,0.026862 -2.4907202,0.5274804 -2.2850178,0.7331825 0.060557,0.060557 0.9382768,0.021613 1.9504888,-0.086541 1.401997,-0.149803 1.906349,-0.117164 2.117303,0.1370204 0.152305,0.1835161 0.520325,0.343469 0.817822,0.3554515 0.297497,0.011982 -0.317147,0.2420585 -1.365876,0.51128 -3.4554443,0.8870553 -4.5762712,1.2575673 -4.5762712,1.5127783 0,0.251208 0.8238498,0.125401 1.9868902,-0.30341 0.812739,-0.299656 3.287371,-0.273178 3.479211,0.03723 0.27795,0.449732 0.635556,0.271283 0.636856,-0.317796 0.0012,-0.5417792 0.03433,-0.5316944 0.626451,0.190678 0.343853,0.419491 0.629301,0.835488 0.63433,0.924437 0.01004,0.177677 -5.254059,1.682211 -6.7156004,1.919386 -1.0588887,0.171834 -1.3971867,0.545492 -0.8553422,0.944746 0.2084237,0.153575 0.3263646,0.435467 0.2620906,0.626428 -0.064274,0.19096 0.036778,0.442154 0.2245599,0.55821 0.6223795,0.384651 0.02368,0.548463 -0.8956428,0.245059 C 6.8144802,15.705793 6.5105982,15.426382 6.3710062,14.912495 6.1785511,14.204 6.1743826,14.202763 4.9954126,14.504407 2.612217,15.114157 1.857024,16.181129 2.6403177,17.831799 c 0.531442,1.11993 0.8681569,1.122562 0.8681569,0.0068 0,-0.480304 0.1115751,-1.166745 0.2479446,-1.525424 0.3195908,-0.840588 0.9969194,-0.883302 0.8381698,-0.05286 -0.1449674,0.758347 0.9564274,1.688849 1.9990192,1.688849 0.5589341,0 0.7284257,-0.118313 0.7284257,-0.508475 0,-0.411622 0.1694916,-0.508475 0.8898305,-0.508475 0.4894068,0 0.8898305,0.114407 0.8898305,0.254238 0,0.482235 0.9933831,0.251237 3.0993741,-0.720718 1.678647,-0.774728 2.648172,-1.038499 4.720858,-1.284366 2.732033,-0.32408 6.373098,-1.167474 6.7857,-1.571796 0.423022,-0.414535 0.675767,-0.254564 0.403013,0.255081 -0.14475,0.270468 -0.274893,1.042714 -0.289206,1.716102 -0.02502,1.177034 -0.03386,1.191145 -0.228849,0.365206 -0.225607,-0.955638 -0.69388,-1.37618 -1.270551,-1.141045 -0.209746,0.08552 -1.067797,0.305557 -1.90678,0.488963 -2.230543,0.48761 -2.486058,0.611091 -2.136376,1.032433 0.346123,0.417052 0.333878,0.418992 -0.725951,0.115038 -0.706776,-0.202701 -0.864625,-0.162723 -1.100938,0.278832 -0.220638,0.412267 -0.473705,0.496594 -1.264082,0.421219 -0.641183,-0.06115 -0.901262,-0.0073 -0.740604,0.153371 0.136187,0.136187 0.247612,0.344975 0.247612,0.463975 0,0.381411 -1.76151,0.967372 -2.415026,0.803349 -0.860689,-0.216019 -1.083897,0.449258 -0.536128,1.597942 0.532732,1.117151 0.333342,1.856922 -0.500495,1.856922 -0.768916,0 -2.1415711,1.268906 -2.1415711,1.979704 0,0.675411 0.6671451,1.346095 1.1533881,1.159506 0.435392,-0.167076 1.643222,0.548741 1.643222,0.973851 0,0.165737 -0.19717,0.109343 -0.464934,-0.132979 -0.673295,-0.609324 -1.145157,-0.520779 -1.7766728,0.333392 l -0.5575688,0.754152 0.7639945,0.564846 c 0.7419731,0.548565 1.0247421,1.231935 0.5097571,1.231935 -0.13983,0 -0.254237,0.114407 -0.254237,0.254237 0,0.139831 0.163307,0.254238 0.362903,0.254238 0.492682,0 1.344721,1.127148 1.546499,2.045837 0.166633,0.758672 0.927283,1.048741 1.274956,0.486193 0.08994,-0.145518 0.411306,-0.189562 0.714157,-0.09788 0.458117,0.138694 0.401123,0.0034 -0.339193,-0.805429 -0.489407,-0.534674 -1.061441,-1.116229 -1.271186,-1.292344 -0.334458,-0.280831 -0.326641,-0.321204 0.06356,-0.328297 0.348229,-0.0063 0.444915,-0.229083 0.444915,-1.025034 0,-0.559322 0.09568,-1.016949 0.212621,-1.016949 0.116942,0 0.202747,0.474638 0.190678,1.054752 -0.02555,1.22819 0.29021,1.44539 1.059439,0.728743 0.724486,-0.674959 0.850625,-0.649294 1.520757,0.309437 0.708712,1.013924 0.411645,1.453587 -0.69891,1.034398 -0.610046,-0.230265 -0.759161,-0.218929 -0.759161,0.05772 0,0.189346 0.10941,0.411885 0.243134,0.494532 0.133723,0.08264 0.182117,0.309272 0.107541,0.503611 -0.07458,0.194342 -0.0164,0.576059 0.129277,0.848263 0.382151,0.714056 0.08964,0.848367 -0.924649,0.424568 -1.017575,-0.425171 -1.843439,-0.482961 -1.843439,-0.129 0,0.883981 0.696815,1.516561 2.627018,2.384853 2.403713,1.081294 2.852541,1.161435 2.466673,0.440433 -0.366537,-0.68488 -0.335815,-0.779425 0.253272,-0.779425 0.284049,0 0.582306,0.17161 0.662793,0.381355 0.186579,0.486217 0.600414,0.496559 0.600414,0.015 0,-1.094908 1.12322,-0.557415 1.695336,0.811267 0.189963,0.454449 0.472558,0.826271 0.627991,0.826271 0.181066,0 0.227043,-0.296876 0.127964,-0.826271 l -0.154641,-0.826272 0.631336,0.713329 c 1.02114,1.153765 0.750149,1.956168 -0.660644,1.956168 -0.268225,0 -0.483512,0.08581 -0.478416,0.190678 0.01714,0.352769 1.890798,1.624642 2.604434,1.767938 1.197165,0.240389 2.389173,2.363418 1.326979,2.363418 -0.209746,0 -0.381356,-0.114407 -0.381356,-0.254237 0,-0.139831 -0.286017,-0.254238 -0.635593,-0.254238 -0.349577,0 -0.635594,-0.144945 -0.635594,-0.322101 0,-0.201849 -0.379664,-0.332056 -1.016949,-0.348767 -0.559322,-0.01467 -1.016949,0.06764 -1.016949,0.182895 0,0.115261 0.943856,0.648153 2.097458,1.184205 3.264708,1.517039 3.964261,1.883995 3.241525,1.700369 -1.40543,-0.357074 -2.288135,-0.41175 -2.288135,-0.141729 0,0.193789 -0.195737,0.187416 -0.6538,-0.02128 -0.512575,-0.233545 -0.697085,-0.227858 -0.854184,0.02634 -0.160871,0.260294 -0.406296,0.262533 -1.244654,0.01137 -0.574349,-0.172078 -0.976157,-0.423082 -0.892906,-0.557784 0.08325,-0.134703 -0.0063,-0.344776 -0.199003,-0.466833 -0.532278,-0.337139 -0.80275,-0.273028 -0.639786,0.15165 0.110316,0.287476 -0.04404,0.381356 -0.627034,0.381356 -0.599153,0 -0.754108,0.100042 -0.687849,0.444096 0.20696,1.074656 3.539025,1.779776 4.389839,0.92896 0.310954,-0.310952 0.48885,-0.338344 0.756231,-0.116438 0.192296,0.159593 0.709932,0.393501 1.150303,0.519796 0.627168,0.17987 0.83232,0.147165 0.946706,-0.150918 0.106459,-0.277429 0.352585,-0.335184 0.908267,-0.213134 0.484527,0.106418 0.831083,0.05602 0.951203,-0.138344 0.254288,-0.411447 1.803521,0.590543 3.296212,2.131874 l 1.133443,1.170379 -0.879206,-0.0039 c -0.981463,-0.0043 -1.863966,-0.453275 -1.322537,-0.67277 0.601441,-0.243849 0.03248,-0.594547 -0.964528,-0.594547 -0.958399,0 -0.985912,0.02324 -0.719672,0.607559 0.359537,0.789099 1.273634,1.194045 3.071428,1.360647 1.320818,0.1224 1.429393,0.177529 1.198683,0.608616 -0.139531,0.260715 -0.478478,0.474026 -0.753219,0.474026 -0.274742,0 -0.499531,0.122364 -0.499531,0.271919 0,0.149555 0.257416,0.23536 0.572034,0.190678 0.314619,-0.04468 0.782822,0.129547 1.040454,0.387178 0.280497,0.280497 0.674667,0.414488 0.982507,0.333984 0.357199,-0.09341 0.731881,0.104019 1.227758,0.646935 0.532741,0.583278 0.831516,0.730078 1.178509,0.579043 0.255664,-0.11128 0.572799,-0.176779 0.704751,-0.145554 0.131952,0.03123 0.668113,-0.136316 1.191468,-0.372317 0.686209,-0.309438 1.221925,-0.375827 1.921106,-0.238076 0.533252,0.105059 0.797939,0.242627 0.588193,0.305705 -0.209746,0.06308 -0.552966,0.179266 -0.762712,0.258194 -0.209746,0.07892 -0.600135,0.155666 -0.867531,0.170534 -0.499205,0.02775 -0.913897,0.662624 -0.432821,0.662624 0.147094,0 0.19502,0.188733 0.106502,0.41941 -0.13234,0.344873 -0.0443,0.390132 0.495412,0.254675 0.424144,-0.106454 0.694147,-0.05246 0.763172,0.152623 0.0826,0.245431 0.20506,0.23625 0.54029,-0.04051 0.510239,-0.421243 0.925083,-0.126607 0.987447,0.701324 0.08304,1.102309 0.632718,0.318842 0.841312,-1.199125 0.108936,-0.792761 0.228585,-0.884202 0.785967,-0.600674 0.256681,0.130566 1.267538,0.437306 2.246352,0.681646 1.416247,0.353532 1.930884,0.385207 2.520213,0.155112 0.980838,-0.382955 0.646821,-0.681249 -1.397336,-1.247885 -0.94388,-0.26165 -1.604569,-0.579492 -1.567793,-0.75424 C 44.417954,51.107982 44.071724,51 43.408724,51 c -0.716853,0 -0.976416,-0.08986 -0.850076,-0.294285 0.124297,-0.201117 0.01045,-0.249455 -0.359601,-0.152687 -0.390602,0.102145 -0.858038,-0.137042 -1.677539,-0.858397 -0.624833,-0.549999 -1.766402,-1.216868 -2.536822,-1.481931 -0.770421,-0.265065 -1.916378,-0.784103 -2.546573,-1.153424 -1.324373,-0.776133 -2.778183,-2.32488 -2.541641,-2.707617 0.08905,-0.144078 -0.235279,-0.680662 -0.720725,-1.192406 -1.013224,-1.068114 -2.582257,-3.329013 -2.421706,-3.489564 0.05948,-0.05948 0.700159,0.621542 1.423741,1.51337 4.163227,5.131269 9.775823,8.570016 16.262899,9.96402 l 2.08651,0.44837 0.587537,-0.551962 c 0.323143,-0.303579 0.773621,-0.551962 1.001059,-0.551962 0.492776,0 0.876377,-0.50386 0.394981,-0.518806 -0.183041,-0.0057 0.0633,-0.348903 0.547426,-0.762712 0.899392,-0.768763 1.83991,-1.005613 1.725704,-0.434583 -0.03496,0.174788 0.07945,0.289195 0.254238,0.254237 0.506832,-0.101367 0.373655,0.271655 -0.434583,1.21723 -0.806421,0.943451 -0.966995,1.491925 -0.455248,1.554976 0.895869,0.11038 3.527291,0.246447 4.70339,0.243206 0.73411,-0.002 1.649364,-0.0044 2.033898,-0.0053 4.876902,-0.01101 5.148305,0.05465 5.148305,1.245313 0,0.640647 -0.130022,0.777925 -0.95339,1.006586 -0.524364,0.145622 -1.182203,0.27043 -1.461864,0.277348 -0.279661,0.0069 -0.966102,0.190896 -1.525424,0.408844 -0.559322,0.217947 -1.646186,0.379177 -2.415254,0.358289 -0.769068,-0.0209 -1.913135,0.14898 -2.542373,0.377484 -1.911201,0.694047 -8.139241,1.375553 -12.20339,1.335363 l -3.68644,-0.03645 3.050847,-0.175213 z m 4.957627,-0.498394 c 0,-0.13983 -0.17161,-0.254237 -0.381356,-0.254237 -0.209745,0 -0.381356,0.114407 -0.381356,0.254237 0,0.139831 0.171611,0.254237 0.381356,0.254237 0.209746,0 0.381356,-0.114406 0.381356,-0.254237 z m -2.952406,-2.00221 c 0.411203,-0.454373 0.398117,-0.483191 -0.278393,-0.613053 -0.390435,-0.07495 -0.828122,-0.03855 -0.972643,0.08089 -0.346378,0.286254 -0.996287,-0.124741 -0.771753,-0.488049 0.26685,-0.431771 -0.510272,-0.337477 -0.878857,0.106643 -0.453107,0.545959 0.389133,1.147235 1.34134,0.957577 0.43092,-0.08583 0.699153,-0.02952 0.699153,0.146763 0,0.428662 0.375946,0.345379 0.861153,-0.190769 z M 36.432203,53.79661 c 0.08642,-0.13983 0.03597,-0.254237 -0.112113,-0.254237 -0.148083,0 -0.269243,0.114407 -0.269243,0.254237 0,0.139831 0.05045,0.254237 0.112114,0.254237 0.06166,0 0.182822,-0.114406 0.269242,-0.254237 z m -0.88983,-0.254237 c 0,-0.139831 -0.114407,-0.254237 -0.254237,-0.254237 -0.139831,0 -0.254238,0.114406 -0.254238,0.254237 0,0.13983 0.114407,0.254237 0.254238,0.254237 0.13983,0 0.254237,-0.114407 0.254237,-0.254237 z m 19.440684,-0.343724 c 0.446501,-0.326491 0.439378,-0.351424 -0.142086,-0.497293 -1.528116,-0.383354 -4.800882,-0.497565 -5.18249,-0.180859 -0.698883,0.580019 -0.411986,0.744188 1.455926,0.833102 1.013771,0.04826 2.193175,0.110474 2.620899,0.138257 0.427724,0.02779 0.989212,-0.104159 1.247751,-0.293207 z m 1.680079,-0.234666 c -0.03145,-0.303991 -0.380159,-0.24512 -0.489407,0.08263 -0.05593,0.167797 0.03559,0.259322 0.20339,0.20339 0.167796,-0.05593 0.296504,-0.18464 0.286017,-0.286017 z m 7.099576,0.06992 c 0.265485,-0.171569 -0.183252,-0.247634 -1.47687,-0.250345 -1.174985,-0.0025 -1.80045,0.08959 -1.701096,0.250345 0.200941,0.325132 2.674861,0.325132 3.177966,0 z m -4.067797,-0.254237 c 0,-0.13983 -0.114407,-0.254237 -0.254237,-0.254237 -0.139831,0 -0.254237,0.114407 -0.254237,0.254237 0,0.139831 0.114406,0.254237 0.254237,0.254237 0.13983,0 0.254237,-0.114406 0.254237,-0.254237 z M 37.322034,52.525424 c 0,-0.139831 -0.05045,-0.254238 -0.112114,-0.254238 -0.06166,0 -0.182822,0.114407 -0.269242,0.254238 -0.08642,0.13983 -0.03597,0.254237 0.112114,0.254237 0.148083,0 0.269242,-0.114407 0.269242,-0.254237 z m -11.23517,-1.036017 c -0.05011,-0.150318 -0.199788,-0.273305 -0.332627,-0.273305 -0.132839,0 -0.282521,0.122987 -0.332627,0.273305 -0.05011,0.150318 0.09958,0.273305 0.332627,0.273305 0.233051,0 0.382733,-0.122987 0.332627,-0.273305 z m 5.006356,-0.743644 c -0.709594,-0.304922 -1.459639,-0.304922 -1.271186,0 0.08642,0.13983 0.522198,0.246195 0.968395,0.236367 0.68385,-0.01505 0.731405,-0.05219 0.302791,-0.236367 z m -6.483051,-0.762712 c 0,-0.139831 -0.114406,-0.254237 -0.254237,-0.254237 -0.13983,0 -0.254237,0.114406 -0.254237,0.254237 0,0.13983 0.114407,0.254237 0.254237,0.254237 0.139831,0 0.254237,-0.114407 0.254237,-0.254237 z m 3.497037,-0.317797 c -0.121192,-0.36799 -1.208901,-0.593588 -1.208901,-0.250734 0,0.363066 0.298612,0.568531 0.826271,0.568531 0.276158,0 0.441941,-0.137695 0.38263,-0.317797 z m -4.641104,-0.444915 c 0.08642,-0.139831 -0.07169,-0.254237 -0.351348,-0.254237 -0.279661,0 -0.579181,0.114406 -0.665601,0.254237 -0.08642,0.13983 0.07169,0.254237 0.351347,0.254237 0.279661,0 0.579182,-0.114407 0.665602,-0.254237 z m 3.177966,0 c 0,-0.139831 -0.292769,-0.254237 -0.650598,-0.254237 -0.368991,0 -0.582586,0.110044 -0.49347,0.254237 0.08642,0.13983 0.379189,0.254237 0.650598,0.254237 0.271409,0 0.49347,-0.114407 0.49347,-0.254237 z M 26.389831,47.97812 c 0,-0.247352 -1.54988,-1.045917 -2.029948,-1.045917 -0.602829,0 -0.06962,0.643699 0.777857,0.939041 1.079237,0.376109 1.252091,0.390862 1.252091,0.106876 z m -2.542373,-0.2682 c 0,-0.354279 -0.467375,-0.57889 -0.789855,-0.379586 -0.196152,0.121228 -0.1769,0.240104 0.06356,0.392469 0.453837,0.287565 0.726296,0.282732 0.726296,-0.01288 z m 2.79661,-0.523479 c 0,-0.139831 -0.17161,-0.254238 -0.381356,-0.254238 -0.209746,0 -0.381356,0.114407 -0.381356,0.254238 0,0.13983 0.17161,0.254237 0.381356,0.254237 0.209746,0 0.381356,-0.114407 0.381356,-0.254237 z m -0.771792,-1.127339 c -0.462758,-0.453247 -1.770581,-0.796345 -1.770581,-0.464497 0,0.304609 0.980653,0.789079 1.643462,0.811917 0.437235,0.01508 0.453057,-0.02818 0.127119,-0.34742 z m 9.797216,0.11039 c -0.08642,-0.139831 -0.264784,-0.254238 -0.396361,-0.254238 -0.131578,0 -0.239233,0.114407 -0.239233,0.254238 0,0.13983 0.178363,0.254237 0.396361,0.254237 0.217999,0 0.325653,-0.114407 0.239233,-0.254237 z M 20.542373,45.915254 c 0,-0.13983 -0.200212,-0.252485 -0.444915,-0.250345 -0.380224,0.0033 -0.389466,0.03973 -0.06356,0.250345 0.4798,0.310071 0.508475,0.310071 0.508475,0 z m 2.542373,0 c 0,-0.13983 -0.114407,-0.254237 -0.254238,-0.254237 -0.13983,0 -0.254237,0.114407 -0.254237,0.254237 0,0.139831 0.114407,0.254238 0.254237,0.254238 0.139831,0 0.254238,-0.114407 0.254238,-0.254238 z m 11.18644,-0.88983 c 0,-0.209746 -0.114406,-0.381356 -0.254237,-0.381356 -0.13983,0 -0.254237,0.17161 -0.254237,0.381356 0,0.209745 0.114407,0.381356 0.254237,0.381356 0.139831,0 0.254237,-0.171611 0.254237,-0.381356 z M 22.830508,43.252292 c 0,-0.188329 -1.461778,-0.897344 -1.830594,-0.887901 -0.520597,0.01333 0.811845,1.00849 1.350285,1.00849 0.26417,0 0.480309,-0.05426 0.480309,-0.120589 z M 18.65056,42.745373 c 0.271429,-0.205297 0.359856,-0.376907 0.196504,-0.381356 -0.163351,-0.0044 -0.47797,-0.07753 -0.699152,-0.162404 -0.288292,-0.110629 -0.402149,-0.0027 -0.402149,0.381356 0,0.631304 0.230223,0.672628 0.904797,0.162404 z m 1.891813,-0.651656 c 0,-0.144221 -0.17161,-0.32807 -0.381356,-0.408557 -0.209746,-0.08049 -0.381356,-0.348905 -0.381356,-0.596484 0,-0.247581 -0.17161,-0.592568 -0.381356,-0.766642 -0.209746,-0.174074 -0.381356,-0.432885 -0.381356,-0.575136 0,-0.142251 -0.200212,-0.410621 -0.444915,-0.596377 -0.31888,-0.242064 -0.346072,-0.340029 -0.09599,-0.345826 0.290711,-0.0067 0.292714,-0.07582 0.01201,-0.414046 -0.284096,-0.342313 -0.269047,-0.443941 0.09599,-0.648226 0.701955,-0.392832 0.509745,-0.609654 -0.849213,-0.957943 -1.203304,-0.308398 -1.310629,-0.295724 -1.745922,0.206173 -0.255093,0.294125 -0.611126,0.534771 -0.791184,0.534771 -0.222753,0 -0.180317,0.162501 0.132783,0.508474 0.25309,0.279661 0.367497,0.508475 0.254238,0.508475 -0.113259,0 0.0011,0.228813 0.254237,0.508474 0.340141,0.375852 0.369364,0.508475 0.112043,0.508475 -0.593087,0 0.316963,0.735486 2.215592,1.790601 1.815906,1.009146 2.375755,1.18442 2.375755,0.743794 z M 12.915254,38.79661 c -0.14967,-0.279661 -0.382509,-0.508474 -0.517419,-0.508474 -0.402859,0 -0.278051,0.464128 0.199623,0.742347 0.611254,0.356024 0.627213,0.344278 0.317796,-0.233873 z m 1.652543,-1.016949 C 14.314707,37.5 13.925153,37.274992 13.702122,37.279645 c -0.308152,0.0064 -0.261409,0.128507 0.194687,0.508474 0.782832,0.652165 1.263361,0.646106 0.670988,-0.0085 z m -1.553061,-1.12441 c -0.173581,-0.452347 -0.798756,-0.70934 -0.986517,-0.405537 -0.07733,0.125131 0.06201,0.345468 0.309654,0.489641 0.627462,0.365293 0.839217,0.338982 0.676863,-0.0841 z m 7.527637,0.09948 c 0,-0.327697 -0.724341,-0.623614 -0.956992,-0.390964 -0.09479,0.09479 -0.0041,0.278787 0.201643,0.408872 0.49214,0.31124 0.755349,0.304999 0.755349,-0.01791 z m -7.881356,-2.02592 c 0,-0.139831 -0.178362,-0.254238 -0.39636,-0.254238 -0.217998,0 -0.325653,0.114407 -0.239233,0.254238 0.08642,0.13983 0.264782,0.254237 0.39636,0.254237 0.131578,0 0.239233,-0.114407 0.239233,-0.254237 z m 1.144068,-4.576272 c -0.08642,-0.13983 -0.264782,-0.254237 -0.396361,-0.254237 -0.131578,0 -0.239232,0.114407 -0.239232,0.254237 0,0.139831 0.178362,0.254238 0.39636,0.254238 0.217998,0 0.325653,-0.114407 0.239233,-0.254238 z m 1.906779,0 c 0,-0.13983 -0.114406,-0.254237 -0.254237,-0.254237 -0.13983,0 -0.254237,0.114407 -0.254237,0.254237 0,0.139831 0.114407,0.254238 0.254237,0.254238 0.139831,0 0.254237,-0.114407 0.254237,-0.254238 z m -4.830508,-0.254237 c 0,-0.13983 -0.286017,-0.254237 -0.635593,-0.254237 -0.3495766,0 -0.6355935,0.114407 -0.6355935,0.254237 0,0.139831 0.2860169,0.254237 0.6355935,0.254237 0.349576,0 0.635593,-0.114406 0.635593,-0.254237 z M 9.9915254,28.627119 c 0.086421,-0.139831 -0.021234,-0.254238 -0.2392329,-0.254238 -0.2179981,0 -0.3963603,0.114407 -0.3963603,0.254238 0,0.13983 0.1076547,0.254237 0.239233,0.254237 0.1315782,0 0.3099401,-0.114407 0.3963602,-0.254237 z M 7.5762712,25.067797 c 0,-0.139831 -0.2574153,-0.252486 -0.5720339,-0.250345 -0.462569,0.0031 -0.4990574,0.05106 -0.190678,0.250345 0.4929049,0.318539 0.7627119,0.318539 0.7627119,0 z M 5.6160379,24.305085 C 5.4684381,23.740662 4.779661,23.601082 4.779661,24.135593 c 0,0.424061 0.2449915,0.677966 0.6541645,0.677966 0.1900129,0 0.2623752,-0.201931 0.1822124,-0.508474 z m 2.3687898,0.106325 c -0.084876,-0.221182 -0.1543192,-0.449996 -0.1543192,-0.508474 0,-0.05848 -0.2288136,-0.106326 -0.5084746,-0.106326 -0.6255885,0 -0.6770415,0.681377 -0.063559,0.841697 0.7962414,0.20808 0.8828835,0.181015 0.7263528,-0.226897 z m 0.037631,-1.186834 C 7.8967853,22.842971 6.8135593,22.637288 6.8135593,22.995029 c 0,0.267446 0.4194976,0.494406 0.9745762,0.527273 0.1864409,0.01104 0.2918863,-0.122938 0.2343232,-0.297726 z m 0.5707614,-1.716101 c 0.4886421,-0.382222 0.537535,-0.498476 0.2114713,-0.502822 -0.6910645,-0.0092 -1.2284204,0.278246 -1.2284204,0.657141 0,0.47747 0.259618,0.438074 1.0169491,-0.154319 z M 4.4448595,21.206568 c -0.081159,-0.202814 -0.1414025,-0.14257 -0.1536018,0.153602 -0.011039,0.268008 0.049049,0.418167 0.1335305,0.333686 0.084481,-0.08448 0.093513,-0.303761 0.020071,-0.487288 z M 11.09436,21.063559 c -0.04026,-0.244703 0.02723,-0.605279 0.149979,-0.80128 0.150839,-0.240861 0.07123,-0.46747 -0.245615,-0.699153 -0.543685,-0.397552 -2.1512664,-0.463723 -2.1512664,-0.08855 0,0.139831 0.1194221,0.254238 0.2653823,0.254238 0.1459602,0 0.2317653,0.200211 0.190678,0.444915 -0.056352,0.335616 0.1282792,0.464486 0.7515671,0.524582 0.511807,0.04935 0.826271,0.218675 0.826271,0.444916 0,0.200886 0.06439,0.365248 0.143099,0.365248 0.07871,0 0.110162,-0.200212 0.06991,-0.444916 z M 8.0212607,20.555218 c 0.139007,-0.417489 -0.6575792,-0.71551 -0.9992484,-0.37384 -0.1462139,0.146213 -0.1850601,0.396553 -0.086325,0.556309 0.2246319,0.363462 0.9440642,0.242536 1.0855734,-0.182469 z M 5.0338983,18.20339 c 0,-0.139831 -0.1716102,-0.254237 -0.3813559,-0.254237 -0.2097458,0 -0.381356,0.114406 -0.381356,0.254237 0,0.13983 0.1716102,0.254237 0.381356,0.254237 0.2097457,0 0.3813559,-0.114407 0.3813559,-0.254237 z m 7.6271187,-0.508475 c 0,-0.13983 -0.114407,-0.254237 -0.254237,-0.254237 -0.139831,0 -0.254238,0.114407 -0.254238,0.254237 0,0.139831 0.114407,0.254238 0.254238,0.254238 0.13983,0 0.254237,-0.114407 0.254237,-0.254238 z M 12.767342,5.3372062 c 0.221182,-0.084876 0.40215,-0.2640849 0.40215,-0.3982429 0,-0.3555732 -1.340196,-0.1405792 -1.463445,0.2347655 -0.111254,0.3388157 0.399392,0.4174734 1.061295,0.1634774 z M 10.627119,4.7288136 c 0,-0.1398305 -0.05045,-0.2542373 -0.112115,-0.2542373 -0.06166,0 -0.182821,0.1144068 -0.269241,0.2542373 -0.08642,0.1398305 -0.03597,0.2542372 0.112114,0.2542372 0.148083,0 0.269242,-0.1144067 0.269242,-0.2542372 z"
     id="path3772"
     inkscape:connector-curvature="0" />
  <path
     style="fill:#008000;fill-opacity:1;stroke:#ffffff;stroke-width:0.25423729"
     d="m 27.788136,13.862639 c -0.838983,-0.274916 -1.951519,-0.511024 -2.472301,-0.524683 -0.910444,-0.02388 -0.932454,-0.04543 -0.572034,-0.559999 0.206164,-0.29434 0.374843,-0.847853 0.374843,-1.230028 v -0.694865 l 0.984467,0.34734 c 1.471742,0.519261 3.02722,1.3855 2.511296,1.398529 -0.641813,0.01621 -0.553367,0.262722 0.381356,1.062897 0.978159,0.83736 0.816847,0.864184 -1.207627,0.200809 z"
     id="path3774"
     inkscape:connector-curvature="0" />
  <path
     style="fill:#008000;fill-opacity:1;stroke:#ffffff;stroke-width:0.25423729"
     d="m 28.174591,37.912924 c -0.176878,-0.213125 -0.451678,-0.3875 -0.610667,-0.3875 -0.158988,0 -0.431966,-0.228814 -0.606617,-0.508475 -0.174651,-0.279661 -0.488189,-0.508474 -0.69675,-0.508474 -0.485863,0 -0.480127,-0.229797 0.01952,-0.781899 0.304582,-0.336559 0.333992,-0.551375 0.124567,-0.909849 -0.431959,-0.739389 -1.876681,-6.489117 -1.839898,-7.322459 0.01824,-0.413322 -0.07387,-0.817646 -0.204684,-0.898497 -0.13082,-0.08085 -0.315081,-1.573187 -0.409469,-3.316302 -0.09439,-1.743115 -0.25267,-3.283706 -0.351739,-3.423537 -0.226758,-0.32006 -0.01918,-2.415254 0.239294,-2.415254 0.105334,0 0.270329,1.401483 0.366656,3.114407 0.376856,6.701442 1.395664,11.413741 3.311405,15.316247 1.110934,2.263058 1.281729,2.792677 0.658384,2.041592 z"
     id="path3776"
     inkscape:connector-curvature="0" />
  <path
     style="fill:#008000;fill-opacity:1;stroke:#ffffff;stroke-width:0.25423729"
     d="m 16.589477,28.85773 c -0.223647,-0.432486 -0.343685,-0.849285 -0.26675,-0.926219 0.07693,-0.07693 0.212017,0.0481 0.300184,0.277863 0.266852,0.695404 0.636052,0.467686 0.456249,-0.281408 l -0.167816,-0.699152 0.671446,0.616351 c 0.797276,0.731855 0.849396,1.177303 0.179687,1.53572 -0.689209,0.368854 -0.718473,0.355802 -1.173,-0.523155 z"
     id="path3778"
     inkscape:connector-curvature="0" />
  <path
     style="fill:#008000;fill-opacity:1;stroke:#ffffff;stroke-width:0.25423729"
     d=""
     id="path3780"
     inkscape:connector-curvature="0" />
  <path
     style="fill:#008000;fill-opacity:1;stroke:#ffffff;stroke-width:0.25423729"
     d="m 20.952697,28.525137 c -0.466401,-0.982868 -0.512893,-1.634036 -0.156087,-2.186154 0.213156,-0.329835 0.246977,-0.324111 0.250344,0.04237 0.0021,0.233051 0.102624,0.461864 0.223294,0.508475 0.312935,0.120874 0.630424,2.5 0.33362,2.5 -0.132466,0 -0.425493,-0.389113 -0.651171,-0.864694 z"
     id="path3782"
     inkscape:connector-curvature="0" />
  <path
     style="fill:#008000;fill-opacity:1;stroke:#ffffff;stroke-width:0.25423729"
     d="m 12.342827,25.639831 c -0.358058,-0.401277 -0.358447,-0.480316 -0.004,-0.805838 0.341243,-0.313366 0.436308,-0.301735 0.721488,0.08827 0.321521,0.439707 0.238897,1.162482 -0.13289,1.162482 -0.103198,0 -0.366281,-0.200212 -0.58463,-0.444915 z"
     id="path3784"
     inkscape:connector-curvature="0" />
  <path
     style="fill:#008000;fill-opacity:1;stroke:#ffffff;stroke-width:0.25423729"
     d="m 11.445833,28.012908 c -0.229818,-0.504394 -0.191658,-0.7159 0.213428,-1.182968 l 0.493281,-0.568758 v 1.182968 c 0,1.299202 -0.273578,1.519377 -0.706709,0.568758 z"
     id="path3786"
     inkscape:connector-curvature="0" />
  <path
     style="fill:#008000;fill-opacity:1;stroke:#ffffff;stroke-width:0.06355932"
     d="m 13.542375,24.688024 c -0.167534,-0.04465 -0.401379,-0.235039 -0.851823,-0.693515 -0.341491,-0.34758 -0.604076,-0.648782 -0.583522,-0.669336 0.05706,-0.05706 0.707436,0.25894 1.180284,0.573469 0.47562,0.316374 0.912815,0.726942 0.861868,0.809376 -0.0425,0.06877 -0.306382,0.06008 -0.606807,-0.01999 z"
     id="path3788"
     inkscape:connector-curvature="0" />
  <path
     style="fill:#008000;fill-opacity:1;stroke:#ffffff;stroke-width:0.06355932"
     d="m 15.13983,24.163811 c -0.297139,-0.118314 -0.700206,-0.260265 -0.895704,-0.315446 -0.453265,-0.127939 -0.63746,-0.275585 -0.886217,-0.710366 -0.233563,-0.408225 -0.219302,-0.554561 0.0466,-0.478168 0.515588,0.148127 1.775321,0.930052 2.291467,1.422328 0.387119,0.369217 0.225609,0.39293 -0.556145,0.08165 z"
     id="path3790"
     inkscape:connector-curvature="0" />
  <path
     style="fill:#008000;fill-opacity:1;stroke:#ffffff;stroke-width:0.06355932"
     d="M 15.677645,22.282615 C 15.476936,22.177036 15.157276,21.98038 14.967288,21.845601 l -0.345432,-0.245052 -0.01819,-0.436927 c -0.01001,-0.24031 -0.04151,-0.507778 -0.07,-0.594374 -0.0437,-0.132825 -0.01278,-0.116973 0.197732,0.101374 0.137245,0.14235 0.456898,0.378923 0.710341,0.525716 0.253443,0.146793 0.460805,0.296721 0.460805,0.333173 0,0.03645 -0.08581,0.09867 -0.190678,0.13825 -0.231154,0.08725 -0.237795,0.137419 -0.03571,0.269828 0.182511,0.119586 0.514232,0.536987 0.426759,0.536987 -0.03319,0 -0.224556,-0.08638 -0.425264,-0.191961 z"
     id="path3792"
     inkscape:connector-curvature="0" />
  <path
     style="fill:#008000;fill-opacity:1;stroke:#ffffff;stroke-width:0.06355932"
     d="m 21.887062,20.483042 c -0.243218,-0.258894 -0.305415,-0.765919 -0.180463,-1.471118 0.147956,-0.83503 0.479802,-1.622094 0.683916,-1.622094 0.02683,0 0.08292,0.103441 0.124643,0.229869 0.08097,0.245353 0.05893,0.483671 -0.09613,1.039279 -0.132384,0.474354 -0.131491,1.082547 0.0016,1.082547 0.118976,0 0.250786,-0.299097 0.382949,-0.868973 0.116932,-0.504204 0.293235,-0.877938 0.330848,-0.701346 0.08363,0.392647 -0.435998,1.963661 -0.755905,2.285362 -0.212291,0.21348 -0.310779,0.218785 -0.491446,0.02647 z"
     id="path3794"
     inkscape:connector-curvature="0" />
  <path
     style="fill:#008000;fill-opacity:1;stroke:#ffffff;stroke-width:0.06355932"
     d="m 29.720908,14.284787 c 0.01842,-0.02981 -0.005,-0.106843 -0.05206,-0.171191 -0.07185,-0.09826 -0.07152,-0.131026 0.002,-0.204582 0.04817,-0.04817 0.08759,-0.197755 0.08759,-0.332406 0,-0.313353 -0.219865,-0.583067 -0.604116,-0.741087 -0.211613,-0.08702 -0.2853,-0.152205 -0.285477,-0.252527 -1.31e-4,-0.07437 -0.04383,-0.171405 -0.09711,-0.215625 -0.05328,-0.04422 -0.08383,-0.09345 -0.06788,-0.109389 0.05746,-0.05746 0.725528,0.436046 1.039064,0.767565 0.266575,0.281864 0.651119,0.889235 0.651119,1.028416 0,0.04778 -0.514417,0.281797 -0.623455,0.283626 -0.04576,7.68e-4 -0.06813,-0.02299 -0.0497,-0.0528 z"
     id="path3796"
     inkscape:connector-curvature="0" />
  <path
     style="fill:#008000;fill-opacity:1;stroke:#ffffff;stroke-width:0.06355932"
     d="m 11.516949,15.78967 c -0.713651,-0.407382 -0.916425,-0.497297 -1.121487,-0.497297 -0.202894,0 -0.207837,-0.006 -0.143892,-0.174788 0.192335,-0.50767 0.597695,-0.600083 1.115188,-0.254238 0.511153,0.341609 0.938792,1.13042 0.610996,1.127027 -0.06118,-6.33e-4 -0.268538,-0.09095 -0.460805,-0.200704 z"
     id="path3798"
     inkscape:connector-curvature="0" />
  <path
     style="fill:#008000;fill-opacity:1;stroke:#ffffff;stroke-width:0.06355932"
     d="m 13.709746,13.097564 c 0.403941,-0.331196 1.462379,-0.563298 2.410312,-0.528551 0.9404,0.03447 0.951115,0.194622 0.02869,0.428874 -0.436469,0.110842 -0.454635,0.110632 -0.681006,-0.0079 -0.290772,-0.152208 -0.648013,-0.120663 -1.200592,0.106013 -0.217791,0.08934 -0.475206,0.16141 -0.572034,0.160153 l -0.176051,-0.0023 z"
     id="path3800"
     inkscape:connector-curvature="0" />
  <path
     style="fill:#008000;fill-opacity:1;stroke:#ffffff;stroke-width:0.06355932"
     d="m 19.784669,12.407493 c -0.267382,-0.09665 -0.312292,-0.213767 -0.252086,-0.657426 0.07839,-0.577671 0.335674,-0.730478 0.727157,-0.43188 0.216782,0.165348 0.473311,0.619651 0.473311,0.838216 0,0.308639 -0.455515,0.42924 -0.948382,0.25109 z"
     id="path3802"
     inkscape:connector-curvature="0" />
  <path
     style="fill:#008000;fill-opacity:1;stroke:#ffffff;stroke-width:0.06355932"
     d="m 16.690354,34.735121 c -0.07074,-0.09957 -0.224776,-0.246116 -0.342311,-0.325662 -0.303489,-0.205396 -0.480738,-0.607589 -0.637963,-1.447595 -0.172839,-0.923429 -0.313078,-1.25713 -0.568891,-1.353688 -0.160494,-0.06058 -0.192036,-0.107104 -0.192036,-0.283245 0,-0.275633 0.06223,-0.241523 0.77331,0.423878 0.689416,0.645129 0.815185,0.886303 0.817068,1.566809 0.0014,0.507691 0.127318,0.927619 0.352869,1.176851 0.07822,0.08643 0.07978,0.128368 0.0098,0.263245 l -0.08324,0.16044 z"
     id="path3804"
     inkscape:connector-curvature="0" />
  <path
     style="fill:#008000;fill-opacity:1;stroke:#ffffff;stroke-width:0.06355932"
     d="m 30.455559,43.528602 c -0.371771,-0.411686 -0.761715,-1.15411 -0.75853,-1.444182 0.0021,-0.19017 0.0066,-0.187532 0.381527,0.220665 0.339676,0.369865 0.746978,1.057927 0.855951,1.445974 0.07202,0.256458 -0.132069,0.161664 -0.478948,-0.222457 z"
     id="path3806"
     inkscape:connector-curvature="0" />
  <path
     style="fill:#008000;fill-opacity:1;stroke:#ffffff;stroke-width:0.06355932"
     d="m 24.729028,44.654093 c -0.231767,-0.06192 -0.538422,-0.197354 -0.681456,-0.300968 -0.24802,-0.179664 -0.254726,-0.193216 -0.144822,-0.292677 0.105332,-0.09533 0.139214,-0.09583 0.394128,-0.0059 0.153389,0.05412 0.448507,0.183157 0.655818,0.286751 0.207312,0.103595 0.436715,0.188461 0.509786,0.188592 0.109759,1.97e-4 0.09668,0.0223 -0.07525,0.127118 -0.114457,0.06978 -0.214563,0.123006 -0.222458,0.118269 -0.0079,-0.0047 -0.203981,-0.05927 -0.435749,-0.121193 z"
     id="path3808"
     inkscape:connector-curvature="0" />
  <path
     style="fill:#008000;fill-opacity:1;stroke:#ffffff;stroke-width:0.06355932"
     d="m 26.866525,44.408337 c -0.06991,-0.02903 -0.335765,-0.08992 -0.590779,-0.135317 -0.255013,-0.04539 -0.478364,-0.106326 -0.496336,-0.135404 -0.04305,-0.06966 0.08552,-0.06694 0.344355,0.0073 0.257137,0.07375 0.393184,0.02858 0.393184,-0.130527 0,-0.15878 0.01691,-0.154821 0.572034,0.133919 0.357015,0.185696 0.436802,0.248954 0.317797,0.25196 -0.08739,0.0022 -0.216102,0.0168 -0.286017,0.03243 -0.06992,0.01563 -0.184322,0.0047 -0.254238,-0.02436 z"
     id="path3810"
     inkscape:connector-curvature="0" />
  <path
     style="fill:#008000;fill-opacity:1;stroke:#ffffff;stroke-width:0.06355932"
     d="m 29.279952,39.313868 c -0.166631,-0.288475 -0.359044,-0.516688 -0.566188,-0.671534 -0.292666,-0.218777 -0.304426,-0.238018 -0.174788,-0.285974 0.152254,-0.05632 0.17547,-0.205524 0.07365,-0.473325 -0.101849,-0.267885 -0.03395,-0.246423 0.161528,0.05105 0.09809,0.149281 0.388296,0.550208 0.644895,0.890948 0.256598,0.340741 0.466542,0.633909 0.466542,0.651484 0,0.01757 -0.04128,0.03195 -0.09173,0.03195 -0.05045,0 -0.129931,0.05453 -0.176615,0.121184 -0.07847,0.112028 -0.103951,0.08817 -0.337291,-0.315791 z"
     id="path3814"
     inkscape:connector-curvature="0" />
  <path
     style="fill:#008000;fill-opacity:1;stroke:#ffffff;stroke-width:0.06355932"
     d="m 25.291098,35.012973 c -0.231826,-0.518832 -0.335337,-0.960259 -0.2461,-1.049497 0.09945,-0.09945 0.303142,0.09736 0.397882,0.384425 0.06929,0.209943 0.0972,0.946765 0.0381,1.00586 -0.0143,0.0143 -0.09975,-0.139055 -0.189886,-0.340788 z"
     id="path3816"
     inkscape:connector-curvature="0" />
  <path
     style="fill:#008000;fill-opacity:1;stroke:#ffffff;stroke-width:0.06355932"
     d="m 14.767323,45.544496 c -0.1876,-0.156287 -0.436872,-0.164315 -0.465628,-0.015 -0.01442,0.07486 -0.157127,-0.07239 -0.446619,-0.460805 -0.398449,-0.534608 -0.41655,-0.573102 -0.285382,-0.606892 0.112808,-0.02906 0.138217,-0.07852 0.130622,-0.254237 l -0.0094,-0.218159 0.136549,0.183993 c 0.0751,0.101197 0.322459,0.412404 0.549684,0.691571 0.593955,0.729733 0.65225,0.809 0.593225,0.806643 -0.02913,-0.0012 -0.120494,-0.05837 -0.203021,-0.127118 z"
     id="path3818"
     inkscape:connector-curvature="0" />
  <path
     style="fill:#008000;fill-opacity:1;stroke:#ffffff;stroke-width:0.06355932"
     d="M 7.7985009,33.214704 C 7.7359004,33.093121 7.5503739,32.793432 7.3862197,32.548729 7.1897885,32.25591 7.0737761,32.006037 7.0468585,31.817797 c -0.022495,-0.15731 -0.058747,-0.357522 -0.080561,-0.444916 -0.021814,-0.08739 0.1183052,0.112818 0.3113766,0.444916 0.1930714,0.332097 0.4985543,0.768273 0.6788511,0.969279 0.2778973,0.309818 0.3074658,0.365466 0.1941888,0.365466 -0.080134,0 -0.1545932,0.05669 -0.1860084,0.141611 -0.05016,0.135596 -0.057219,0.132222 -0.1662042,-0.07945 z"
     id="path3820"
     inkscape:connector-curvature="0" />
  <path
     style="fill:#008000;fill-opacity:1;stroke:#ffffff;stroke-width:0.06355932"
     d="m 11.741618,14.395958 c -0.123568,-0.108494 -0.224669,-0.236542 -0.224669,-0.284552 0,-0.149091 0.284621,-0.291444 0.485855,-0.242999 0.40328,0.09709 0.785332,0.367337 0.785332,0.555519 0,0.05767 -0.402924,0.169294 -0.611087,0.169294 -0.14511,0 -0.280745,-0.06145 -0.435431,-0.197262 z"
     id="path3822"
     inkscape:connector-curvature="0" />
  <path
     style="fill:#008000;fill-opacity:1;stroke:#ffffff;stroke-width:0.06355932"
     d="m 40.233051,53.161017 c 0.04451,-0.04451 0.07627,-0.257991 0.07627,-0.512653 0,-0.42049 -0.06869,-0.662322 -0.216083,-0.760738 -0.04342,-0.02899 -0.0286,-0.04706 0.03906,-0.04767 0.122475,-0.0011 0.238402,-0.181595 0.194784,-0.303284 -0.02986,-0.08331 0.644421,0.14521 1.341209,0.45454 l 0.373799,0.165943 -0.161367,0.126931 c -0.08875,0.06981 -0.214059,0.127559 -0.27846,0.128327 -0.341943,0.0041 -1.038704,0.480107 -1.038704,0.709648 0,0.08726 -0.04937,0.115227 -0.20339,0.115227 -0.158192,0 -0.18644,-0.01695 -0.127118,-0.07627 z"
     id="path3824"
     inkscape:connector-curvature="0" />
  <path
     style="fill:#008000;fill-opacity:1;stroke:#ffffff;stroke-width:0.06355932"
     d="m 38.466102,56.918084 c -4.405813,-0.398293 -6.936095,-0.872343 -9.960797,-1.866159 -1.868828,-0.614035 -2.739972,-0.971959 -4.23371,-1.73949 -0.951344,-0.48883 -1.166311,-0.622201 -1.048729,-0.650656 0.110246,-0.02668 0.147259,-0.07934 0.145391,-0.206836 -0.0014,-0.09407 0.0086,-0.171045 0.02227,-0.171045 0.01362,0 0.300769,0.154347 0.638099,0.342992 0.659667,0.368906 3.062223,1.410795 4.458667,1.933539 1.07242,0.401448 2.418579,0.797312 3.262561,0.959419 1.912681,0.367375 8.240709,1.196222 9.336624,1.222913 0.338978,0.0083 0.296355,0.01895 -0.284566,0.07137 -0.508025,0.04585 -0.683263,0.08411 -0.683263,0.149188 0,0.105321 0.01846,0.105826 -1.652542,-0.04523 z"
     id="path3826"
     inkscape:connector-curvature="0" />
  <path
     style="fill:#008000;fill-opacity:1;stroke:#ffffff;stroke-width:0.06355932"
     d="m 33.130014,55.287798 c -0.12076,-0.01463 -0.564086,-0.170852 -0.98517,-0.347155 -0.421084,-0.176303 -1.237269,-0.505092 -1.813745,-0.730642 -0.576476,-0.225551 -1.059253,-0.421206 -1.072837,-0.43479 -0.01358,-0.01358 0.185239,-0.0109 0.44183,0.006 0.386815,0.02543 0.580988,0.08366 1.136397,0.340807 0.728798,0.337422 1.225689,0.497045 2.178292,0.699762 0.340227,0.0724 0.626244,0.131639 0.635593,0.131639 0.0093,0 0.017,0.08581 0.017,0.190678 0,0.205184 -0.0094,0.207701 -0.537359,0.14373 z"
     id="path3828"
     inkscape:connector-curvature="0" />
  <path
     style="fill:#008000;fill-opacity:1;stroke:#ffffff;stroke-width:0.06355932"
     d="m 26.45339,53.339977 c -1.118122,-0.433133 -1.799936,-0.757969 -3.134398,-1.493321 -0.378815,-0.208745 -0.528042,-0.321079 -0.460805,-0.346881 0.05469,-0.02099 0.09944,-0.07913 0.09944,-0.129216 0,-0.05926 0.160896,0.01582 0.460805,0.215039 0.55295,0.367306 2.103771,1.180907 2.898004,1.520368 1.013833,0.433319 1.12007,0.614845 0.136954,0.234011 z"
     id="path3830"
     inkscape:connector-curvature="0" />
  <path
     style="fill:#008000;fill-opacity:1;stroke:#ffffff;stroke-width:0.06355932"
     d="m 23.435686,28.989407 c 0.04252,-0.539589 0.203007,-1.145272 0.331789,-1.252152 0.07732,-0.06417 0.115359,-0.05278 0.208684,0.06248 0.06277,0.07752 0.130316,0.140947 0.150095,0.140947 0.01978,0 0.09259,-0.107256 0.161791,-0.238347 l 0.125828,-0.238348 0.0028,0.201369 c 0.0015,0.110754 0.02017,0.246612 0.04139,0.301907 0.02688,0.07006 0.0018,0.100538 -0.08287,0.100538 -0.110199,0 -0.291862,0.163127 -0.617601,0.554587 -0.06474,0.0778 -0.171539,0.292311 -0.237337,0.476695 l -0.119633,0.335243 z"
     id="path3832"
     inkscape:connector-curvature="0" />
  <path
     style="fill:#008000;fill-opacity:1;stroke:#ffffff;stroke-width:0.06355932"
     d="m 23.916781,17.330159 c -0.04927,-0.03063 -0.127921,-0.04097 -0.174788,-0.02299 -0.065,0.02494 -0.08521,-0.05183 -0.08521,-0.323677 0,-0.314003 0.01511,-0.356376 0.127118,-0.356376 0.07796,0 0.127866,-0.04302 0.129052,-0.111229 0.0018,-0.105794 0.0051,-0.105804 0.0666,-2.14e-4 0.03557,0.06106 0.05615,0.281824 0.04574,0.490591 -0.01534,0.307712 -0.03589,0.369035 -0.108503,0.323892 z"
     id="path3834"
     inkscape:connector-curvature="0" />
  <path
     style="fill:#008000;fill-opacity:1;stroke:#ffffff;stroke-width:0.06355932"
     d="m 24.88185,10.83524 c -0.04778,-0.04778 -0.427956,-0.08741 -1.047288,-0.109173 -0.768162,-0.02699 -0.905558,-0.04422 -0.654477,-0.08208 0.624918,-0.09423 0.730932,-0.125097 0.730932,-0.212785 0,-0.114918 0.352784,-0.06163 0.800982,0.12099 0.258597,0.105366 0.316243,0.155014 0.284576,0.245097 -0.03052,0.08681 -0.05708,0.0956 -0.114725,0.03795 z"
     id="path3836"
     inkscape:connector-curvature="0" />
  <path
     style="fill:#008000;fill-opacity:1;stroke:#ffffff;stroke-width:0.06355932"
     d="m 15.978184,27.614832 c -0.285571,-0.968327 -0.366946,-1.762944 -0.11304,-1.103822 0.08089,0.209976 0.239486,0.564856 0.352443,0.788623 0.184274,0.365045 0.19455,0.412907 0.100008,0.465816 -0.05795,0.03243 -0.126931,0.117256 -0.153285,0.188498 -0.03747,0.101277 -0.07806,0.02731 -0.186126,-0.339115 z"
     id="path3838"
     inkscape:connector-curvature="0" />
</svg>
