<svg xmlns="http://www.w3.org/2000/svg" xmlns:xlink="http://www.w3.org/1999/xlink" viewBox="0 0 114.25 38.25" fill="#fff" fill-rule="evenodd" stroke="#000" stroke-linecap="round" stroke-linejoin="round"><use xlink:href="#A" x="3.125" y="3.125"/><symbol id="A" overflow="visible"><g stroke="none" fill-rule="nonzero"><path d="M22.556 31.713H3.025A3.03 3.03 0 0 1 0 28.688V3.025A3.03 3.03 0 0 1 3.025 0h19.53a3.03 3.03 0 0 1 3.025 3.025V28.68a3.03 3.03 0 0 1-3.025 3.025z" fill="#6762a6"/><path d="M16.03 27.35V14.756s.813-3.012-10.087 1.23c-.02.063-.02-11.644-.02-11.644l3.563-.025v7.5s9.98-3.937 9.98 2.98v12.55H16.03zm2.03-18.5h-3.78c1.363-1.663 2.594-4.513 2.594-4.513h3.906s-.67 1.856-2.72 4.513zM5.98 27.325v-7.17l3.587 3.587-3.587 3.587z"/><path d="M39.68 26.43V16.12c0-.725-.53-1.044-1.163-1.044a11.06 11.06 0 0 0-4.262.944V26.43H31.35V7.28h2.906v6.25c1.375-.5 3.025-.937 4.675-.937 2.637 0 3.625 1.625 3.625 3.85v10zm8.313-6.25c.094 3.462.775 4.144 2.906 4.144 1.67 0 3.563-.625 5.012-1.113l.48 2.188c-1.55.7-3.437 1.375-5.625 1.375-4.844 0-5.594-2.663-5.594-6.9 0-2.325.17-4.375.725-6.375 1.45-.625 3.394-.85 5.837-.85 3.975 0 5.188 2.206 5.188 6.063v1.475h-8.93zm3.75-5.113c-.875 0-2.25.025-3.387.25-.198.94-.302 1.896-.312 2.856h6.062c0-2.013-.362-3.1-2.35-3.1zm10.625.938V26.43h-2.906V14.718a16.81 16.81 0 0 1 6.731-1.862v2.42c-1.25.094-2.688.25-3.825.75zm11.5 10.75c-4.338 0-6.3-2.125-6.3-7 0-5.156 2.594-7.125 6.3-7.125 4.337 0 6.294 2.125 6.294 7 0 5.156-2.594 7.125-6.294 7.125zm0-11.687c-2.23 0-3.463 1.28-3.463 4.7 0 3.73 1.044 4.563 3.463 4.563 2.225 0 3.463-1.262 3.463-4.675 0-3.73-1.044-4.575-3.463-4.575zM94.18 26.425H90.77c-.8-2.125-1.912-4.375-3.625-6.2h-1.65v6.2h-2.906V7.28h2.906v11h1.356c1.445-1.542 2.6-3.33 3.413-5.28h3.27c-1.112 2.25-2.544 4.238-4.144 5.863 1.83 2.35 3.396 4.892 4.675 7.58zm5.45.338c-2.638 0-3.625-1.625-3.625-3.85v-9.92h2.875v10.294c0 .725.53 1.044 1.162 1.044a11.75 11.75 0 0 0 4.406-.944V12.994h2.906v11.675c-3.437 1.887-6.08 2.106-7.725 2.106z" fill="#6762a6"/></g></symbol></svg>