<svg xmlns="http://www.w3.org/2000/svg" xmlns:xlink="http://www.w3.org/1999/xlink" viewBox="0 0 116 32" fill="#fff" fill-rule="evenodd" stroke="#000" stroke-linecap="round" stroke-linejoin="round"><use xlink:href="#E" x=".5" y=".5"/><defs><linearGradient id="A" x1="2.88%" x2="112.05%" y1="53.57%" y2="67.09%"><stop offset="0%" stop-color="#89c442"/><stop offset="100%" stop-color="#74b844"/></linearGradient><linearGradient id="B" x1="-6.71%" x2="115.17%" y1="43.22%" y2="56.60%"><stop offset="0%" stop-color="#74b844"/><stop offset="100%" stop-color="#4a9634"/></linearGradient><linearGradient id="C" x1="-634.26%" x2="-746.06%" y1="-1392.52%" y2="-1368.25%"><stop offset="0%" stop-color="#c1ea71"/><stop offset="100%" stop-color="#acda55"/></linearGradient><linearGradient id="D" x1="-1042.92%" x2="-1197.43%" y1="-1547.26%" y2="-1523.74%"><stop offset="0%" stop-color="#acda55"/><stop offset="100%" stop-color="#89c442"/></linearGradient></defs><symbol id="E" overflow="visible"><g stroke="none"><g fill-rule="nonzero"><path d="M17.327 19.395c-2.13 2.165-4.307 3.248-6.534 3.248-.647 0-1.27-.083-1.866-.25s-1.325-.447-2.183-.842-1.615-.682-2.27-.862c-1.213 1.33-2.31 1.994-3.288 1.994-.34 0-.625-.113-.85-.336A1.12 1.12 0 0 1 0 21.524c0-.682.335-1.282 1.004-1.8s1.614-.874 2.836-1.07c.512-.702.84-1.386.983-2.055s.256-1.77.337-3.307c.153-3.16 1-5.638 2.54-7.43s3.213-2.688 5.02-2.688c1.24 0 2.257.393 3.052 1.18s1.193 1.8 1.193 3c0 1.4-.418 2.646-1.254 3.705s-1.796 1.59-2.882 1.59c-.566 0-1-.155-1.334-.464s-.485-.735-.485-1.273c0-.278.054-.602.163-.97a1.16 1.16 0 0 0 .916.418c.6 0 1.145-.364 1.603-1.09s.687-1.593.687-2.6c0-.773-.176-1.38-.527-1.826s-.83-.667-1.44-.667c-.736 0-1.308.263-1.718.795S10 6.14 9.837 6.878s-.334 1.927-.517 3.57-.49 3.1-.916 4.37-1.23 2.517-2.4 3.738c.765-.054 1.426-.01 1.987.136s1.364.414 2.412.815 1.947.6 2.7.6c1.473 0 2.88-.753 4.217-2.263v1.55zm10.064 0c-1.14 1.123-2.165 1.952-3.072 2.486s-1.91.803-3.004.803c-1.222 0-2.207-.39-2.957-1.17s-1.125-1.8-1.125-3.085c0-1.904.66-3.625 1.98-5.167s2.784-2.3 4.392-2.3c.835 0 1.504.216 2.008.647s.755.997.755 1.698c0 1.86-1.975 3.37-5.927 4.528.36 1.752 1.298 2.628 2.816 2.628a3.3 3.3 0 0 0 1.698-.477c.54-.317 1.352-1.026 2.44-2.122v1.55zm-7.06-2.492c2.3-.647 3.45-1.84 3.45-3.584 0-.862-.314-1.293-.943-1.293-.593 0-1.158.45-1.697 1.354s-.807 2.077-.807 3.523zm21.45 2.492l-3.085 2.668c-.62.413-1.212.62-1.778.62-1.42 0-2.088-1.254-2.008-3.76-.898 1.285-1.726 2.232-2.483 2.843s-1.543.916-2.35.916c-.8 0-1.46-.37-2.014-1.113s-.828-1.65-.828-2.728c0-1.348.37-2.634 1.112-3.854s1.69-2.2 2.85-2.965 2.182-1.133 3.073-1.133c1.123 0 1.91.517 2.358 1.55l2.754-1.523h.756l-1.188 3.948c-.612 1.985-.918 3.346-.918 4.082 0 .77.273 1.158.822 1.158.35 0 .736-.188 1.158-.56l1.777-1.706v1.55zm-9.862.74c.898 0 1.743-.765 2.54-2.295s1.192-2.944 1.192-4.237c0-.502-.112-.896-.337-1.18S34.785 12 34.41 12c-.898 0-1.75.765-2.553 2.292s-1.204 2.935-1.204 4.218c0 .485.12.878.357 1.18s.54.45.91.45zm20.79-.74c-.933 1.05-1.857 1.86-2.772 2.433s-1.73.855-2.45.855c-.34 0-.807-.13-1.4-.39l-1 6.397-3.372.58 1.495-9.58c-.1-.17-.274-.602-.527-1.292l-.902.997h-.3v-1.213l2.568-2.663 1.19-5.23c.306-1.076.732-2.27 1.28-3.577l1.037-2.25c.144-.193.492-.376 1.044-.552l1.772-.498 1.01-.236c.342 0 .62.222.835.667s.323 1.028.323 1.757c0 1.257-.33 2.468-.995 3.634s-1.92 2.6-3.763 4.306l-1.133 5.63c.44.94 1.1 1.413 1.977 1.413 1.254 0 2.62-.912 4.09-2.734v1.55zm-4.525-7.68c1.05-.916 1.873-1.902 2.47-2.958s.895-2.028.895-2.917c0-.377-.07-.687-.208-.928s-.31-.364-.517-.364c-.394 0-.795.517-1.202 1.55s-.887 2.906-1.438 5.62zm13.43 7.68c-1.222 1.123-2.293 1.952-3.213 2.485s-1.8.802-2.634.802c-.96 0-1.736-.373-2.324-1.116s-.883-1.747-.883-3.004c0-1.886.41-4.15 1.226-6.8s1.8-5.075 2.978-7.302l3.422-1.267c.108-.035.19-.054.243-.054.26 0 .473.192.64.573s.248.897.248 1.543c0 1.83-.423 3.607-1.267 5.323s-2.165 3.55-3.96 5.497l-.108 1.927c0 .78.143 1.4.43 1.86s.67.687 1.145.687c.485 0 1-.175 1.55-.527s1.382-1.08 2.506-2.182v1.55zm-5.16-5.268c1.14-1.267 2.066-2.69 2.775-4.264s1.064-2.928 1.064-4.06c0-.333-.05-.6-.148-.803s-.226-.304-.377-.304c-.332 0-.815.827-1.448 2.483s-1.255 3.97-1.866 6.948zm15.238 5.268c-1.14 1.123-2.165 1.95-3.072 2.486s-1.906.803-3.004.803c-1.222 0-2.207-.39-2.957-1.172s-1.125-1.8-1.125-3.085c0-1.904.66-3.625 1.982-5.167s2.784-2.3 4.392-2.3c.835 0 1.505.216 2.007.647s.755.997.755 1.698c0 1.86-1.975 3.37-5.927 4.528.36 1.752 1.298 2.628 2.816 2.628.593 0 1.16-.16 1.698-.477s1.352-1.026 2.44-2.122v1.55zm-7.06-2.492c2.3-.647 3.45-1.84 3.45-3.584 0-.862-.314-1.293-.943-1.293-.593 0-1.16.452-1.697 1.354s-.81 2.077-.81 3.523zm14.82 2.492c-1.132 1.123-2.11 1.95-2.937 2.486s-1.612.803-2.358.803c-.773 0-1.4-.326-1.88-.978s-.72-1.505-.72-2.566c0-.933.23-2.167.7-3.7l.572-2.04-1.035.054.43-2.115 1.28-.054 1.264-4.204 3.6-.74-1.392 4.686 1.903-.108-.445 2.076-2.09.163-.898 3.02c-.314 1.05-.468 1.884-.468 2.505 0 .423.105.765.316 1.032a.99.99 0 0 0 .815.398c.458 0 .913-.145 1.362-.44s1.11-.9 1.984-1.825v1.55z" fill="#6f6f6e"/><path d="M84.574 11.588c.28.327 5.782 2.16 7.694 4.386s2.748 4.214 2.478 6.125-1.44 1.88-1.95 2.575-1.217 1.554-2.57 1.462c-1.773-.12-3.602-1.005-4.923-4.08s-1.22-5.966-1.114-7.57.38-2.898.38-2.898z" fill="url(#A)"/><path d="M1e-13 1e-13l8.2402 12.2822L7.8605 12.706" fill="url(#B)" transform="translate(84.244 12.618)"/></g><path d="M52.668 29.69l.078-.544c2.197-1.17 4.935-1.622 7.162-2.752.668.3.965-.133 1.678-.093.26.233-.325.546.373.498 1.587.21 3.132-.085 4.69-.218 1.646-.14 3.28.016 4.894-.08.514-.03 1.31-.744 1.942-.39.286.518-.933.564-.606 1.135 3.23.76 11.313 3.973 12.693.477.02.213-.242.635.138.577 2.724-1.22 7.353-3.85 8.17-4.54.895-.758 2.1-.734 3.26-1.003 2.1-.485 4.36-.978 6.187-2.044 1.13.784 3.492 1.174 4.754.9 1.317-.286 3.364-2.475 4.46-3.248.43-.303 1.06-.894 1.523-.56-.31.213.055.838-.326.73-.2-.38-.597.06-.887-.015-1.104.903-2.248 1.75-3.37 2.626-.524.322.505.656-.11.76-2.902.577-7.322-.868-9.152 1.138-2.9.99-5.64 1.244-8.5 2.784-1.643.886-3.65 2.496-5.36 3.342-.288.144-.714.194-1.056.405-.416.256-.52.577-.87.653-.875.19-2.684-.268-3.823-.434-3.798-.552-7.85-2.1-11.436-2.295-1.417-.078-3.1.147-4.692.22-3.405.154-5.535.235-8.265 1.154-1.116.376-2.835 1.37-3.557.825z" fill="#3c3c3b"/><g fill-rule="nonzero"><path d="M105.287 0c-.383.62-9.106 5.118-11.724 9.34s-3.365 7.547-2.416 10.673 2.763 2.983 3.797 4.013 2.437 2.282 4.678 1.777c2.934-.662 5.762-2.62 7.17-8.108s.484-10.295-.1-12.95S105.287 0 105.287 0z" fill="url(#C)"/><path d="M105.14.927L94.56 23.615l.62.623" fill="url(#D)"/></g></g></symbol></svg>