<svg xmlns="http://www.w3.org/2000/svg" xmlns:xlink="http://www.w3.org/1999/xlink" viewBox="0 0 104 27" fill="#fff" fill-rule="evenodd" stroke="#000" stroke-linecap="round" stroke-linejoin="round"><use xlink:href="#A" x=".5" y=".5"/><symbol id="A" overflow="visible"><g stroke="none" fill-rule="nonzero"><path d="M11.417 18.425v3.695H0V3.84h4.005v14.585zm1.77-8.702h3.85V22.12h-3.85zm1.925-6.158c1.233 0 2.232 1 2.233 2.232s-1 2.232-2.232 2.232-2.232-1-2.232-2.232 1-2.23 2.23-2.232m26.22 6.157h4.712l-5.052 5.73 4.947 6.666h-4.832l-4.086-6.123h-.05v6.124h-3.848V3.84h3.848v10.925zm-22.166.007h3.694v1.698h.05c.513-.975 1.77-2 3.642-2 3.9 0 4.62 2.565 4.62 5.9v6.793h-3.848v-6.027c0-1.437-.026-3.284-2.002-3.284-2 0-2.308 1.565-2.308 3.18v6.126h-3.85V9.73zm34.983 4.75c.025-1.283-.976-2.36-2.362-2.36-1.693 0-2.617 1.155-2.718 2.36zm3.258 5.5c-1.23 1.565-3.257 2.464-5.264 2.464-3.848 0-6.927-2.567-6.927-6.544s3.08-6.538 6.927-6.538c3.595 0 5.85 2.565 5.85 6.538v1.206h-8.93c.306 1.463 1.4 2.4 2.9 2.4 1.257 0 2.104-.637 2.745-1.514zm8.605-7.248c-1.923 0-3.077 1.284-3.077 3.155s1.155 3.156 3.077 3.156 3.08-1.28 3.08-3.156-1.155-3.155-3.08-3.155m6.623 9.4h-3.54V20.48h-.05c-.592.898-2.08 1.95-3.824 1.95-3.696 0-6.133-2.667-6.133-6.44 0-3.464 2.155-6.646 5.696-6.646 1.592 0 3.08.436 3.948 1.642h.05V3.84h3.85z" fill="#000"/><path d="M100.52 0H78.4c-1.06 0-1.916.838-1.916 1.87v22.215c0 1.034.86 1.872 1.916 1.872h22.12c1.06 0 1.92-.84 1.92-1.872V1.872c0-1.032-.862-1.87-1.92-1.87z" fill="#0177b5"/><path d="M80.332 9.733h3.85V22.12h-3.85zm1.926-6.158a2.23 2.23 0 0 1 2.23 2.232c0 1.232-1 2.23-2.23 2.233s-2.233-1-2.233-2.233 1-2.232 2.233-2.232m4.34 6.158h3.693v1.688h.05c.5-.974 1.77-2 3.642-2 3.9 0 4.62 2.566 4.62 5.9v6.795h-3.847v-6.028c0-1.437-.026-3.285-2-3.285-2.004 0-2.3 1.565-2.3 3.18v6.128H86.6V9.724z"/></g></symbol></svg>