<svg    width="8"
   height="8" xmlns="http://www.w3.org/2000/svg" xmlns:xlink="http://www.w3.org/1999/xlink" viewBox="0 0 232.97 52.97" fill="#fff" fill-rule="evenodd" stroke="#000" stroke-linecap="round" stroke-linejoin="round"><use xlink:href="#A" x="6.485" y="6.485"/><symbol id="A" overflow="visible"><g stroke="none"><path d="M29.254 24.733c-1.725-.04-3.074.13-4.202.6-.324.13-.843.13-.882.545.17.17.195.454.35.687a5.06 5.06 0 0 0 1.128 1.323l1.388 1c.843.52 1.8.817 2.62 1.336.48.298.947.687 1.297 1.012.233.17.4.454.688.558v-.065c-.156-.194-.195-.48-.35-.687l-.648-.623a10.25 10.25 0 0 0-2.244-2.179c-.687-.48-2.205-1.128-2.5-1.92l-.04-.04c.48-.04 1.038-.22 1.492-.35.74-.195 1.4-.156 2.166-.35l1.038-.298v-.195c-.4-.4-.674-.908-1.076-1.27a28.92 28.92 0 0 0-3.567-2.659c-.674-.428-1.53-.713-2.244-1.076-.26-.13-.687-.195-.843-.415-.4-.48-.6-1.102-.882-1.66l-1.777-3.76c-.4-.843-.623-1.686-1.103-2.464a21.79 21.79 0 0 0-8.366-8.093c-.804-.454-1.75-.65-2.763-.882l-1.62-.1c-.35-.156-.687-.558-1-.752-1.222-.774-4.4-2.46-5.178-.23-.584 1.4.87 2.8 1.362 3.502.363.493.843 1.063 1.103 1.62.156.363.195.752.35 1.14L4.08 10.89a10.38 10.38 0 0 0 .804 1.336c.17.233.48.35.545.74-.298.428-.324 1.077-.493 1.62-.778 2.438-.48 5.473.623 7.263.35.545 1.297 1.725 2.27 1.27s.752-1.62 1.038-2.698c.065-.26.026-.428.156-.6v.04l.882 1.8a12.19 12.19 0 0 0 2.815 2.892c.52.4.934 1.064 1.582 1.297v-.065h-.1c-.13-.195-.324-.285-.493-.428a10.49 10.49 0 0 1-1.128-1.297 27.77 27.77 0 0 1-2.425-3.93c-.35-.675-.65-1.4-.934-2.075-.13-.26-.13-.65-.35-.778-.324.48-.804.882-1.038 1.466-.415.934-.454 2.075-.6 3.27-.778-.13-1.012-.843-1.27-1.453-.648-1.53-.752-4.02-.194-5.772.156-.454.804-1.88.545-2.3-.13-.415-.558-.65-.804-.973a8.59 8.59 0 0 1-.778-1.388L3.405 6.34c-.26-.57-.713-1.14-1.1-1.66-.4-.597-.856-1.012-1.167-1.686-.13-.26-.26-.648-.1-.908.04-.17.13-.234.298-.285.285-.234 1.077.065 1.362.195a11.02 11.02 0 0 1 2.14 1.077c.298.22.623.623 1.012.74h.454c.687.156 1.466.04 2.114.233 1.14.363 2.18.908 3.113 1.492 2.862 1.825 5.2 4.376 6.744 7.393.26.493.363.947.6 1.466l1.466 3.178c.454 1.012.882 2.05 1.53 2.892.324.454 1.62.687 2.205.934.428.195 1.102.363 1.492.6l2.166 1.466c.35.26 1.297.804 1.492 1.232zM7.205 5.94c-.363 0-.623.04-.882.104v.04h.04c.17.35.48.584.687.882L7.542 8l.04-.04c.298-.22.454-.558.454-1.077-.13-.156-.156-.298-.26-.454-.13-.22-.415-.324-.584-.493z" fill="#00678c"/><path d="M121.912 30.362h18.6c2.18 0 4.254-.44 5.94-1.232 2.815-1.297 4.15-3.022 4.15-5.292v-4.76c0-1.816-1.53-3.567-4.59-4.747-1.76-.625-3.617-.94-5.486-.934h-7.808c-2.62 0-3.852-.778-4.202-2.516-.052-.194-.052-.39-.052-.597V7.366c0-.156 0-.35.052-.545.35-1.336 1.038-1.686 3.32-1.945h19.04V.57h-18.12c-2.62 0-3.89.156-5.24.545-3.813 1.167-5.486 3.06-5.486 6.38v3.76c0 2.918 3.27 5.395 8.82 5.966.597.052 1.232.052 1.88.052h6.68c.26 0 .493 0 .688.052 2.023.194 2.918.545 3.502 1.297a1.51 1.51 0 0 1 .493 1.193v3.76c0 .44-.298 1.038-.908 1.53s-1.53.843-2.776.908c-.26 0-.39.052-.65.052h-17.847zm68.936-7.47c0 4.4 3.32 6.874 9.948 7.367l1.88.104h16.81v-4.28h-16.952c-3.89 0-5.188-.934-5.188-3.217V.596h-6.485v22.31zm-36.148.195V7.78c0-3.89 2.763-6.278 8.17-7.004l1.725-.104h12.27c.648 0 1.193.052 1.816.104 5.396.74 8.106 3.113 8.106 7.004V23.1c0 3.165-1.14 4.85-3.813 5.966l6.33 5.733h-7.47l-5.15-4.643-5.188.298h-6.926c-1.14 0-2.426-.13-3.89-.493-4.1-1.14-6.135-3.32-6.135-6.874zm6.978-.337c0 .195.104.39.156.65.35 1.777 2.023 2.763 4.59 2.763h5.837l-5.344-4.85h7.47l4.695 4.254c.908-.493 1.297-1.193 1.634-2.075.052-.195.052-.44.052-.648V8.184c0-.195 0-.39-.052-.597-.35-1.686-2.023-2.62-4.54-2.62h-9.728c-2.853 0-4.747 1.232-4.747 3.217z" fill="#ce8b2c"/><path d="M36.063 30.388h6.433V4.915l10.04 22.205c1.14 2.672 2.776 3.658 5.94 3.658s4.695-.986 5.888-3.658L74.35 4.915v25.473h6.485V4.915c0-2.464-.986-3.658-3.06-4.306-4.9-1.48-8.17-.195-9.65 3.113L58.268 25.68 48.774 3.72C47.477.414 44.027-.87 39.085.61c-2.023.648-3.022 1.816-3.022 4.306v25.473zM86.167 9.662h6.485V23.67c-.052.778.26 2.568 3.89 2.62h13.904V9.558h6.485v22.88c0 5.642-6.978 6.874-10.376 6.926H86.322v-4.306h20.428c4.15-.44 3.658-2.516 3.658-3.217v-1.686h-13.71c-6.38-.052-10.48-2.853-10.532-6.096V9.662z" fill="#00678c"/></g></symbol></svg>