<?xml version="1.0" encoding="UTF-8" standalone="no"?>
<svg
   xmlns:dc="http://purl.org/dc/elements/1.1/"
   xmlns:cc="http://creativecommons.org/ns#"
   xmlns:rdf="http://www.w3.org/1999/02/22-rdf-syntax-ns#"
   xmlns:svg="http://www.w3.org/2000/svg"
   xmlns="http://www.w3.org/2000/svg"
   xmlns:sodipodi="http://sodipodi.sourceforge.net/DTD/sodipodi-0.dtd"
   xmlns:inkscape="http://www.inkscape.org/namespaces/inkscape"
   role="img"
   viewBox="0 0 24 24"
   version="1.1"
   id="svg6"
   sodipodi:docname="nginx.svg"
   inkscape:version="0.92.3 (2405546, 2018-03-11)"
      width="8"
   height="8">
  <metadata
     id="metadata12">
    <rdf:RDF>
      <cc:Work
         rdf:about="">
        <dc:format>image/svg+xml</dc:format>
        <dc:type
           rdf:resource="http://purl.org/dc/dcmitype/StillImage" />
        <dc:title></dc:title>
      </cc:Work>
    </rdf:RDF>
  </metadata>
  <defs
     id="defs10" />
  <sodipodi:namedview
     pagecolor="#ffffff"
     bordercolor="#666666"
     borderopacity="1"
     objecttolerance="10"
     gridtolerance="10"
     guidetolerance="10"
     inkscape:pageopacity="0"
     inkscape:pageshadow="2"
     inkscape:window-width="1324"
     inkscape:window-height="726"
     id="namedview8"
     showgrid="false"
     inkscape:zoom="9.8333333"
     inkscape:cx="12"
     inkscape:cy="12"
     inkscape:window-x="0"
     inkscape:window-y="21"
     inkscape:window-maximized="0"
     inkscape:current-layer="svg6" />
  <path
     d="M12 0L1.605 6v12L12 24l10.395-6V6L12 0zm6 16.59c0 .705-.646 1.29-1.529 1.29-.631 0-1.351-.255-1.801-.81l-6-7.141v6.66c0 .721-.57 1.29-1.274 1.29H7.32c-.721 0-1.29-.6-1.29-1.29V7.41c0-.705.63-1.29 1.5-1.29.646 0 1.38.255 1.83.81l5.97 7.141V7.41c0-.721.6-1.29 1.29-1.29h.075c.72 0 1.29.6 1.29 1.29v9.18H18z"
     id="path4" />
  <path
     style="fill:#0066ff;fill-opacity:1;stroke:#ffffff;stroke-width:0.10169491"
     d="M 6.8542373,20.975435 1.7186441,18.002432 1.6924227,12.012847 1.6662014,6.0232617 6.7668498,3.0777325 C 9.5722064,1.4576915 11.902754,0.11818557 11.945845,0.10105268 11.988937,0.08391979 14.339279,1.4070085 17.168828,3.04125 l 5.144636,2.971348 -0.02622,6.004124 -0.02622,6.004123 -4.983051,2.881093 c -2.740678,1.5846 -5.051695,2.918308 -5.135593,2.963795 -0.107084,0.05806 -1.68298,-0.803269 -5.2881357,-2.890298 z m 1.2223745,-3.251064 c 0.5454892,-0.282083 0.5533224,-0.335187 0.608134,-4.122795 l 0.050847,-3.513678 3.0508482,3.639081 c 2.599965,3.101265 3.125188,3.676908 3.553865,3.895034 0.659332,0.335491 1.551544,0.354047 2.055241,0.04275 0.658915,-0.407233 0.645147,-0.286528 0.644973,-5.654624 C 18.040419,7.5859823 18.02438,7.1171712 17.862554,6.7932243 17.534874,6.1372819 16.585705,5.8841433 15.936999,6.2796881 15.351772,6.6365266 15.350138,6.6470524 15.294915,10.417226 l -0.05085,3.471461 -3.038384,-3.637984 C 10.082013,7.7079392 9.0454882,6.5442529 8.7626797,6.3853055 7.8763243,5.8871459 6.7004267,6.0427861 6.2004493,6.7244389 5.9941689,7.0056746 5.9898305,7.1146023 5.9898305,12.012575 c 0,4.739193 0.010079,5.015853 0.1925358,5.285031 0.1058948,0.156226 0.311827,0.348885 0.4576272,0.428132 0.3507977,0.190669 1.0665794,0.189987 1.4366183,-0.0014 z"
     id="path3717"
     inkscape:connector-curvature="0" />
</svg>
