<svg xmlns="http://www.w3.org/2000/svg" xmlns:xlink="http://www.w3.org/1999/xlink" viewBox="0 0 108.344 91.344" fill="#fff" fill-rule="evenodd" stroke="#000" stroke-linecap="round" stroke-linejoin="round"><use xlink:href="#A" x="1.172" y="1.172"/><symbol id="A" overflow="visible"><path d="M52.587 88.945c-26.03 0-47.203-14.196-47.203-31.645 0-1.205.1-2.4.298-3.572A12.04 12.04 0 0 1 0 43.496C.007 36.863 5.355 31.49 11.958 31.48c2.946 0 5.754 1.083 7.927 3.017 8.187-5.28 19.2-8.602 31.35-8.836L59.2 1.2l1.78.422 18.6 4.397A9.87 9.87 0 0 1 88.643 0c5.438.007 9.844 4.435 9.844 9.896s-4.4 9.9-9.844 9.9-9.834-4.425-9.844-9.88L61.837 5.893l-6.46 19.805c11.707.457 22.28 3.792 30.173 8.953a11.86 11.86 0 0 1 8.107-3.183c6.602.007 11.953 5.384 11.96 12.017a11.95 11.95 0 0 1-6.077 10.469c.173 1.103.26 2.217.26 3.333-.005 17.45-21.18 31.646-47.2 31.646zM9.724 53.548a18.02 18.02 0 0 0-.394 3.75c0 15.265 19.406 27.656 43.26 27.656s43.26-12.417 43.26-27.656a17.95 17.95 0 0 0-.361-3.583c-.13-.27-.195-.564-.195-.863-1.32-5.208-4.922-9.937-10.125-13.748-.328-.117-.623-.328-.844-.603-7.908-5.46-19.205-8.888-31.734-8.888-12.398 0-23.602 3.356-31.5 8.726a2.02 2.02 0 0 1-.792.553c-5.315 3.814-9 8.574-10.385 13.828a1.97 1.97 0 0 1-.166.762c-.01.023-.02.047-.03.063zM88.85 37.055c4.575 3.68 7.934 8.058 9.652 12.867 2.004-1.52 3.178-3.9 3.164-6.422-.005-4.443-3.6-8.046-8.016-8.05a8 8 0 0 0-4.805 1.6zm-76.9-1.6c-4.423.004-8.006 3.6-8 8.05 0 2.405 1.066 4.64 2.836 6.145 1.774-4.767 5.166-9.112 9.76-12.754a7.99 7.99 0 0 0-4.582-1.444zM88.643 3.968c-3.25 0-5.9 2.66-5.9 5.93s2.648 5.93 5.9 5.93 5.9-2.658 5.9-5.93-2.648-5.93-5.9-5.93zM52.807 77.656c-7.903 0-13.472-1.734-17.02-5.304a1.99 1.99 0 0 1 0-2.805 1.97 1.97 0 0 1 2.791 0c2.773 2.8 7.425 4.14 14.227 4.14s11.46-1.36 14.236-4.14a1.97 1.97 0 0 1 2.789 0 1.99 1.99 0 0 1 0 2.803c-3.553 3.57-9.117 5.304-17.023 5.304zm15.996-33.544a7.5 7.5 0 0 0-7.397 7.425c0 4.038 3.375 7.313 7.397 7.313s7.277-3.274 7.277-7.312-3.28-7.425-7.277-7.425zm-31.884 0a7.5 7.5 0 0 0-7.39 7.425c0 4.036 3.37 7.313 7.4 7.313s7.277-3.277 7.277-7.312-3.258-7.425-7.277-7.425z" fill="#ff8200" stroke="none"/></symbol></svg>