<svg height='10' width='10' xmlns="http://www.w3.org/2000/svg" xmlns:xlink="http://www.w3.org/1999/xlink" viewBox="0 0 75.15 75.15" fill="#fff" fill-rule="evenodd" stroke="#000" stroke-linecap="round" stroke-linejoin="round"><use xlink:href="#A" x=".075" y=".075"/><symbol id="A" overflow="visible"><path d="M37.5 0C16.785 0 0 16.785 0 37.5S16.785 75 37.5 75 75 58.215 75 37.5 58.215 0 37.5 0zm0 67.5c-16.575 0-30-13.425-30-30s13.425-30 30-30 30 13.425 30 30c0 16.56-13.425 30-30 30zm0-58.5C21.765 9 9 21.765 9 37.5S21.765 66 37.5 66 66 53.25 66 37.5C66 21.765 53.235 9 37.5 9zm-6.855 16.44c-.33 1.14-1.245 2.295-1.95 3.225-.51.66-1.29 1.17-1.605 1.545s-.33 1.065-.33 1.065c-.225.765.87 26.28.465 27.03-.195.36-.24 1.125-1.245 1.125-1.17 0-1.41-.6-1.56-.99-.33-.855 1.095-24.225 1.2-26.565.03-.735.135-1.395-.33-1.89-.45-.48-.975-.825-1.41-1.245-2.685-2.58-2.94-7.395-1.41-10.665.645-1.365 2.31-3.045 3.885-2.925 1.83.15 3.12 1.605 3.885 3.24.9 1.95.975 5.01.405 7.05zm11.07 7.32c-.045.99.09 6.69-1.65 6.525l.06.87c.42 2.175 1.23 17.73 1.005 18.825-.165.78-.405 2.82-1.2 3.225-.585.3-1.41-.135-1.815-.555-.675-.675-.45-1.95-.51-2.865-.21-2.97.375-8.685.465-11.61.135-3.93.135-6 .06-6.945 0 0-.465-6.84-.465-11.385 0-3 .045-15.345.72-15.945 1.08-.96 2.085 1.71 2.325 2.415.735 2.22 1.14 4.44 1.14 6.84-.015 3.555.015 7.065-.135 10.605zm10.575-4.11c-.645.915-.735.63-.795 1.785-.06 1.08.63 24.645.63 26.16 0 1.305-.27 2.01-1.215 2.655h-.15c-.945-.645-1.215-1.35-1.215-2.655 0-1.53.69-25.095.63-26.16-.06-1.14-.15-.87-.795-1.785-1.965-2.76-.87-12.795-.87-12.795l.45-.015.3 9.15.39-.045.345-9.12.405.015.195 9.195.39-.045.435-9.18.345.015.15 9.135.39-.045.495-9.12h.405c-.015.045 1.035 10.095-.915 12.855z" stroke="none" fill="#00526d" fill-rule="nonzero"/></symbol></svg>