<svg xmlns="http://www.w3.org/2000/svg" xmlns:xlink="http://www.w3.org/1999/xlink" viewBox="0 0 65.25 29.25" fill="#fff" fill-rule="evenodd" stroke="#000" stroke-linecap="round" stroke-linejoin="round"><use xlink:href="#B" x=".625" y=".625"/><defs><linearGradient x1="161.08%" y1="-75.75%" x2="161.08%" y2="131.26%" spreadMethod="pad" id="A"><stop offset="0%" stop-color="#faa21b"/><stop offset="100%" stop-color="#f15623"/></linearGradient></defs><symbol id="B" overflow="visible"><path d="M34.216.94c-.594.23-.753.466-.757.925V26.85c.013.48.38.883.85.93.02.001 21.68.013 21.82.013 3.468-.005 6.524-2.278 7.527-5.597s-.284-6.905-3.17-8.83c-2.194-1.46-4.972-1.725-7.403-.707C52.46 5.566 46.51 0 39.254 0a14.05 14.05 0 0 0-5.035.943m-3.234 1.77l-.356 17.734.356 6.438c.012.47.395.857.867.857s.86-.388.866-.864v.006l.375-6.437L32.72 2.7c-.013-.475-.395-.875-.866-.875-.477.004-.863.39-.867.866M28.35 4.174l-.305 16.254c0 .013.305 6.535.305 6.535.01.443.37.798.813.805.445-.007.804-.364.813-.81v.004-.004l.342-6.525-.342-16.25c-.01-.444-.37-.8-.813-.808-.44 0-.804.375-.812.81M20.476 5.89l-.403 14.55.404 6.68a.65.65 0 0 0 .647.64c.354 0 .625-.284.65-.643v-.004l.454-6.675-.454-14.55c-.013-.375-.296-.645-.65-.645a.65.65 0 0 0-.649.645m2.604.373l-.37 14.18.37 6.616c.013.375.317.697.704.697s.69-.31.703-.7v.004l.416-6.617-.416-14.18c-.012-.393-.32-.7-.703-.7a.71.71 0 0 0-.705.7m-5.187.1l-.438 14.078.438 6.72a.6.6 0 0 0 .594.586.6.6 0 0 0 .594-.589l.49-6.72-.49-14.08a.6.6 0 0 0-.594-.588.6.6 0 0 0-.594.59m7.813.418l-.338 13.662.338 6.575c.007.415.344.748.76.75s.748-.33.756-.754v.005l.38-6.575-.38-13.662c-.004-.416-.34-.75-.756-.755-.417.002-.755.338-.76.755m-10.375.663c0 .001-.467 12.993-.467 12.993l.467 6.79c.013.297.25.533.54.533a.55.55 0 0 0 .54-.534l.53-6.8-.53-12.992a.55.55 0 0 0-.54-.534.55.55 0 0 0-.54.534M12.788 9.86l-.5 10.575.5 6.833c.012.267.225.478.484.478s.47-.2.485-.48l.566-6.834-.566-10.575a.5.5 0 0 0-.485-.48c-.256 0-.47.213-.484.48m-5.023 3.566L7.2 20.43l.565 6.778c.016.2.178.367.375.367s.357-.157.375-.367l.64-6.777-.64-7.01c-.02-.21-.18-.367-.375-.367s-.36.16-.375.37m-2.48.185c0 .001-.598 6.82-.598 6.82L5.285 27c.02.184.153.315.32.315s.3-.13.32-.312l.68-6.57-.678-6.82c-.02-.18-.155-.312-.32-.312s-.304.134-.32.313m4.98.322l-.53 6.5.53 6.834c.007.234.196.42.43.425.227 0 .413-.182.43-.425l.605-6.835-.605-6.503c-.02-.25-.2-.42-.43-.42s-.415.18-.43.425m-7.44.75c0 .001-.63 5.746-.63 5.746l.63 5.62c.02.15.13.26.267.26s.244-.105.265-.258l.715-5.622-.715-5.746c-.025-.152-.132-.26-.266-.26s-.25.11-.268.26M.468 16.878L0 20.43l.468 3.494c.02.148.125.25.258.25s.235-.102.255-.25l.555-3.495-.555-3.555c-.02-.146-.125-.25-.255-.25s-.24.102-.258.25" stroke="none" fill="url(#A)" fill-rule="nonzero"/></symbol></svg>