<svg xmlns="http://www.w3.org/2000/svg" xmlns:xlink="http://www.w3.org/1999/xlink" viewBox="0 0 66 65" fill="#fff" fill-rule="evenodd" stroke="#000" stroke-linecap="round" stroke-linejoin="round"><use xlink:href="#B" x=".5" y=".5"/><defs><linearGradient id="A" x1="0.00%" y1="100.00%" x2="100.00%" y2="0.00%"><stop offset="0%" stop-color="#79000e"/><stop offset="75%" stop-color="#e61b27"/></linearGradient></defs><symbol id="B" overflow="visible"><g stroke="none" fill-rule="nonzero"><path d="M0 0h64v64H0z" fill="url(#A)"/><path d="M39.95 20.122h-10.5v2.68h1.692c1.253 0 1.566.54 1.566 1.053a4.71 4.71 0 0 1-.313 1.253l-4.5 12.856-3.872-13.194c-.142-.407-.246-.827-.313-1.253 0-.426.313-.74 1.052-.74h1.88v-2.63h-10.6v2.656h.777c.952-.153 1.865.444 2.105 1.378l.626 1.68-4.298 12.367-4.46-13.256c-.183-.394-.29-.82-.313-1.253a.99.99 0 0 1 1.053-.89h1.53v-2.68H2.524v2.656h.5c1.253 0 1.792.313 2.105 1.253l6.666 19.6h5.012L21.105 31.5l3.76 12.166h4.924l6.478-18.694c.338-1.4 1.664-2.328 3.095-2.168h2.155c1.053 0 1.68.514 1.68 1.366v15.16a1.59 1.59 0 0 1-1.491 1.692 1.25 1.25 0 0 1-.313 0h-2.155v2.857h13.03v-2.63h-1.792c-1.692 0-2.318-.514-2.318-1.804V32.83h1.5c2.193 0 3.132.952 3.132 3.458v.74h2.506v-10.8H52.78v.54c0 1.88-.626 3.558-2.857 3.558h-1.64v-7.518h4.6c5.25 0 5.7 2.62 6.077 5.45h2.506v-8.132z" fill="#fcc60a"/></g></symbol></svg>