<?xml version="1.0" encoding="UTF-8" standalone="no"?>
<svg
   xmlns:dc="http://purl.org/dc/elements/1.1/"
   xmlns:cc="http://creativecommons.org/ns#"
   xmlns:rdf="http://www.w3.org/1999/02/22-rdf-syntax-ns#"
   xmlns:svg="http://www.w3.org/2000/svg"
   xmlns="http://www.w3.org/2000/svg"
   xmlns:sodipodi="http://sodipodi.sourceforge.net/DTD/sodipodi-0.dtd"
   xmlns:inkscape="http://www.inkscape.org/namespaces/inkscape"
   id="Lager_1"
   style="enable-background:new 0 0 128 128;"
   version="1.1"
   viewBox="0 0 128 128"
   xml:space="preserve"
   sodipodi:docname="applewht.svg"
   inkscape:version="0.92.3 (2405546, 2018-03-11)"><metadata
     id="metadata17"><rdf:RDF><cc:Work
         rdf:about=""><dc:format>image/svg+xml</dc:format><dc:type
           rdf:resource="http://purl.org/dc/dcmitype/StillImage" /><dc:title></dc:title></cc:Work></rdf:RDF></metadata><defs
     id="defs15" /><sodipodi:namedview
     pagecolor="#ffffff"
     bordercolor="#666666"
     borderopacity="1"
     objecttolerance="10"
     gridtolerance="10"
     guidetolerance="10"
     inkscape:pageopacity="0"
     inkscape:pageshadow="2"
     inkscape:window-width="1600"
     inkscape:window-height="799"
     id="namedview13"
     showgrid="false"
     inkscape:zoom="1.84375"
     inkscape:cx="64"
     inkscape:cy="64"
     inkscape:window-x="0"
     inkscape:window-y="21"
     inkscape:window-maximized="1"
     inkscape:current-layer="Lager_1" /><g
     id="g10"><g
       id="g6"><g
         id="g4"><circle
           cx="64"
           cy="64"
           r="50"
           style="fill:#F2F2F2;"
           id="circle2" /></g></g><path
       d="M67.1,44c-0.9,0.3-2.1,0.5-3.8,0.6c0.1-3.6,1-6.7,2.8-9.3c1.8-2.6,4.8-4.4,9-5.3   c0,0.1,0.1,0.2,0.1,0.4c0,0.2,0.1,0.3,0.1,0.4s0,0.2,0,0.4c0,0.1,0,0.3,0,0.4c0,1.5-0.3,3.1-1,4.9c-0.7,1.8-1.8,3.5-3.3,5   C69.7,42.7,68.4,43.6,67.1,44z M83.3,69.3c-1.7-2.4-2.5-5.1-2.5-8c0-2.7,0.8-5.2,2.3-7.5c0.8-1.2,2.2-2.6,4.1-4.3   c-1.3-1.5-2.5-2.7-3.8-3.6c-2.3-1.6-4.8-2.3-7.7-2.3c-1.7,0-3.8,0.4-6.2,1.2c-2.4,0.8-4.1,1.2-5.2,1.2c-0.8,0-2.5-0.4-5-1.1   c-2.5-0.7-4.7-1.1-6.4-1.1c-4.1,0-7.5,1.7-10.2,5.2s-4.1,8-4.1,13.5c0,5.8,1.8,11.9,5.3,18.1c3.6,6.2,7.2,9.3,10.9,9.3   c1.2,0,2.8-0.4,4.8-1.2c1.9-0.8,3.7-1.2,5.1-1.2c1.6,0,3.4,0.4,5.4,1.2c2.2,0.8,3.9,1.2,5,1.2c3.1,0,6.2-2.4,9.3-7.1   c2-3,3.5-6,4.4-9C86.9,73.2,85,71.6,83.3,69.3z"
       style="fill:#231F20;"
       id="path8" /></g><path
     style="fill:#000000;fill-opacity:1;stroke:#008000;stroke-width:0.54237288"
     d="M 55.01531,113.30257 C 45.254649,111.44963 36.72022,107.03011 29.417491,100.04683 22.777686,93.697481 17.87082,85.409784 15.429038,76.420339 13.752647,70.248683 13.734994,57.691942 15.394193,51.63473 c 5.047236,-18.425861 19.305841,-32.274782 37.5414,-36.462742 9.071851,-2.083432 18.097747,-1.572165 27.261006,1.544187 7.549636,2.567572 13.247474,6.146395 19.094151,11.993072 24.81276,24.812753 17.31778,66.088459 -14.685516,80.874893 -2.235488,1.03286 -5.943474,2.37023 -8.239962,2.97194 -5.552732,1.45487 -15.741798,1.81113 -21.349962,0.74649 z m 3.767901,-24.069485 c 5.522218,-1.812101 5.92001,-1.822834 11.097586,-0.299433 5.681481,1.671658 7.722441,1.398893 10.988236,-1.468513 2.127512,-1.867976 6.287512,-8.350785 7.397283,-11.527669 0.683764,-1.957381 0.658934,-2.153519 -0.3433,-2.711865 -1.882669,-1.048829 -4.745882,-4.303343 -5.770772,-6.55943 -2.128738,-4.685975 -0.671159,-11.470542 3.257123,-15.160868 0.932642,-0.87615 1.695718,-1.891742 1.695718,-2.256872 0,-0.925878 -3.101066,-3.446444 -5.694916,-4.62886 -2.923867,-1.332857 -7.575322,-1.279219 -12.780875,0.147384 l -4.233397,1.160179 -4.625778,-1.160179 C 51.510987,42.695508 47.567859,43.483863 43.3817,48.04352 c -3.459817,3.768509 -4.736928,7.683437 -4.745236,14.546311 -0.0058,4.81469 0.224028,6.365564 1.487136,10.033898 2.808279,8.155851 7.346904,14.751447 11.425793,16.604133 2.766229,1.256461 3.419351,1.256933 7.233818,0.0054 z m 10.74966,-46.257116 c 2.612707,-1.755149 4.925402,-5.418454 5.662611,-8.969579 0.723417,-3.484674 0.302633,-4.23568 -2.079995,-3.712366 -4.873952,1.070498 -9.045135,6.116437 -9.712231,11.749017 l -0.333301,2.814211 2.288065,-0.306894 c 1.258436,-0.168792 3.137118,-0.877267 4.174851,-1.574389 z"
     id="path19"
     inkscape:connector-curvature="0" /><path
     style="fill:#ffffff;fill-opacity:1;stroke:#0000ff;stroke-width:0.54237288"
     d="m 51.403804,88.5467 c -3.7834,-1.872736 -8.189458,-8.42668 -10.685562,-15.894611 -1.172738,-3.50864 -1.442866,-5.324974 -1.451922,-9.762712 -0.01317,-6.455445 0.600143,-9.056003 2.964781,-12.571102 3.946138,-5.866043 8.120524,-7.11525 17.046959,-5.101391 l 5.31855,1.199897 4.305539,-1.133814 c 7.677853,-2.021875 12.684368,-1.222406 16.27477,2.598849 l 1.597258,1.699956 -1.944277,2.029453 c -3.140013,3.277573 -3.940808,5.289107 -3.938766,9.89386 0.0022,4.939981 1.226044,7.628175 4.853226,10.660124 1.345009,1.124288 2.445471,2.267369 2.445471,2.540178 0,0.962013 -3.327216,7.028146 -5.200565,9.481597 -3.973568,5.204024 -7.088733,6.208719 -13.080326,4.218632 -3.763118,-1.249908 -6.227569,-1.213856 -10.662578,0.155979 -4.596438,1.419695 -4.945666,1.419031 -7.842558,-0.01489 z"
     id="path21"
     inkscape:connector-curvature="0" /><path
     style="fill:#000000;fill-opacity:1;stroke:#0000ff;stroke-width:0.54237288"
     d="m 63.783051,42.960803 c 0,-4.596019 4.332311,-10.608039 8.545869,-11.859243 1.26972,-0.37704 2.468217,-0.525892 2.663327,-0.330782 0.747382,0.747382 -1.040958,6.422175 -2.708518,8.594722 -2.268672,2.955692 -4.020193,4.198501 -6.479498,4.597591 -1.873101,0.303963 -2.02118,0.230531 -2.02118,-1.002288 z"
     id="path23"
     inkscape:connector-curvature="0" /><path
     style="fill:#000000;fill-opacity:1;stroke:#0000ff;stroke-width:0.54237288"
     d="M 54.833898,112.79595 C 33.427288,108.53455 17.135323,90.966601 14.877459,69.710129 13.212376,54.034341 18.149807,39.809787 29.034034,28.925559 42.781203,15.178391 62.754015,10.831011 81.213559,17.567911 c 6.388507,2.331516 11.384564,5.492482 16.609714,10.508835 7.377937,7.08312 12.159677,15.299683 14.604917,25.095966 1.42526,5.70995 1.26609,17.003071 -0.32383,22.976169 -4.71881,17.727876 -18.261079,31.314339 -35.739088,35.855739 -5.502932,1.42985 -16.325724,1.82761 -21.531374,0.79133 z m 4.794278,-23.412964 4.794278,-1.410484 4.542026,1.139173 c 6.275981,1.574058 8.270649,1.49185 10.953275,-0.451428 2.383056,-1.726281 7.181147,-8.597782 8.60282,-12.32038 l 0.885863,-2.319588 -3.012003,-2.752797 C 82.624,67.821513 81.41293,64.973304 81.818121,60.504806 c 0.326579,-3.601543 1.143696,-5.426207 3.915818,-8.744225 1.769247,-2.117653 1.880342,-2.439109 1.202923,-3.48075 -1.134524,-1.744503 -6.066364,-4.508813 -8.766693,-4.913753 -2.20071,-0.330017 -3.683536,-0.218826 -8.079322,0.605831 -1.51604,0.284412 -1.496151,0.237517 0.763076,-1.799265 2.77472,-2.501519 4.848743,-6.670927 4.856032,-9.762074 0.0061,-2.602921 -0.681621,-3.077649 -3.37952,-2.332723 -4.371617,1.207063 -8.661377,6.907384 -9.41615,12.512379 l -0.337846,2.508871 -3.057711,-0.812478 c -1.681741,-0.446863 -4.680144,-0.833233 -6.663117,-0.858599 -3.102175,-0.03968 -3.971389,0.180149 -6.227489,1.574989 -9.365397,5.79018 -11.168191,20.146253 -4.254952,33.883169 2.681097,5.327457 5.690643,8.832645 8.999335,10.481437 1.57345,0.784081 2.995947,1.42566 3.161105,1.42573 0.165159,6.5e-5 2.457713,-0.634592 5.094566,-1.410359 z"
     id="path25"
     inkscape:connector-curvature="0" /><path
     style="fill:#ffffff;fill-opacity:1;stroke:#0000ff;stroke-width:0.54237288"
     d="m 64.337335,42.386441 c 0.01927,-1.974345 2.065758,-5.946303 4.187372,-8.127132 1.894527,-1.947404 5.277908,-3.593417 5.96793,-2.903395 0.59651,0.59651 -1.430315,5.990931 -3.108188,8.272484 -2.540523,3.454575 -7.07122,5.227763 -7.047114,2.758043 z"
     id="path27"
     inkscape:connector-curvature="0" /></svg>